SplineFontDB: 3.2
FontName: FontIcons
FullName: FontIcons
FamilyName: FontIcons
Weight: Regular
Copyright: Apache-2.0 License\n\nThis file contains custom icons created by Charles Carley, as well as icons \n\ncopied from the following source https://github.com/google/material-design-icons\n\n
UComments: "2020-8-6: Created with FontForge (http://fontforge.org)"
Version: 100.000
ItalicAngle: 0
UnderlinePosition: -102
UnderlineWidth: 51
Ascent: 819
Descent: 205
InvalidEm: 0
LayerCount: 2
Layer: 0 0 "Back" 1
Layer: 1 0 "Fore" 0
XUID: [1021 83 1130117904 2965]
StyleMap: 0x0000
FSType: 0
OS2Version: 0
OS2_WeightWidthSlopeOnly: 0
OS2_UseTypoMetrics: 1
CreationTime: 1596708524
ModificationTime: 1638036329
OS2TypoAscent: 0
OS2TypoAOffset: 1
OS2TypoDescent: 0
OS2TypoDOffset: 1
OS2TypoLinegap: 92
OS2WinAscent: 0
OS2WinAOffset: 1
OS2WinDescent: 0
OS2WinDOffset: 1
HheadAscent: 0
HheadAOffset: 1
HheadDescent: 0
HheadDOffset: 1
OS2Vendor: 'PfEd'
MarkAttachClasses: 1
DEI: 91125
Encoding: ISO8859-1
UnicodeInterp: none
NameList: AGL For New Fonts
DisplaySize: -48
AntiAlias: 1
FitToEm: 0
WidthSeparation: 150
WinInfo: 0 38 12
BeginPrivate: 0
EndPrivate
Grid
1023.02148438 -202.173828125 m 1
 0.9775390625 -202.173828125 l 1
 0.9775390625 819.866210938 l 1
 1023.02148438 819.866210938 l 1
 1023.02148438 -202.173828125 l 1
-1.6904296875 -204.842773438 m 1
 1025.68945312 -204.842773438 l 1
 1025.68945312 822.53515625 l 1
 -1.6904296875 822.53515625 l 1
 -1.6904296875 -204.842773438 l 1
0.3515625 821.908203125 m 1
 -1.0634765625 820.4921875 l 1
 1023.6484375 -204.216796875 l 1
 1025.06445312 -202.801757812 l 1
 0.3515625 821.908203125 l 1
-1.064453125 -202.80078125 m 1
 0.3515625 -204.216796875 l 1
 1025.06347656 820.493164062 l 1
 1023.64746094 821.909179688 l 1
 -1.064453125 -202.80078125 l 1
282.174804688 307.84375 m 0
 282.174804688 434.77734375 385.0703125 537.671875 512 537.671875 c 0
 638.930664062 537.671875 741.826171875 434.77734375 741.826171875 307.84375 c 0

StartChar: A
Encoding: 65 65 0
Width: 1002
Flags: W
HStem: 51 171<243 755> 307 43<243 755> 435 43<243 755> 563 171<243 755>
VStem: 73 170<222 307 350 435 478 563> 755 171<222 307 350 435 478 563>
LayerCount: 2
Fore
SplineSet
841 734 m 2
 888 734 926 696 926 649 c 2
 926 -119 l 1
 755 51 l 1
 158 51 l 2
 111 51 73 90 73 137 c 2
 73 649 l 2
 73 696 111 734 158 734 c 2
 841 734 l 2
755 222 m 1
 755 307 l 1
 243 307 l 1
 243 222 l 1
 755 222 l 1
755 350 m 1
 755 435 l 1
 243 435 l 1
 243 350 l 1
 755 350 l 1
755 478 m 1
 755 563 l 1
 243 563 l 1
 243 478 l 1
 755 478 l 1
EndSplineSet
Validated: 1
EndChar

StartChar: B
Encoding: 66 66 1
Width: 831
Flags: W
HStem: -119 170<245 586> 137 85<245 586> 307 128<458 586> 714 20G<136.5 521>
VStem: 74 171<51 137 222 307> 586 171<51 137 222 307>
LayerCount: 2
Fore
SplineSet
501 734 m 1
 757 478 l 1
 757 -34 l 2
 757 -81 719 -119 672 -119 c 2
 159 -119 l 2
 112 -119 74 -81 74 -34 c 2
 75 649 l 2
 75 696 113 734 160 734 c 2
 501 734 l 1
586 51 m 1
 586 137 l 1
 245 137 l 1
 245 51 l 1
 586 51 l 1
586 222 m 1
 586 307 l 1
 245 307 l 1
 245 222 l 1
 586 222 l 1
458 435 m 1
 693 435 l 1
 458 670 l 1
 458 435 l 1
EndSplineSet
Validated: 1
EndChar

StartChar: C
Encoding: 67 67 2
Width: 960
Flags: W
VStem: 193 186<-78 143> 580 186<-78 143>
LayerCount: 2
Fore
SplineSet
35 332 m 1
 184 437 354 604 486 769 c 1
 774 421 833 397 924 332 c 1
 871 279 l 1
 854 296 777 368 760 385 c 1
 715 245 759 34 766 -78 c 1
 580 -78 l 1
 577 258 l 1
 544 259 478 258 478 258 c 1
 379 258 l 1
 379 -78 l 1
 193 -78 l 1
 200 34 243 245 198 385 c 1
 181 368 104 296 87 279 c 1
 35 332 l 1
EndSplineSet
Validated: 33
EndChar

StartChar: D
Encoding: 68 68 3
Width: 701
Flags: W
LayerCount: 2
Fore
SplineSet
649 546 m 1
 411 307 l 1
 649 69 l 1
 589 9 l 1
 350 247 l 1
 112 9 l 1
 52 69 l 1
 290 307 l 1
 52 546 l 1
 112 606 l 1
 350 367 l 1
 589 606 l 1
 649 546 l 1
EndSplineSet
Validated: 1
EndChar

StartChar: E
Encoding: 69 69 4
Width: 744
Flags: W
HStem: 9 213<73 158 585 670> 9 85<158 286 457 585> 393 213<73 158 585 670> 521 85<158 286 457 585>
VStem: 73 213<9 94 521 606> 73 85<94 222 393 521> 457 213<9 94 521 606> 585 85<94 222 393 521>
LayerCount: 2
Fore
SplineSet
158 222 m 1x84
 158 94 l 1x44
 286 94 l 1
 286 9 l 1x48
 73 9 l 1x88
 73 222 l 1
 158 222 l 1x84
73 393 m 1x24
 73 606 l 1x28
 286 606 l 1
 286 521 l 1x18
 158 521 l 1x14
 158 393 l 1
 73 393 l 1x24
585 94 m 1x41
 585 222 l 1
 670 222 l 1x81
 670 9 l 1x82
 457 9 l 1
 457 94 l 1x42
 585 94 l 1x41
457 606 m 1x12
 670 606 l 1x22
 670 393 l 1
 585 393 l 1x21
 585 521 l 1x11
 457 521 l 1
 457 606 l 1x12
EndSplineSet
Validated: 1
EndChar

StartChar: F
Encoding: 70 70 5
Width: 733
Flags: W
HStem: 9 213<196 281 452 537> 137 85<68 196 537 665> 393 213<196 281 452 537> 393 85<68 196 537 665>
VStem: 68 213<137 222 393 478> 196 85<9 137 478 606> 452 213<137 222 393 478> 452 85<9 137 478 606>
LayerCount: 2
Fore
SplineSet
68 137 m 1x48
 68 222 l 1x48
 281 222 l 1x88
 281 9 l 1
 196 9 l 1x84
 196 137 l 1x44
 68 137 l 1x48
196 478 m 1x14
 196 606 l 1
 281 606 l 1x24
 281 393 l 1x28
 68 393 l 1
 68 478 l 1x18
 196 478 l 1x14
452 9 m 1x81
 452 222 l 1x82
 665 222 l 1
 665 137 l 1x42
 537 137 l 1x41
 537 9 l 1
 452 9 l 1x81
537 478 m 1x11
 665 478 l 1
 665 393 l 1x12
 452 393 l 1x22
 452 606 l 1
 537 606 l 1x21
 537 478 l 1x11
EndSplineSet
Validated: 1
EndChar

StartChar: uni0000
Encoding: 0 0 6
Width: 828
Flags: W
HStem: -77 214<329.277 498.491> 51 86<72 162 666 755> 222 85<72 158 328 499 670 755> 393 85<72 162 666 755> 671 20G<240.667 281.217 546.783 587> 671 20G<240.667 281.217 546.783 587>
VStem: 158 170<137 222 307 393> 499 171<137 222 307 393>
LayerCount: 2
Fore
SplineSet
755 478 m 1x7b
 755 393 l 1
 666 393 l 1
 668 379 670 365 670 350 c 2
 670 307 l 1
 755 307 l 1
 755 222 l 1
 670 222 l 1
 670 179 l 2
 670 164 668 151 666 137 c 1
 755 137 l 1
 755 51 l 1
 635 51 l 1x7b
 591 -25 509 -77 414 -77 c 0xb3
 319 -77 236 -25 192 51 c 1
 72 51 l 1
 72 137 l 1
 162 137 l 1
 160 151 158 164 158 179 c 2
 158 222 l 1
 72 222 l 1
 72 307 l 1
 158 307 l 1
 158 350 l 2
 158 365 160 379 162 393 c 1
 72 393 l 1
 72 478 l 1
 192 478 l 1
 211 511 238 539 270 561 c 1
 200 631 l 1
 261 691 l 1
 354 599 l 1
 373 604 393 606 414 606 c 0
 435 606 454 604 474 599 c 1
 567 691 l 1
 627 631 l 1
 558 561 l 1
 590 539 616 511 635 478 c 1
 755 478 l 1x7b
499 137 m 1
 499 222 l 1
 328 222 l 1
 328 137 l 1
 499 137 l 1
499 307 m 1
 499 393 l 1
 328 393 l 1
 328 307 l 1
 499 307 l 1
EndSplineSet
Validated: 1
EndChar

StartChar: uni001E
Encoding: 30 30 7
Width: 828
Flags: W
HStem: -77 214<329.277 498.491> 51 86<72 162 666 755> 222 85<72 158 328 499 670 755> 393 85<72 162 666 755> 671 20G<240.667 281.217 546.783 587> 671 20G<240.667 281.217 546.783 587>
VStem: 158 170<137 222 307 393> 499 171<137 222 307 393>
LayerCount: 2
Fore
SplineSet
755 478 m 1x7b
 755 393 l 1
 666 393 l 1
 668 379 670 365 670 350 c 2
 670 307 l 1
 755 307 l 1
 755 222 l 1
 670 222 l 1
 670 179 l 2
 670 164 668 151 666 137 c 1
 755 137 l 1
 755 51 l 1
 635 51 l 1x7b
 591 -25 509 -77 414 -77 c 0xb3
 319 -77 236 -25 192 51 c 1
 72 51 l 1
 72 137 l 1
 162 137 l 1
 160 151 158 164 158 179 c 2
 158 222 l 1
 72 222 l 1
 72 307 l 1
 158 307 l 1
 158 350 l 2
 158 365 160 379 162 393 c 1
 72 393 l 1
 72 478 l 1
 192 478 l 1
 211 511 238 539 270 561 c 1
 200 631 l 1
 261 691 l 1
 354 599 l 1
 373 604 393 606 414 606 c 0
 435 606 454 604 474 599 c 1
 567 691 l 1
 627 631 l 1
 558 561 l 1
 590 539 616 511 635 478 c 1
 755 478 l 1x7b
499 137 m 1
 499 222 l 1
 328 222 l 1
 328 137 l 1
 499 137 l 1
499 307 m 1
 499 393 l 1
 328 393 l 1
 328 307 l 1
 499 307 l 1
EndSplineSet
Validated: 1
EndChar

StartChar: uni001F
Encoding: 31 31 8
Width: 828
InSpiro: 1
Flags: W
HStem: -76.7998 213.333<328.939 497.727> 51.2002 85.333<72 161.174 665.493 754.666> 221.867 85.333<72 157.333 328 498.666 669.333 754.666> 392.533 213.334<354.074 473.001> 392.533 85.334<72 161.174 665.493 754.666> 671.2 20G<240.16 280.252 546.507 586.507> 671.2 20G<240.16 280.252 546.507 586.507>
VStem: 157.333 170.667<136.533 221.867 307.2 392.533> 498.666 170.667<136.533 221.867 307.2 392.533>
LayerCount: 2
Fore
SplineSet
754.666015625 477.8671875 m 1x2d80
 754.666015625 392.533203125 l 1
 665.493164062 392.533203125 l 1
 667.625976562 378.453125 669.333007812 364.373046875 669.333007812 349.8671875 c 2
 669.333007812 307.200195312 l 1
 754.666015625 307.200195312 l 1
 754.666015625 221.8671875 l 1
 669.333007812 221.8671875 l 1
 669.333007812 179.200195312 l 2
 669.333007812 164.693359375 667.625976562 150.61328125 665.493164062 136.533203125 c 1
 754.666015625 136.533203125 l 1
 754.666015625 51.2001953125 l 1
 634.7734375 51.2001953125 l 1x6d80
 590.400390625 -25.1728515625 508.053710938 -76.7998046875 413.333007812 -76.7998046875 c 0xa180
 318.61328125 -76.7998046875 236.266601562 -25.1728515625 191.893554688 51.2001953125 c 1
 72 51.2001953125 l 1
 72 136.533203125 l 1
 161.173828125 136.533203125 l 1
 159.040039062 150.61328125 157.333007812 164.693359375 157.333007812 179.200195312 c 2
 157.333007812 221.8671875 l 1
 72 221.8671875 l 1
 72 307.200195312 l 1
 157.333007812 307.200195312 l 1
 157.333007812 349.8671875 l 2
 157.333007812 364.373046875 159.040039062 378.453125 161.173828125 392.533203125 c 1
 72 392.533203125 l 1
 72 477.8671875 l 1
 191.893554688 477.8671875 l 1x6980
 211.09375 511.147460938 237.546875 539.733398438 269.120117188 561.493164062 c 1
 200 631.040039062 l 1
 260.16015625 691.200195312 l 1
 353.173828125 598.61328125 l 1
 372.373046875 603.306640625 392.426757812 605.8671875 413.333007812 605.8671875 c 0x3580
 434.240234375 605.8671875 454.29296875 603.306640625 473.920898438 598.61328125 c 1
 566.506835938 691.200195312 l 1
 626.666015625 631.040039062 l 1
 557.120117188 561.493164062 l 1
 589.120117188 539.733398438 615.573242188 511.147460938 634.7734375 477.8671875 c 1
 754.666015625 477.8671875 l 1x2d80
498.666015625 136.533203125 m 1
 498.666015625 221.8671875 l 1
 328 221.8671875 l 1
 328 136.533203125 l 1
 498.666015625 136.533203125 l 1
498.666015625 307.200195312 m 1
 498.666015625 392.533203125 l 1
 328 392.533203125 l 1
 328 307.200195312 l 1
 498.666015625 307.200195312 l 1
EndSplineSet
Validated: 1
EndChar

StartChar: space
Encoding: 32 32 9
Width: 731
Flags: W
HStem: 253 85<66 322 408 664>
VStem: 322 86<-3 253 338 594>
LayerCount: 2
Fore
SplineSet
664 253 m 5
 408 253 l 5
 408 -3 l 5
 322 -3 l 5
 322 253 l 5
 66 253 l 5
 66 338 l 5
 322 338 l 5
 322 594 l 5
 408 594 l 5
 408 338 l 5
 664 338 l 5
 664 253 l 5
EndSplineSet
Validated: 1
EndChar

StartChar: exclam
Encoding: 33 33 10
Width: 861
Flags: W
LayerCount: 2
Fore
SplineSet
60 83 m 5
 531 555 l 5
 691 395 l 5
 220 -77 l 5
 60 -77 l 5
 60 83 l 5
815 519 m 6
 737 441 l 5
 577 601 l 5
 655 679 l 6
 672 696 698 696 715 679 c 6
 815 579 l 6
 832 562 832 536 815 519 c 6
EndSplineSet
Validated: 33
EndChar

StartChar: quotedbl
Encoding: 34 34 11
Width: 670
Flags: W
HStem: 563 128<228 442> 563 86<36 186 484 634>
VStem: 79 512<-48.6274 521>
LayerCount: 2
Fore
SplineSet
79 9 m 2x20
 79 521 l 1
 591 521 l 1
 591 9 l 2
 591 -38 553 -77 506 -77 c 2
 164 -77 l 2
 117 -77 79 -38 79 9 c 2x20
634 649 m 1x60
 634 563 l 1
 36 563 l 1
 36 649 l 1
 186 649 l 1x60
 228 691 l 1
 442 691 l 1xa0
 484 649 l 1
 634 649 l 1x60
EndSplineSet
Validated: 1
EndChar

StartChar: dollar
Encoding: 36 36 12
Width: 813
Flags: W
LayerCount: 2
Fore
SplineSet
737 633 m 6
 762 606 l 6
 784 583 786 545 761 525 c 6
 500 315 l 5
 564 246 l 6
 588 221 587 181 562 157 c 6
 537 133 l 5
 258 424 l 5
 254 428 l 5
 279 452 l 6
 304 476 343 475 368 450 c 6
 424 394 l 5
 656 635 l 5
 679 657 715 656 737 633 c 6
237 409 m 5
 517 117 l 5
 485 77 453 -9 357 -36 c 5
 249 64 138 159 55 281 c 5
 118 316 188 328 237 409 c 5
EndSplineSet
Validated: 33
EndChar

StartChar: percent
Encoding: 37 37 13
Width: 1001
Flags: HW
HStem: 618 20G<-26.2188 -26.2188>
LayerCount: 2
Fore
SplineSet
463.057617188 -118.64453125 m 2
 410.419921875 -113.7265625 361.196289062 -99.7978515625 312.938476562 -76.162109375 c 0
 201.771484375 -21.71484375 118.041992188 80.6630859375 87.9306640625 198.961914062 c 0
 71.6328125 262.984375 69.578125 319.2109375 81.1845703125 383.625 c 0
 93.3466796875 451.122070312 121.612304688 514.107421875 164.998046875 570.361328125 c 0
 179.262695312 588.856445312 218.826171875 628.455078125 237.305664062 642.733398438 c 0
 270.1640625 668.12109375 313.302734375 692.51953125 349.768554688 706.338867188 c 0
 416.245117188 731.534179688 492.505859375 739.706054688 563.11328125 729.202148438 c 0
 743.181640625 702.41015625 886.920898438 563.331054688 920.044921875 383.842773438 c 0
 941.723632812 266.373046875 913.487304688 146.938476562 841.075195312 49.8251953125 c 0
 822.54296875 24.9716796875 782.2109375 -15.3955078125 757.37890625 -33.9443359375 c 0
 683.623046875 -89.037109375 601.580078125 -117.485351562 510.586914062 -119.514648438 c 0
 493.620117188 -119.916992188 472.234375 -119.501953125 463.0625 -118.708007812 c 2
 463.057617188 -118.64453125 l 2
397.966796875 -46.2744140625 m 1
 407.923828125 -42.1083984375 408.864257812 -38.0771484375 408.864257812 0.6396484375 c 2
 408.864257812 35.068359375 l 1
 403.78515625 33.9931640625 l 2
 392.375976562 31.48046875 369.40234375 30.365234375 356.397460938 31.681640625 c 0
 331.180664062 34.2353515625 308.181640625 45.7001953125 295.037109375 62.251953125 c 0
 291.341796875 66.9150390625 284.703125 78.4228515625 280.299804688 87.830078125 c 0
 268.21875 113.633789062 257.314453125 127.881835938 242.459960938 137.266601562 c 0
 235.754882812 141.5 225.418945312 151.104492188 225.461914062 153.052734375 c 0
 225.59375 158.817382812 237.54296875 162.110351562 249.905273438 159.798828125 c 0
 269.627929688 156.116210938 285.767578125 143.865234375 301.217773438 120.861328125 c 0
 314.943359375 100.42578125 328.186523438 90.0283203125 346.916992188 84.9794921875 c 0
 367.999023438 79.294921875 410.53125 87.0224609375 410.53125 96.537109375 c 0
 410.53125 100.5546875 418.446289062 122.69140625 421.88671875 128.282226562 c 0
 423.310546875 130.592773438 426.737304688 134.920898438 429.493164062 137.903320312 c 0
 432.260742188 140.88671875 433.69921875 143.333007812 432.69140625 143.333007812 c 0
 426.791992188 143.333007812 390.728515625 150.508789062 378.01171875 154.204101562 c 0
 328.5703125 168.599609375 294.250976562 197.717773438 277.1484375 239.782226562 c 0
 263.978515625 272.182617188 258.717773438 320.357421875 264.637695312 354.376953125 c 0
 268.923828125 378.952148438 280.713867188 404.564453125 295.6015625 421.615234375 c 0
 300.305664062 427.00390625 300.305664062 427.057617188 297.658203125 434.139648438 c 0
 294.217773438 443.317382812 292.766601562 479.381835938 295.29296875 492.991210938 c 0
 296.368164062 498.500976562 298.74609375 508.07421875 300.6953125 514.270507812 c 2
 304.2421875 525.53125 l 1
 312.91015625 525.53125 l 2
 331.809570312 525.53125 362.02734375 514.23046875 392.954101562 495.604492188 c 2
 406.497070312 487.447265625 l 1
 419.424804688 490.525390625 l 2
 451.241210938 498.1171875 463.8203125 499.515625 500.5390625 499.541992188 c 0
 537.642578125 499.580078125 552.233398438 497.944335938 582.583984375 490.323242188 c 2
 595.430664062 487.09765625 l 1
 605.939453125 493.938476562 l 2
 633.529296875 511.897460938 668.993164062 525.520507812 688.1484375 525.520507812 c 2
 696.7890625 525.520507812 l 1
 701.639648438 510.083007812 l 2
 706.168945312 495.671875 706.477539062 492.866210938 706.423828125 467.940429688 c 0
 706.374023438 447.05078125 705.751953125 439.688476562 703.575195312 434.125 c 2
 700.79296875 427.015625 l 1
 705.509765625 421.61328125 l 2
 718.787109375 406.3984375 730.936523438 381.575195312 735.91015625 359.461914062 c 0
 739.17578125 344.940429688 738.678710938 298.446289062 735.103515625 279.350585938 c 0
 731.7578125 261.701171875 725.266601562 241.001953125 719.426757812 229.280273438 c 0
 701.467773438 193.262695312 668.200195312 167.317382812 623.157226562 154.203125 c 0
 610.592773438 150.547851562 574.399414062 143.331054688 568.61328125 143.331054688 c 0
 567.672851562 143.331054688 569.552734375 140.361328125 572.873046875 136.733398438 c 0
 580.129882812 128.68359375 584.443359375 120.478515625 588.265625 107.376953125 c 0
 590.724609375 98.96484375 591.315429688 87.1669921875 592.162109375 30.5966796875 c 0
 593.102539062 -29.9765625 593.372070312 -36.671875 596.153320312 -40.828125 c 0
 604.350585938 -53.3388671875 619.268554688 -50.7861328125 663.184570312 -29.3515625 c 0
 833.169921875 53.6240234375 914.3671875 248.270507812 853.916015625 427.865234375 c 0
 808.39453125 563.100585938 689.390625 660.203125 546.926757812 678.352539062 c 0
 519.413085938 681.860351562 465.098632812 680.946289062 440.571289062 676.565429688 c 0
 386.750976562 666.95703125 339.543945312 648.407226562 296.331054688 619.897460938 c 0
 272.842773438 604.40234375 260.083007812 594.125976562 240.6875 575.083984375 c 0
 208.009765625 543.000976562 184.353515625 510.3828125 165.41015625 471.2890625 c 0
 138.720703125 416.206054688 127.970703125 368.9296875 128.03125 306.892578125 c 0
 128.068359375 268.080078125 130.5703125 247.606445312 139.560546875 212.654296875 c 0
 169.588867188 95.90234375 257.420898438 -1.7021484375 370.225585938 -43.673828125 c 0
 384.8359375 -49.1162109375 389.975585938 -49.5869140625 397.989257812 -46.2275390625 c 1
 397.966796875 -46.2744140625 l 1
EndSplineSet
Validated: 33
EndChar

StartChar: ampersand
Encoding: 38 38 14
Width: 916
Flags: W
HStem: -77 86<159 756> 265 85<73 486> 606 85<159 756>
VStem: 73 86<9 179 435 606> 756 85<9 606>
LayerCount: 2
Fore
SplineSet
376 154 m 1
 486 265 l 1
 73 265 l 1
 73 350 l 1
 486 350 l 1
 376 460 l 1
 436 521 l 1
 649 307 l 1
 436 94 l 1
 376 154 l 1
756 691 m 2
 803 691 841 653 841 606 c 2
 841 9 l 2
 841 -38 803 -77 756 -77 c 2
 159 -77 l 2
 112 -77 73 -38 73 9 c 2
 73 179 l 1
 159 179 l 1
 159 9 l 1
 756 9 l 1
 756 606 l 1
 159 606 l 1
 159 435 l 1
 73 435 l 1
 73 606 l 2
 73 653 112 691 159 691 c 2
 756 691 l 2
EndSplineSet
Validated: 1
EndChar

StartChar: G
Encoding: 71 71 15
Width: 797
Flags: W
HStem: -34 21G<368 408.333> 265 85<211 730> 629 20G<368.058 408> 629 20G<368.058 408>
LayerCount: 2
Fore
SplineSet
730 350 m 1xe0
 730 265 l 1
 211 265 l 1
 449 26 l 1
 388 -34 l 1
 47 307 l 1
 388 649 l 1
 449 588 l 1
 211 350 l 1
 730 350 l 1xe0
EndSplineSet
Validated: 1
EndChar

StartChar: H
Encoding: 72 72 16
Width: 780
Flags: W
HStem: -34 21G<347 432> 629 20G<369.058 409> 629 20G<369.058 409>
VStem: 347 85<-34 485>
LayerCount: 2
Fore
SplineSet
48 307 m 1xd0
 389 649 l 1
 731 307 l 1
 670 247 l 1
 432 485 l 1
 432 -34 l 1
 347 -34 l 1
 347 485 l 1
 108 247 l 1
 48 307 l 1xd0
EndSplineSet
Validated: 1
EndChar

StartChar: I
Encoding: 73 73 17
Width: 795
Flags: W
HStem: -34 21G<386 426.059> 265 85<65 584> 629 20G<386.328 426> 629 20G<386.328 426>
LayerCount: 2
Fore
SplineSet
406 649 m 1xe0
 748 307 l 1
 406 -34 l 1
 346 26 l 1
 584 265 l 1
 65 265 l 1
 65 350 l 1
 584 350 l 1
 346 588 l 1
 406 649 l 1xe0
EndSplineSet
Validated: 1
EndChar

StartChar: J
Encoding: 74 74 18
Width: 780
Flags: W
HStem: -34 21G<369 409.059> 629 20G<347 432> 629 20G<347 432>
VStem: 347 85<129 649>
LayerCount: 2
Fore
SplineSet
731 307 m 1xd0
 389 -34 l 1
 48 307 l 1
 109 368 l 1
 347 129 l 1
 347 649 l 1
 432 649 l 1
 432 129 l 1
 670 367 l 1
 731 307 l 1xd0
EndSplineSet
Validated: 1
EndChar

StartChar: quotesingle
Encoding: 39 39 19
Width: 900
Flags: W
HStem: -9 39<142 731>
VStem: 91 39<56 622>
LayerCount: 2
Fore
SplineSet
111 757 m 1
 190 622 l 1
 130 622 l 1
 130 56 l 1
 265 343 l 1
 389 207 l 1
 504 436 l 1
 604 493 l 1
 588 521 l 1
 675 520 l 1
 631 446 l 1
 615 474 l 1
 521 421 l 1
 395 169 l 1
 271 305 l 1
 142 30 l 1
 731 30 l 1
 731 89 l 1
 867 11 l 1
 731 -67 l 1
 731 -9 l 1
 91 -9 l 1
 91 622 l 1
 32 622 l 1
 111 757 l 1
EndSplineSet
Validated: 1
EndChar

StartChar: parenleft
Encoding: 40 40 20
Width: 791
Flags: W
HStem: 9 34<585 639> 663 20G<89.5714 112.597> 663 20G<89.5714 112.597>
VStem: 84 34<66 564>
LayerCount: 2
Fore
SplineSet
585 43 m 1xd0
 639 43 l 1
 639 94 l 1
 758 26 l 1
 639 -43 l 1
 639 9 l 1
 84 9 l 1
 84 194 84 379 84 564 c 1
 33 564 l 1
 101 683 l 1
 170 564 l 1
 118 564 l 1
 118 66 l 1
 235 319 l 1
 343 199 l 1
 436 401 l 1
 442 404 559 475 559 475 c 1
 585 43 l 1xd0
EndSplineSet
Validated: 1
EndChar

StartChar: parenright
Encoding: 41 41 21
Width: 778
Flags: W
HStem: 45 33<115 182 244 309 371 436 498 614> 670 20G<87.4211 110.404> 670 20G<87.4211 110.404>
VStem: 82 33<78.2514 576> 182 62<78 465> 309 62<78 187> 436 62<78 346>
LayerCount: 2
Fore
SplineSet
99 690 m 5xde
 164 576 l 5
 115 576 l 5
 113 424 115 78 115 78 c 5
 182 78 l 5
 182 465 l 5
 244 465 l 5
 244 78 l 5
 309 78 l 5
 309 187 l 5
 371 187 l 5
 371 78 l 5
 436 78 l 5
 436 346 l 5
 498 346 l 5
 498 78 l 5
 614 78 l 5
 614 127 l 5
 727 62 l 5
 614 -4 l 5
 614 45 l 5
 83 45 l 5
 83 222 82 399 82 576 c 5
 33 576 l 5
 99 690 l 5xde
EndSplineSet
Validated: 33
EndChar

StartChar: asterisk
Encoding: 42 42 22
Width: 781
Flags: W
HStem: 27 34<117 631> 110 90<170.481 247.519> 139 89<336.207 412.519> 202 89<540.481 616.793> 244 90<218.481 295.519> 291 89<395.481 471.793> 456 89<282.207 358.519> 497 90<452.481 529.519> 671 20G<88.4483 111.724> 671 20G<88.4483 111.724>
VStem: 84 33<61 575> 164 90<116.481 193.519> 212 90<250.481 327.519> 276 89<462.207 538.519> 330 89<145.207 221.519> 389 89<297.481 373.793> 446 90<503.481 580.519> 534 89<208.481 284.793>
LayerCount: 2
Fore
SplineSet
100 691 m 5x80a0
 168 575 l 5
 117 575 l 5
 117 61 l 5
 631 61 l 5
 631 111 l 5
 748 44 l 5
 631 -24 l 5
 631 27 l 5
 84 27 l 5
 84 209 83 392 83 575 c 5
 33 575 l 5
 100 691 l 5x80a0
491 587 m 4x812080
 516 587 536 567 536 542 c 4
 536 517 516 497 491 497 c 4
 466 497 446 517 446 542 c 4
 446 567 466 587 491 587 c 4x812080
320 545 m 4x8224
 345 545 365 525 365 500 c 4
 365 475 345 456 320 456 c 4
 295 456 276 475 276 500 c 4
 276 525 295 545 320 545 c 4x8224
434 380 m 4x8421
 459 380 478 361 478 336 c 4
 478 311 459 291 434 291 c 4
 409 291 389 311 389 336 c 4
 389 361 409 380 434 380 c 4x8421
257 334 m 4x8828
 282 334 302 314 302 289 c 4
 302 264 282 244 257 244 c 4
 232 244 212 264 212 289 c 4
 212 314 232 334 257 334 c 4x8828
579 291 m 4x902040
 604 291 623 272 623 247 c 4
 623 222 604 202 579 202 c 4
 554 202 534 222 534 247 c 4
 534 272 554 291 579 291 c 4x902040
374 228 m 4xa022
 399 228 419 208 419 183 c 4
 419 158 399 139 374 139 c 4
 349 139 330 158 330 183 c 4
 330 208 349 228 374 228 c 4xa022
209 200 m 4xc030
 234 200 254 180 254 155 c 4
 254 130 234 110 209 110 c 4
 184 110 164 130 164 155 c 4
 164 180 184 200 209 200 c 4xc030
EndSplineSet
Validated: 1
EndChar

StartChar: plus
Encoding: 43 43 23
Width: 1090
Flags: W
HStem: -119 128<497.305 682.503> 85 273<516.009 663.696> 563 86<35 163 248 376> 757 20G<163 248>
VStem: 163 85<435 563 649 777> 453 273<148.009 295.696> 803 213<129.497 314.503>
LayerCount: 2
Fore
SplineSet
163 649 m 1
 163 777 l 1
 248 777 l 1
 248 649 l 1
 376 649 l 1
 376 563 l 1
 248 563 l 1
 248 435 l 1
 163 435 l 1
 163 563 l 1
 35 563 l 1
 35 649 l 1
 163 649 l 1
291 393 m 1
 291 521 l 1
 419 521 l 1
 419 649 l 1
 718 649 l 1
 796 563 l 1
 931 563 l 2
 978 563 1016 525 1016 478 c 2
 1016 -34 l 2
 1016 -81 978 -119 931 -119 c 2
 248 -119 l 2
 201 -119 163 -81 163 -34 c 2
 163 393 l 1
 291 393 l 1
590 9 m 0
 708 9 803 104 803 222 c 0
 803 340 708 435 590 435 c 0
 472 435 376 340 376 222 c 0
 376 104 472 9 590 9 c 0
453 222 m 0
 453 298 514 358 590 358 c 0
 666 358 726 298 726 222 c 0
 726 146 666 85 590 85 c 0
 514 85 453 146 453 222 c 0
EndSplineSet
Validated: 1
EndChar

StartChar: comma
Encoding: 44 44 24
Width: 1039
Flags: W
HStem: -13 107<427.846 611.103> 521 106<422.58 608.154> 671 20G<125.63 166> 671 20G<125.63 166>
LayerCount: 2
Fore
SplineSet
518 521 m 0xc0
 490 521 464 515 440 505 c 1
 348 597 l 1
 401 616 458 627 518 627 c 0
 731 627 913 494 987 307 c 1
 956 228 905 159 841 105 c 1
 716 229 l 1
 726 253 731 279 731 307 c 0
 731 425 636 521 518 521 c 0xc0
91 637 m 1
 146 691 l 1xe0
 902 -65 l 1
 848 -119 l 1
 800 -71 753 -25 705 23 c 1
 647 0 584 -13 518 -13 c 0
 305 -13 123 120 49 307 c 1
 82 391 137 465 208 520 c 1
 169 559 130 598 91 637 c 1
327 401 m 1
 313 372 305 341 305 307 c 0
 305 189 400 94 518 94 c 0
 552 94 583 102 612 116 c 1
 546 183 l 1
 537 181 527 179 518 179 c 0
 447 179 390 236 390 307 c 0
 390 316 391 326 393 335 c 1
 327 401 l 1
511 434 m 1
 518 435 l 1
 589 435 646 378 646 307 c 2
 646 300 l 1
 511 434 l 1
EndSplineSet
Validated: 1
EndChar

StartChar: hyphen
Encoding: 45 45 25
Width: 1047
Flags: W
HStem: -13 107<432.846 613.278> 179 256<451.299 594.701> 521 106<432.846 613.278>
VStem: 395 256<235.299 378.701>
LayerCount: 2
Fore
SplineSet
523 627 m 0
 736 627 919 494 993 307 c 1
 919 120 736 -13 523 -13 c 0
 310 -13 128 120 54 307 c 1
 128 494 310 627 523 627 c 0
523 94 m 0
 641 94 737 189 737 307 c 0
 737 425 641 521 523 521 c 0
 405 521 310 425 310 307 c 0
 310 189 405 94 523 94 c 0
523 435 m 0
 594 435 651 378 651 307 c 0
 651 236 594 179 523 179 c 0
 452 179 395 236 395 307 c 0
 395 378 452 435 523 435 c 0
EndSplineSet
Validated: 1
EndChar

StartChar: period
Encoding: 46 46 26
Width: 901
Flags: W
HStem: 671 20G<811.295 830.628> 671 20G<811.295 830.628>
VStem: 403.628 64<297 478> 745.628 85<188.375 303>
LayerCount: 2
Fore
SplineSet
830.627929688 387 m 1xb0
 541.627929688 387 l 1
 658.627929688 508 l 1
 542.627929688 623 352.627929688 627 236.627929688 512 c 0
 120.627929688 396 120.627929688 210 236.627929688 94 c 0
 352.627929688 -22 542.627929688 -22 658.627929688 94 c 0
 716.627929688 151 745.627929688 219 745.627929688 303 c 1
 830.627929688 303 l 1
 830.627929688 219 792.627929688 109 717.627929688 35 c 0
 567.627929688 -113 325.627929688 -113 175.627929688 35 c 0
 26.6279296875 183 24.6279296875 423 174.627929688 571 c 0
 324.627929688 719 564.627929688 719 714.627929688 571 c 1
 830.627929688 691 l 1
 830.627929688 387 l 1xb0
467.627929688 478 m 1
 467.627929688 297 l 1
 617.627929688 208 l 1
 586.627929688 156 l 1
 403.627929688 265 l 1
 403.627929688 478 l 1
 467.627929688 478 l 1
EndSplineSet
Validated: 33
EndChar

StartChar: slash
Encoding: 47 47 27
Width: 984
Flags: W
HStem: 137 21G<73 457 823.5 907.212> 371 107<403.308 639.597>
LayerCount: 2
Fore
SplineSet
521 478 m 0
 719 478 888 349 947 170 c 1
 846 137 l 1
 801 273 672 371 521 371 c 0
 437 371 362 340 303 291 c 1
 457 137 l 1
 73 137 l 1
 73 521 l 1
 227 367 l 1
 306 436 408 478 521 478 c 0
EndSplineSet
Validated: 1
EndChar

StartChar: zero
Encoding: 48 48 28
Width: 809
Flags: W
HStem: -34 85<305.516 405> 563 86<405 504.484> 757 20G<385 405>
VStem: 63 86<206.432 412.873> 661 85<203.883 407.614>
LayerCount: 2
Fore
SplineSet
405 649 m 1
 594 649 746 496 746 307 c 0
 746 240 726 177 693 125 c 1
 631 188 l 1
 650 223 661 264 661 307 c 0
 661 448 546 563 405 563 c 1
 405 435 l 1
 234 606 l 1
 405 777 l 1
 405 649 l 1
405 51 m 1
 405 179 l 1
 575 9 l 1
 405 -162 l 1
 405 -34 l 1
 216 -34 63 118 63 307 c 0
 63 374 83 437 116 489 c 1
 178 427 l 1
 159 392 149 350 149 307 c 0
 149 166 264 51 405 51 c 1
EndSplineSet
Validated: 1
EndChar

StartChar: one
Encoding: 49 49 29
Width: 867
Flags: W
HStem: -116 249<632.443 771.873> 179 256<118.299 260.933> 478 256<630.299 773.701>
VStem: 578 249<-60.873 35.5781 576.469 682.717>
LayerCount: 2
Fore
SplineSet
702 133 m 0
 771 133 827 78 827 9 c 0
 827 -60 771 -116 702 -116 c 0
 633 -116 578 -60 578 9 c 0
 578 18 579 27 581 36 c 1
 277 214 l 1
 254 193 224 179 190 179 c 0
 119 179 62 236 62 307 c 0
 62 378 119 435 190 435 c 0
 224 435 254 422 277 401 c 1
 578 576 l 1
 576 586 574 596 574 606 c 0
 574 677 631 734 702 734 c 0
 773 734 830 677 830 606 c 0
 830 535 773 478 702 478 c 0
 668 478 638 491 615 512 c 1
 315 337 l 1
 317 327 318 317 318 307 c 0
 318 297 317 287 315 277 c 1
 619 100 l 1
 641 120 670 133 702 133 c 0
EndSplineSet
Validated: 1
EndChar

StartChar: two
Encoding: 50 50 30
Width: 944
Flags: W
HStem: -119 277<395.035 549.574> 457 277<395.035 549.574>
VStem: 152.168 171<255.731 358.356> 366.168 212<-119 -53.9322 668.354 734> 622.168 170<255.731 358.356>
LayerCount: 2
Fore
SplineSet
789.16796875 265 m 1
 879.16796875 195 l 2
 887.16796875 189 889.16796875 177 884.16796875 168 c 2
 799.16796875 20 l 2
 794.16796875 11 783.16796875 7 773.16796875 11 c 2
 667.16796875 53 l 1
 645.16796875 36 621.16796875 23 595.16796875 12 c 1
 578.16796875 -102 l 2
 577.16796875 -112 569.16796875 -119 558.16796875 -119 c 2
 387.16796875 -119 l 2
 376.16796875 -119 367.16796875 -112 366.16796875 -102 c 2
 350.16796875 12 l 1
 324.16796875 23 300.16796875 36 278.16796875 53 c 1
 171.16796875 11 l 2
 162.16796875 8 150.16796875 11 145.16796875 20 c 2
 60.16796875 168 l 2
 55.16796875 177 57.16796875 189 65.16796875 195 c 2
 155.16796875 265 l 1
 153.16796875 279 152.16796875 293 152.16796875 307 c 0
 152.16796875 321 153.16796875 335 155.16796875 349 c 1
 65.16796875 419 l 2
 57.16796875 425 54.16796875 438 60.16796875 447 c 2
 145.16796875 594 l 2
 150.16796875 603 161.16796875 608 171.16796875 604 c 2
 278.16796875 561 l 1
 300.16796875 578 324.16796875 592 350.16796875 603 c 1
 366.16796875 716 l 2
 367.16796875 726 376.16796875 734 387.16796875 734 c 2
 558.16796875 734 l 2
 569.16796875 734 577.16796875 726 578.16796875 716 c 2
 595.16796875 603 l 1
 621.16796875 592 645.16796875 578 667.16796875 561 c 1
 773.16796875 604 l 2
 782.16796875 607 794.16796875 603 799.16796875 594 c 2
 884.16796875 447 l 2
 889.16796875 438 887.16796875 425 879.16796875 419 c 2
 789.16796875 349 l 1
 791.16796875 335 792.16796875 322 792.16796875 307 c 0
 792.16796875 292 791.16796875 279 789.16796875 265 c 1
472.16796875 158 m 0
 554.16796875 158 622.16796875 225 622.16796875 307 c 0
 622.16796875 389 554.16796875 457 472.16796875 457 c 0
 390.16796875 457 323.16796875 389 323.16796875 307 c 0
 323.16796875 225 390.16796875 158 472.16796875 158 c 0
EndSplineSet
Validated: 1
EndChar

StartChar: three
Encoding: 51 51 31
Width: 914
Flags: W
HStem: -77 86<125.734 159 244 329 415 500 585 671 756 789.109> 94 85<73 159 329 585 756 841> 265 85<73 159 756 841> 435 86<73 159 329 585 756 841> 606 85<125.734 159 244 329 415 500 585 671 756 789.109>
VStem: 73 86<-24.2656 9 94 179 265 350 435 521 606 639.109> 244 85<-77 9 179 435 606 691> 415 85<-77 9 606 691> 585 86<-77 9 179 435 606 691> 756 85<-24.2656 9 94 179 265 350 435 521 606 639.109>
LayerCount: 2
Fore
SplineSet
73 606 m 1
 73 653 112 691 159 691 c 1
 159 606 l 1
 73 606 l 1
73 265 m 1
 73 350 l 1
 159 350 l 1
 159 265 l 1
 73 265 l 1
244 -77 m 1
 244 9 l 1
 329 9 l 1
 329 -77 l 1
 244 -77 l 1
73 435 m 1
 73 521 l 1
 159 521 l 1
 159 435 l 1
 73 435 l 1
500 691 m 1
 500 606 l 1
 415 606 l 1
 415 691 l 1
 500 691 l 1
756 691 m 1
 803 691 841 653 841 606 c 1
 756 606 l 1
 756 691 l 1
159 -77 m 1
 112 -77 73 -38 73 9 c 1
 159 9 l 1
 159 -77 l 1
73 94 m 1
 73 179 l 1
 159 179 l 1
 159 94 l 1
 73 94 l 1
329 691 m 1
 329 606 l 1
 244 606 l 1
 244 691 l 1
 329 691 l 1
415 -77 m 1
 415 9 l 1
 500 9 l 1
 500 -77 l 1
 415 -77 l 1
756 265 m 1
 756 350 l 1
 841 350 l 1
 841 265 l 1
 756 265 l 1
756 -77 m 1
 756 9 l 1
 841 9 l 1
 841 -38 803 -77 756 -77 c 1
756 435 m 1
 756 521 l 1
 841 521 l 1
 841 435 l 1
 756 435 l 1
756 94 m 1
 756 179 l 1
 841 179 l 1
 841 94 l 1
 756 94 l 1
585 -77 m 1
 585 9 l 1
 671 9 l 1
 671 -77 l 1
 585 -77 l 1
585 606 m 1
 585 691 l 1
 671 691 l 1
 671 606 l 1
 585 606 l 1
244 94 m 1
 244 521 l 1
 671 521 l 1
 671 94 l 1
 244 94 l 1
329 435 m 1
 329 179 l 1
 585 179 l 1
 585 435 l 1
 329 435 l 1
EndSplineSet
Validated: 1
EndChar

StartChar: four
Encoding: 52 52 32
Width: 902
Flags: W
HStem: -9 160<65 186> 463 160<735 856>
LayerCount: 2
Fore
SplineSet
777 307 m 0
 777 133 635 -9 461 -9 c 2
 65 -9 l 1
 65 151 l 1
 186 151 l 1
 160 197 145 250 145 307 c 0
 145 481 287 623 461 623 c 2
 856 623 l 1
 856 463 l 1
 735 463 l 1
 761 417 777 364 777 307 c 0
500 345 m 0
 479 367 445 368 423 347 c 0
 401 326 400 291 421 269 c 0
 442 247 477 246 499 267 c 0
 521 288 521 323 500 345 c 0
577 185 m 0
 644 249 647 356 582 424 c 0
 518 491 412 494 344 429 c 0
 277 365 274 259 339 191 c 0
 403 124 509 120 577 185 c 0
572 307 m 0
 572 278 561 248 538 226 c 0
 516 205 489 195 461 195 c 0
 432 195 402 207 380 230 c 0
 359 252 349 279 349 307 c 0
 349 336 360 366 383 388 c 0
 405 409 433 419 461 419 c 0
 490 419 519 408 541 385 c 0
 562 363 572 335 572 307 c 0
EndSplineSet
Validated: 33
EndChar

StartChar: five
Encoding: 53 53 33
Width: 798
Flags: W
HStem: -34 256<249.092 550.908> 307 342<318.687 481.313>
VStem: 229 342<396.687 559.313>
LayerCount: 2
Fore
SplineSet
400 307 m 0
 306 307 229 384 229 478 c 0
 229 572 306 649 400 649 c 0
 494 649 571 572 571 478 c 0
 571 384 494 307 400 307 c 0
400 222 m 0
 514 222 741 164 741 51 c 2
 741 -34 l 1
 59 -34 l 1
 59 51 l 2
 59 164 286 222 400 222 c 0
EndSplineSet
Validated: 1
EndChar

StartChar: six
Encoding: 54 54 34
Width: 906
Flags: W
HStem: -81 751<328.174 577.826>
VStem: 64 778<174.661 415.232>
LayerCount: 2
Fore
SplineSet
64 295 m 0
 64 502 238 670 453 670 c 0
 668 670 842 502 842 295 c 0
 842 88 668 -81 453 -81 c 0
 238 -81 64 88 64 295 c 0
EndSplineSet
Validated: 1
EndChar

StartChar: seven
Encoding: 55 55 35
Width: 305
Flags: W
HStem: -34 21G<129.5 176.5> 117 20G<129.5 176.5> 222 171<95.8258 210.174> 478 171<95.8258 210.174>
VStem: 68 170<-6.17422 108.627 249.826 364.627 505.826 620.627>
LayerCount: 2
Fore
SplineSet
153 478 m 0
 106 478 68 516 68 563 c 0
 68 610 106 649 153 649 c 0
 200 649 238 610 238 563 c 0
 238 516 200 478 153 478 c 0
153 393 m 0
 200 393 238 354 238 307 c 0
 238 260 200 222 153 222 c 0
 106 222 68 260 68 307 c 0
 68 354 106 393 153 393 c 0
153 137 m 0
 200 137 238 98 238 51 c 0
 238 4 200 -34 153 -34 c 0
 106 -34 68 4 68 51 c 0
 68 98 106 137 153 137 c 0
EndSplineSet
Validated: 1
EndChar

StartChar: eight
Encoding: 56 56 36
Width: 914
Flags: W
HStem: 9 66<51 81.7164> 9 26<84.6172 127.923> 67 20<705.85 719.376> 189 13<530.768 545 593 607.942> 433 14<546.971 562 607 620.755> 442 33<187 255> 442 17<102 125.19> 558 20<434.606 448.15 705.491 718.394> 572 64<256.205 293> 608 28<202.488 255.953>
VStem: 51 24<45.1326 75> 137 50<40.0518 442> 265 28<572 600.358> 305 40<194.366 449.353> 467 78<189 217.407 421.567 432.904> 607 77<202.097 223.518 418.375 447> 808 41<194.366 449.133>
LayerCount: 2
Fore
SplineSet
231 608 m 4x107f80
 188 608 187 556 187 510 c 6
 187 475 l 5
 255 475 l 5
 255 442 l 5
 187 442 l 5
 187 140 l 6
 187 65 170 9 97 9 c 4x547f80
 80 9 65 11 51 15 c 5
 51 75 l 5
 75 75 l 5x903f80
 79 56 86 35 107 35 c 4
 140 35 137 84 137 119 c 6
 137 442 l 5
 102 442 l 5
 102 459 l 5
 122 463 129 465 133 485 c 4
 134 491 136 499 137 509 c 4
 143 587 174 636 255 636 c 4x527f80
 270 636 282 634 293 632 c 5
 293 572 l 5
 265 572 l 5x10bf80
 259 592 253 608 231 608 c 4x107f80
452 558 m 5x313f80
 374 528 345 437 345 325 c 4
 345 211 373 117 451 87 c 5
 446 67 l 5
 352 96 305 197 305 322 c 4
 305 447 352 549 446 578 c 5
 452 558 l 5x313f80
527 220 m 4
 527 209 534 203 545 202 c 5
 545 189 l 5
 467 189 l 5
 467 202 l 5
 488 211 496 225 510 245 c 6
 559 315 l 5
 509 393 l 6
 497 412 490 427 471 433 c 5
 471 447 l 5
 562 447 l 5
 562 433 l 5
 550 431 544 426 544 417 c 4
 544 406 549 398 554 390 c 6
 583 344 l 5
 613 389 l 6
 618 397 624 405 624 417 c 4
 624 427 616 431 607 433 c 5
 607 447 l 5
 684 447 l 5
 684 433 l 5x183f80
 666 427 656 413 643 394 c 6
 595 325 l 5
 648 243 l 6
 660 225 670 210 687 202 c 5
 687 189 l 5
 593 189 l 5
 593 202 l 5
 606 204 612 210 612 219 c 4
 612 229 610 234 605 241 c 6
 571 296 l 5
 535 242 l 6
 531 235 527 230 527 220 c 4
702 87 m 5x313f80
 780 117 808 211 808 325 c 4
 808 437 779 528 701 558 c 5
 708 578 l 5
 801 549 849 446 849 322 c 4
 849 197 802 96 708 67 c 5
 702 87 l 5x313f80
EndSplineSet
Validated: 33
EndChar

StartChar: nine
Encoding: 57 57 37
Width: 849
Flags: W
LayerCount: 2
Fore
SplineSet
179.25 63 m 0
 231.25 11 314.25 11 366.25 63 c 2
 487.25 184 l 1
 544.25 126 l 1
 424.25 6 l 2
 341.25 -77 205.25 -77 122.25 6 c 0
 39.25 89 39.25 224 122.25 307 c 2
 243.25 428 l 1
 300.25 371 l 1
 179.25 250 l 2
 127.25 198 127.25 115 179.25 63 c 0
333.25 156 m 1
 273.25 217 l 1
 514.25 458 l 1
 574.25 398 l 1
 333.25 156 l 1
424.25 609 m 2
 507.25 692 642.25 692 725.25 609 c 0
 808.25 526 808.25 390 725.25 307 c 2
 605.25 187 l 1
 547.25 244 l 1
 668.25 365 l 2
 720.25 417 720.25 500 668.25 552 c 0
 616.25 604 533.25 604 481.25 552 c 2
 360.25 431 l 1
 303.25 488 l 1
 424.25 609 l 2
EndSplineSet
Validated: 33
EndChar

StartChar: colon
Encoding: 58 58 38
Width: 839
Flags: W
LayerCount: 2
Fore
SplineSet
294 128 m 1
 746 580 l 1
 806 521 l 1
 294 9 l 1
 55 247 l 1
 115 307 l 1
 294 128 l 1
EndSplineSet
Validated: 1
EndChar

StartChar: semicolon
Encoding: 59 59 39
Width: 833
Flags: W
HStem: -34 85<160 672> 563 86<160 672>
VStem: 75 85<51 563> 672 86<51 563>
LayerCount: 2
Fore
SplineSet
672 649 m 2
 719 649 758 610 758 563 c 2
 758 51 l 2
 758 4 719 -34 672 -34 c 2
 160 -34 l 2
 113 -34 75 4 75 51 c 2
 75 563 l 2
 75 610 113 649 160 649 c 2
 672 649 l 2
672 51 m 1
 672 563 l 1
 160 563 l 1
 160 51 l 1
 672 51 l 1
EndSplineSet
Validated: 1
EndChar

StartChar: less
Encoding: 60 60 40
Width: 861
Flags: W
LayerCount: 2
Fore
SplineSet
60 83 m 1
 531 555 l 1
 691 395 l 1
 220 -77 l 1
 60 -77 l 1
 60 83 l 1
815 519 m 2
 737 441 l 1
 577 601 l 1
 655 679 l 2
 672 696 698 696 715 679 c 2
 815 579 l 2
 832 562 832 536 815 519 c 2
EndSplineSet
Validated: 33
EndChar

StartChar: equal
Encoding: 61 61 41
Width: 828
Flags: W
HStem: -77 214<329.277 498.491> 51 86<72 162 666 755> 222 85<72 158 328 499 670 755> 393 85<72 162 666 755> 671 20G<240.667 281.217 546.783 587> 671 20G<240.667 281.217 546.783 587>
VStem: 158 170<137 222 307 393> 499 171<137 222 307 393>
LayerCount: 2
Fore
SplineSet
755 478 m 1x7b
 755 393 l 1
 666 393 l 1
 668 379 670 365 670 350 c 2
 670 307 l 1
 755 307 l 1
 755 222 l 1
 670 222 l 1
 670 179 l 2
 670 164 668 151 666 137 c 1
 755 137 l 1
 755 51 l 1
 635 51 l 1x7b
 591 -25 509 -77 414 -77 c 0xb3
 319 -77 236 -25 192 51 c 1
 72 51 l 1
 72 137 l 1
 162 137 l 1
 160 151 158 164 158 179 c 2
 158 222 l 1
 72 222 l 1
 72 307 l 1
 158 307 l 1
 158 350 l 2
 158 365 160 379 162 393 c 1
 72 393 l 1
 72 478 l 1
 192 478 l 1
 211 511 238 539 270 561 c 1
 200 631 l 1
 261 691 l 1
 354 599 l 1
 373 604 393 606 414 606 c 0
 435 606 454 604 474 599 c 1
 567 691 l 1
 627 631 l 1
 558 561 l 1
 590 539 616 511 635 478 c 1
 755 478 l 1x7b
499 137 m 1
 499 222 l 1
 328 222 l 1
 328 137 l 1
 499 137 l 1
499 307 m 1
 499 393 l 1
 328 393 l 1
 328 307 l 1
 499 307 l 1
EndSplineSet
Validated: 1
EndChar

StartChar: L
Encoding: 76 76 42
Width: 1024
Flags: H
LayerCount: 2
Fore
SplineSet
256 733.666992188 m 2
 597.333007812 733.666992188 l 1
 853.333007812 477.666992188 l 1
 853.333007812 -34.3330078125 l 2
 853.333007812 -81.2666015625 814.93359375 -119.666992188 768 -119.666992188 c 2
 255.573242188 -119.666992188 l 2
 208.639648438 -119.666992188 170.666992188 -81.2666015625 170.666992188 -34.3330078125 c 2
 171.09375 648.333007812 l 2
 171.09375 695.266601562 209.06640625 733.666992188 256 733.666992188 c 2
554.666992188 435 m 1
 789.333007812 435 l 1
 554.666992188 669.666992188 l 1
 554.666992188 435 l 1
EndSplineSet
Validated: 1
EndChar

StartChar: N
Encoding: 78 78 43
Width: 1024
Flags: H
LayerCount: 2
Fore
SplineSet
896 733.666992188 m 2
 942.93359375 733.666992188 981.333007812 695.266601562 981.333007812 648.333007812 c 2
 981.333007812 136.333007812 l 2
 981.333007812 89.400390625 942.93359375 51 896 51 c 2
 597.333007812 51 l 1
 597.333007812 -34.3330078125 l 1
 682.666992188 -34.3330078125 l 1
 682.666992188 -119.666992188 l 1
 341.333007812 -119.666992188 l 1
 341.333007812 -34.3330078125 l 1
 426.666992188 -34.3330078125 l 1
 426.666992188 51 l 1
 128 51 l 2
 81.06640625 51 42.6669921875 89.400390625 42.6669921875 136.333007812 c 2
 42.6669921875 648.333007812 l 2
 42.6669921875 695.266601562 81.06640625 733.666992188 128 733.666992188 c 2
 896 733.666992188 l 2
896 136.333007812 m 1
 896 648.333007812 l 1
 128 648.333007812 l 1
 128 136.333007812 l 1
 896 136.333007812 l 1
EndSplineSet
EndChar

StartChar: O
Encoding: 79 79 44
Width: 933
Flags: W
HStem: 137 21G<709 729> 265 85<69 709>
LayerCount: 2
Fore
SplineSet
879 307 m 1
 709 137 l 1
 709 265 l 1
 69 265 l 1
 69 350 l 1
 709 350 l 1
 709 478 l 1
 879 307 l 1
EndSplineSet
EndChar

StartChar: P
Encoding: 80 80 45
Width: 829
Flags: W
HStem: -77 214<328.509 497.723> 51 86<72 161 665 755> 222 85<72 157 328 499 669 755> 393 213<353.891 473.062> 393 85<72 161 665 755> 671 20G<240 280.217 546 586.333> 671 20G<240 280.217 546 586.333>
VStem: 157 171<137 222 307 393> 499 170<137 222 307 393>
LayerCount: 2
Fore
SplineSet
755 478 m 1x2d80
 755 393 l 1
 665 393 l 1
 667 379 669 365 669 350 c 2
 669 307 l 1
 755 307 l 1
 755 222 l 1
 669 222 l 1
 669 179 l 2
 669 164 667 151 665 137 c 1
 755 137 l 1
 755 51 l 1
 635 51 l 1x6d80
 591 -25 508 -77 413 -77 c 0xa180
 318 -77 236 -25 192 51 c 1
 72 51 l 1
 72 137 l 1
 161 137 l 1
 159 151 157 164 157 179 c 2
 157 222 l 1
 72 222 l 1
 72 307 l 1
 157 307 l 1
 157 350 l 2
 157 365 159 379 161 393 c 1
 72 393 l 1
 72 478 l 1
 192 478 l 1x6980
 211 511 237 539 269 561 c 1
 200 631 l 1
 260 691 l 1
 353 599 l 1
 372 604 392 606 413 606 c 0x3580
 434 606 454 604 474 599 c 1
 566 691 l 1
 627 631 l 1
 557 561 l 1
 589 539 616 511 635 478 c 1
 755 478 l 1x2d80
499 137 m 1
 499 222 l 1
 328 222 l 1
 328 137 l 1
 499 137 l 1
499 307 m 1
 499 393 l 1
 328 393 l 1
 328 307 l 1
 499 307 l 1
EndSplineSet
Validated: 1
EndChar

StartChar: Q
Encoding: 81 81 46
Width: 829
Flags: W
HStem: -77 214<328.509 497.723> 51 86<72 161 665 755> 222 85<72 157 328 499 669 755> 393 213<353.891 473.062> 393 85<72 161 665 755> 671 20G<240 280.217 546 586.333> 671 20G<240 280.217 546 586.333>
VStem: 157 171<137 222 307 393> 499 170<137 222 307 393>
LayerCount: 2
Fore
SplineSet
755 478 m 1x2d80
 755 393 l 1
 665 393 l 1
 667 379 669 365 669 350 c 2
 669 307 l 1
 755 307 l 1
 755 222 l 1
 669 222 l 1
 669 179 l 2
 669 164 667 151 665 137 c 1
 755 137 l 1
 755 51 l 1
 635 51 l 1x6d80
 591 -25 508 -77 413 -77 c 0xa180
 318 -77 236 -25 192 51 c 1
 72 51 l 1
 72 137 l 1
 161 137 l 1
 159 151 157 164 157 179 c 2
 157 222 l 1
 72 222 l 1
 72 307 l 1
 157 307 l 1
 157 350 l 2
 157 365 159 379 161 393 c 1
 72 393 l 1
 72 478 l 1
 192 478 l 1x6980
 211 511 237 539 269 561 c 1
 200 631 l 1
 260 691 l 1
 353 599 l 1
 372 604 392 606 413 606 c 0x3580
 434 606 454 604 474 599 c 1
 566 691 l 1
 627 631 l 1
 557 561 l 1
 589 539 616 511 635 478 c 1
 755 478 l 1x2d80
499 137 m 1
 499 222 l 1
 328 222 l 1
 328 137 l 1
 499 137 l 1
499 307 m 1
 499 393 l 1
 328 393 l 1
 328 307 l 1
 499 307 l 1
EndSplineSet
Validated: 1
EndChar

StartChar: R
Encoding: 82 82 47
Width: 829
Flags: W
HStem: -77 214<328.509 497.723> 51 86<72 161 665 755> 222 85<72 157 328 499 669 755> 393 213<353.891 473.062> 393 85<72 161 665 755> 671 20G<240 280.217 546 586.333> 671 20G<240 280.217 546 586.333>
VStem: 157 171<137 222 307 393> 499 170<137 222 307 393>
LayerCount: 2
Fore
SplineSet
755 478 m 1x2d80
 755 393 l 1
 665 393 l 1
 667 379 669 365 669 350 c 2
 669 307 l 1
 755 307 l 1
 755 222 l 1
 669 222 l 1
 669 179 l 2
 669 164 667 151 665 137 c 1
 755 137 l 1
 755 51 l 1
 635 51 l 1x6d80
 591 -25 508 -77 413 -77 c 0xa180
 318 -77 236 -25 192 51 c 1
 72 51 l 1
 72 137 l 1
 161 137 l 1
 159 151 157 164 157 179 c 2
 157 222 l 1
 72 222 l 1
 72 307 l 1
 157 307 l 1
 157 350 l 2
 157 365 159 379 161 393 c 1
 72 393 l 1
 72 478 l 1
 192 478 l 1x6980
 211 511 237 539 269 561 c 1
 200 631 l 1
 260 691 l 1
 353 599 l 1
 372 604 392 606 413 606 c 0x3580
 434 606 454 604 474 599 c 1
 566 691 l 1
 627 631 l 1
 557 561 l 1
 589 539 616 511 635 478 c 1
 755 478 l 1x2d80
499 137 m 1
 499 222 l 1
 328 222 l 1
 328 137 l 1
 499 137 l 1
499 307 m 1
 499 393 l 1
 328 393 l 1
 328 307 l 1
 499 307 l 1
EndSplineSet
Validated: 1
EndChar

StartChar: S
Encoding: 83 83 48
Width: 829
Flags: W
HStem: -77 214<328.509 497.723> 51 86<72 161 665 755> 222 85<72 157 328 499 669 755> 393 213<353.891 473.062> 393 85<72 161 665 755> 671 20G<240 280.217 546 586.333> 671 20G<240 280.217 546 586.333>
VStem: 157 171<137 222 307 393> 499 170<137 222 307 393>
LayerCount: 2
Fore
SplineSet
755 478 m 1x2d80
 755 393 l 1
 665 393 l 1
 667 379 669 365 669 350 c 2
 669 307 l 1
 755 307 l 1
 755 222 l 1
 669 222 l 1
 669 179 l 2
 669 164 667 151 665 137 c 1
 755 137 l 1
 755 51 l 1
 635 51 l 1x6d80
 591 -25 508 -77 413 -77 c 0xa180
 318 -77 236 -25 192 51 c 1
 72 51 l 1
 72 137 l 1
 161 137 l 1
 159 151 157 164 157 179 c 2
 157 222 l 1
 72 222 l 1
 72 307 l 1
 157 307 l 1
 157 350 l 2
 157 365 159 379 161 393 c 1
 72 393 l 1
 72 478 l 1
 192 478 l 1x6980
 211 511 237 539 269 561 c 1
 200 631 l 1
 260 691 l 1
 353 599 l 1
 372 604 392 606 413 606 c 0x3580
 434 606 454 604 474 599 c 1
 566 691 l 1
 627 631 l 1
 557 561 l 1
 589 539 616 511 635 478 c 1
 755 478 l 1x2d80
499 137 m 1
 499 222 l 1
 328 222 l 1
 328 137 l 1
 499 137 l 1
499 307 m 1
 499 393 l 1
 328 393 l 1
 328 307 l 1
 499 307 l 1
EndSplineSet
Validated: 1
EndChar

StartChar: T
Encoding: 84 84 49
Width: 829
Flags: W
HStem: -77 214<328.509 497.723> 51 86<72 161 665 755> 222 85<72 157 328 499 669 755> 393 213<353.891 473.062> 393 85<72 161 665 755> 671 20G<240 280.217 546 586.333> 671 20G<240 280.217 546 586.333>
VStem: 157 171<137 222 307 393> 499 170<137 222 307 393>
LayerCount: 2
Fore
SplineSet
755 478 m 1x2d80
 755 393 l 1
 665 393 l 1
 667 379 669 365 669 350 c 2
 669 307 l 1
 755 307 l 1
 755 222 l 1
 669 222 l 1
 669 179 l 2
 669 164 667 151 665 137 c 1
 755 137 l 1
 755 51 l 1
 635 51 l 1x6d80
 591 -25 508 -77 413 -77 c 0xa180
 318 -77 236 -25 192 51 c 1
 72 51 l 1
 72 137 l 1
 161 137 l 1
 159 151 157 164 157 179 c 2
 157 222 l 1
 72 222 l 1
 72 307 l 1
 157 307 l 1
 157 350 l 2
 157 365 159 379 161 393 c 1
 72 393 l 1
 72 478 l 1
 192 478 l 1x6980
 211 511 237 539 269 561 c 1
 200 631 l 1
 260 691 l 1
 353 599 l 1
 372 604 392 606 413 606 c 0x3580
 434 606 454 604 474 599 c 1
 566 691 l 1
 627 631 l 1
 557 561 l 1
 589 539 616 511 635 478 c 1
 755 478 l 1x2d80
499 137 m 1
 499 222 l 1
 328 222 l 1
 328 137 l 1
 499 137 l 1
499 307 m 1
 499 393 l 1
 328 393 l 1
 328 307 l 1
 499 307 l 1
EndSplineSet
Validated: 1
EndChar

StartChar: U
Encoding: 85 85 50
Width: 829
Flags: W
HStem: -77 214<328.509 497.723> 51 86<72 161 665 755> 222 85<72 157 328 499 669 755> 393 213<353.891 473.062> 393 85<72 161 665 755> 671 20G<240 280.217 546 586.333> 671 20G<240 280.217 546 586.333>
VStem: 157 171<137 222 307 393> 499 170<137 222 307 393>
LayerCount: 2
Fore
SplineSet
755 478 m 1x2d80
 755 393 l 1
 665 393 l 1
 667 379 669 365 669 350 c 2
 669 307 l 1
 755 307 l 1
 755 222 l 1
 669 222 l 1
 669 179 l 2
 669 164 667 151 665 137 c 1
 755 137 l 1
 755 51 l 1
 635 51 l 1x6d80
 591 -25 508 -77 413 -77 c 0xa180
 318 -77 236 -25 192 51 c 1
 72 51 l 1
 72 137 l 1
 161 137 l 1
 159 151 157 164 157 179 c 2
 157 222 l 1
 72 222 l 1
 72 307 l 1
 157 307 l 1
 157 350 l 2
 157 365 159 379 161 393 c 1
 72 393 l 1
 72 478 l 1
 192 478 l 1x6980
 211 511 237 539 269 561 c 1
 200 631 l 1
 260 691 l 1
 353 599 l 1
 372 604 392 606 413 606 c 0x3580
 434 606 454 604 474 599 c 1
 566 691 l 1
 627 631 l 1
 557 561 l 1
 589 539 616 511 635 478 c 1
 755 478 l 1x2d80
499 137 m 1
 499 222 l 1
 328 222 l 1
 328 137 l 1
 499 137 l 1
499 307 m 1
 499 393 l 1
 328 393 l 1
 328 307 l 1
 499 307 l 1
EndSplineSet
Validated: 1
EndChar

StartChar: V
Encoding: 86 86 51
Width: 829
Flags: W
HStem: -77 214<328.509 497.723> 51 86<72 161 665 755> 222 85<72 157 328 499 669 755> 393 213<353.891 473.062> 393 85<72 161 665 755> 671 20G<240 280.217 546 586.333> 671 20G<240 280.217 546 586.333>
VStem: 157 171<137 222 307 393> 499 170<137 222 307 393>
LayerCount: 2
Fore
SplineSet
755 478 m 1x2d80
 755 393 l 1
 665 393 l 1
 667 379 669 365 669 350 c 2
 669 307 l 1
 755 307 l 1
 755 222 l 1
 669 222 l 1
 669 179 l 2
 669 164 667 151 665 137 c 1
 755 137 l 1
 755 51 l 1
 635 51 l 1x6d80
 591 -25 508 -77 413 -77 c 0xa180
 318 -77 236 -25 192 51 c 1
 72 51 l 1
 72 137 l 1
 161 137 l 1
 159 151 157 164 157 179 c 2
 157 222 l 1
 72 222 l 1
 72 307 l 1
 157 307 l 1
 157 350 l 2
 157 365 159 379 161 393 c 1
 72 393 l 1
 72 478 l 1
 192 478 l 1x6980
 211 511 237 539 269 561 c 1
 200 631 l 1
 260 691 l 1
 353 599 l 1
 372 604 392 606 413 606 c 0x3580
 434 606 454 604 474 599 c 1
 566 691 l 1
 627 631 l 1
 557 561 l 1
 589 539 616 511 635 478 c 1
 755 478 l 1x2d80
499 137 m 1
 499 222 l 1
 328 222 l 1
 328 137 l 1
 499 137 l 1
499 307 m 1
 499 393 l 1
 328 393 l 1
 328 307 l 1
 499 307 l 1
EndSplineSet
Validated: 1
EndChar

StartChar: W
Encoding: 87 87 52
Width: 829
Flags: W
HStem: -77 214<328.509 497.723> 51 86<72 161 665 755> 222 85<72 157 328 499 669 755> 393 213<353.891 473.062> 393 85<72 161 665 755> 671 20G<240 280.217 546 586.333> 671 20G<240 280.217 546 586.333>
VStem: 157 171<137 222 307 393> 499 170<137 222 307 393>
LayerCount: 2
Fore
SplineSet
755 478 m 1x2d80
 755 393 l 1
 665 393 l 1
 667 379 669 365 669 350 c 2
 669 307 l 1
 755 307 l 1
 755 222 l 1
 669 222 l 1
 669 179 l 2
 669 164 667 151 665 137 c 1
 755 137 l 1
 755 51 l 1
 635 51 l 1x6d80
 591 -25 508 -77 413 -77 c 0xa180
 318 -77 236 -25 192 51 c 1
 72 51 l 1
 72 137 l 1
 161 137 l 1
 159 151 157 164 157 179 c 2
 157 222 l 1
 72 222 l 1
 72 307 l 1
 157 307 l 1
 157 350 l 2
 157 365 159 379 161 393 c 1
 72 393 l 1
 72 478 l 1
 192 478 l 1x6980
 211 511 237 539 269 561 c 1
 200 631 l 1
 260 691 l 1
 353 599 l 1
 372 604 392 606 413 606 c 0x3580
 434 606 454 604 474 599 c 1
 566 691 l 1
 627 631 l 1
 557 561 l 1
 589 539 616 511 635 478 c 1
 755 478 l 1x2d80
499 137 m 1
 499 222 l 1
 328 222 l 1
 328 137 l 1
 499 137 l 1
499 307 m 1
 499 393 l 1
 328 393 l 1
 328 307 l 1
 499 307 l 1
EndSplineSet
Validated: 1
EndChar

StartChar: X
Encoding: 88 88 53
Width: 829
Flags: W
HStem: -77 214<328.509 497.723> 51 86<72 161 665 755> 222 85<72 157 328 499 669 755> 393 213<353.891 473.062> 393 85<72 161 665 755> 671 20G<240 280.217 546 586.333> 671 20G<240 280.217 546 586.333>
VStem: 157 171<137 222 307 393> 499 170<137 222 307 393>
LayerCount: 2
Fore
SplineSet
755 478 m 1x2d80
 755 393 l 1
 665 393 l 1
 667 379 669 365 669 350 c 2
 669 307 l 1
 755 307 l 1
 755 222 l 1
 669 222 l 1
 669 179 l 2
 669 164 667 151 665 137 c 1
 755 137 l 1
 755 51 l 1
 635 51 l 1x6d80
 591 -25 508 -77 413 -77 c 0xa180
 318 -77 236 -25 192 51 c 1
 72 51 l 1
 72 137 l 1
 161 137 l 1
 159 151 157 164 157 179 c 2
 157 222 l 1
 72 222 l 1
 72 307 l 1
 157 307 l 1
 157 350 l 2
 157 365 159 379 161 393 c 1
 72 393 l 1
 72 478 l 1
 192 478 l 1x6980
 211 511 237 539 269 561 c 1
 200 631 l 1
 260 691 l 1
 353 599 l 1
 372 604 392 606 413 606 c 0x3580
 434 606 454 604 474 599 c 1
 566 691 l 1
 627 631 l 1
 557 561 l 1
 589 539 616 511 635 478 c 1
 755 478 l 1x2d80
499 137 m 1
 499 222 l 1
 328 222 l 1
 328 137 l 1
 499 137 l 1
499 307 m 1
 499 393 l 1
 328 393 l 1
 328 307 l 1
 499 307 l 1
EndSplineSet
Validated: 1
EndChar

StartChar: Y
Encoding: 89 89 54
Width: 829
Flags: W
HStem: -77 214<328.509 497.723> 51 86<72 161 665 755> 222 85<72 157 328 499 669 755> 393 213<353.891 473.062> 393 85<72 161 665 755> 671 20G<240 280.217 546 586.333> 671 20G<240 280.217 546 586.333>
VStem: 157 171<137 222 307 393> 499 170<137 222 307 393>
LayerCount: 2
Fore
SplineSet
755 478 m 1x2d80
 755 393 l 1
 665 393 l 1
 667 379 669 365 669 350 c 2
 669 307 l 1
 755 307 l 1
 755 222 l 1
 669 222 l 1
 669 179 l 2
 669 164 667 151 665 137 c 1
 755 137 l 1
 755 51 l 1
 635 51 l 1x6d80
 591 -25 508 -77 413 -77 c 0xa180
 318 -77 236 -25 192 51 c 1
 72 51 l 1
 72 137 l 1
 161 137 l 1
 159 151 157 164 157 179 c 2
 157 222 l 1
 72 222 l 1
 72 307 l 1
 157 307 l 1
 157 350 l 2
 157 365 159 379 161 393 c 1
 72 393 l 1
 72 478 l 1
 192 478 l 1x6980
 211 511 237 539 269 561 c 1
 200 631 l 1
 260 691 l 1
 353 599 l 1
 372 604 392 606 413 606 c 0x3580
 434 606 454 604 474 599 c 1
 566 691 l 1
 627 631 l 1
 557 561 l 1
 589 539 616 511 635 478 c 1
 755 478 l 1x2d80
499 137 m 1
 499 222 l 1
 328 222 l 1
 328 137 l 1
 499 137 l 1
499 307 m 1
 499 393 l 1
 328 393 l 1
 328 307 l 1
 499 307 l 1
EndSplineSet
Validated: 1
EndChar

StartChar: Z
Encoding: 90 90 55
Width: 829
Flags: W
HStem: -77 214<328.509 497.723> 51 86<72 161 665 755> 222 85<72 157 328 499 669 755> 393 213<353.891 473.062> 393 85<72 161 665 755> 671 20G<240 280.217 546 586.333> 671 20G<240 280.217 546 586.333>
VStem: 157 171<137 222 307 393> 499 170<137 222 307 393>
LayerCount: 2
Fore
SplineSet
755 478 m 1x2d80
 755 393 l 1
 665 393 l 1
 667 379 669 365 669 350 c 2
 669 307 l 1
 755 307 l 1
 755 222 l 1
 669 222 l 1
 669 179 l 2
 669 164 667 151 665 137 c 1
 755 137 l 1
 755 51 l 1
 635 51 l 1x6d80
 591 -25 508 -77 413 -77 c 0xa180
 318 -77 236 -25 192 51 c 1
 72 51 l 1
 72 137 l 1
 161 137 l 1
 159 151 157 164 157 179 c 2
 157 222 l 1
 72 222 l 1
 72 307 l 1
 157 307 l 1
 157 350 l 2
 157 365 159 379 161 393 c 1
 72 393 l 1
 72 478 l 1
 192 478 l 1x6980
 211 511 237 539 269 561 c 1
 200 631 l 1
 260 691 l 1
 353 599 l 1
 372 604 392 606 413 606 c 0x3580
 434 606 454 604 474 599 c 1
 566 691 l 1
 627 631 l 1
 557 561 l 1
 589 539 616 511 635 478 c 1
 755 478 l 1x2d80
499 137 m 1
 499 222 l 1
 328 222 l 1
 328 137 l 1
 499 137 l 1
499 307 m 1
 499 393 l 1
 328 393 l 1
 328 307 l 1
 499 307 l 1
EndSplineSet
Validated: 1
EndChar

StartChar: bracketleft
Encoding: 91 91 56
Width: 828
Flags: W
HStem: -77 214<329.277 498.491> 51 86<72 162 666 755> 222 85<72 158 328 499 670 755> 393 85<72 162 666 755> 671 20G<240.667 281.217 546.783 587> 671 20G<240.667 281.217 546.783 587>
VStem: 158 170<137 222 307 393> 499 171<137 222 307 393>
LayerCount: 2
Fore
SplineSet
755 478 m 1x7b
 755 393 l 1
 666 393 l 1
 668 379 670 365 670 350 c 2
 670 307 l 1
 755 307 l 1
 755 222 l 1
 670 222 l 1
 670 179 l 2
 670 164 668 151 666 137 c 1
 755 137 l 1
 755 51 l 1
 635 51 l 1x7b
 591 -25 509 -77 414 -77 c 0xb3
 319 -77 236 -25 192 51 c 1
 72 51 l 1
 72 137 l 1
 162 137 l 1
 160 151 158 164 158 179 c 2
 158 222 l 1
 72 222 l 1
 72 307 l 1
 158 307 l 1
 158 350 l 2
 158 365 160 379 162 393 c 1
 72 393 l 1
 72 478 l 1
 192 478 l 1
 211 511 238 539 270 561 c 1
 200 631 l 1
 261 691 l 1
 354 599 l 1
 373 604 393 606 414 606 c 0
 435 606 454 604 474 599 c 1
 567 691 l 1
 627 631 l 1
 558 561 l 1
 590 539 616 511 635 478 c 1
 755 478 l 1x7b
499 137 m 1
 499 222 l 1
 328 222 l 1
 328 137 l 1
 499 137 l 1
499 307 m 1
 499 393 l 1
 328 393 l 1
 328 307 l 1
 499 307 l 1
EndSplineSet
Validated: 1
EndChar

StartChar: backslash
Encoding: 92 92 57
Width: 828
Flags: W
HStem: -77 214<329.277 498.491> 51 86<72 162 666 755> 222 85<72 158 328 499 670 755> 393 85<72 162 666 755> 671 20G<240.667 281.217 546.783 587> 671 20G<240.667 281.217 546.783 587>
VStem: 158 170<137 222 307 393> 499 171<137 222 307 393>
LayerCount: 2
Fore
SplineSet
755 478 m 1x7b
 755 393 l 1
 666 393 l 1
 668 379 670 365 670 350 c 2
 670 307 l 1
 755 307 l 1
 755 222 l 1
 670 222 l 1
 670 179 l 2
 670 164 668 151 666 137 c 1
 755 137 l 1
 755 51 l 1
 635 51 l 1x7b
 591 -25 509 -77 414 -77 c 0xb3
 319 -77 236 -25 192 51 c 1
 72 51 l 1
 72 137 l 1
 162 137 l 1
 160 151 158 164 158 179 c 2
 158 222 l 1
 72 222 l 1
 72 307 l 1
 158 307 l 1
 158 350 l 2
 158 365 160 379 162 393 c 1
 72 393 l 1
 72 478 l 1
 192 478 l 1
 211 511 238 539 270 561 c 1
 200 631 l 1
 261 691 l 1
 354 599 l 1
 373 604 393 606 414 606 c 0
 435 606 454 604 474 599 c 1
 567 691 l 1
 627 631 l 1
 558 561 l 1
 590 539 616 511 635 478 c 1
 755 478 l 1x7b
499 137 m 1
 499 222 l 1
 328 222 l 1
 328 137 l 1
 499 137 l 1
499 307 m 1
 499 393 l 1
 328 393 l 1
 328 307 l 1
 499 307 l 1
EndSplineSet
Validated: 1
EndChar

StartChar: bracketright
Encoding: 93 93 58
Width: 828
Flags: W
HStem: -77 214<329.277 498.491> 51 86<72 162 666 755> 222 85<72 158 328 499 670 755> 393 85<72 162 666 755> 671 20G<240.667 281.217 546.783 587> 671 20G<240.667 281.217 546.783 587>
VStem: 158 170<137 222 307 393> 499 171<137 222 307 393>
LayerCount: 2
Fore
SplineSet
755 478 m 1x7b
 755 393 l 1
 666 393 l 1
 668 379 670 365 670 350 c 2
 670 307 l 1
 755 307 l 1
 755 222 l 1
 670 222 l 1
 670 179 l 2
 670 164 668 151 666 137 c 1
 755 137 l 1
 755 51 l 1
 635 51 l 1x7b
 591 -25 509 -77 414 -77 c 0xb3
 319 -77 236 -25 192 51 c 1
 72 51 l 1
 72 137 l 1
 162 137 l 1
 160 151 158 164 158 179 c 2
 158 222 l 1
 72 222 l 1
 72 307 l 1
 158 307 l 1
 158 350 l 2
 158 365 160 379 162 393 c 1
 72 393 l 1
 72 478 l 1
 192 478 l 1
 211 511 238 539 270 561 c 1
 200 631 l 1
 261 691 l 1
 354 599 l 1
 373 604 393 606 414 606 c 0
 435 606 454 604 474 599 c 1
 567 691 l 1
 627 631 l 1
 558 561 l 1
 590 539 616 511 635 478 c 1
 755 478 l 1x7b
499 137 m 1
 499 222 l 1
 328 222 l 1
 328 137 l 1
 499 137 l 1
499 307 m 1
 499 393 l 1
 328 393 l 1
 328 307 l 1
 499 307 l 1
EndSplineSet
Validated: 1
EndChar

StartChar: asciicircum
Encoding: 94 94 59
Width: 828
Flags: W
HStem: -77 214<329.277 498.491> 51 86<72 162 666 755> 222 85<72 158 328 499 670 755> 393 85<72 162 666 755> 671 20G<240.667 281.217 546.783 587> 671 20G<240.667 281.217 546.783 587>
VStem: 158 170<137 222 307 393> 499 171<137 222 307 393>
LayerCount: 2
Fore
SplineSet
755 478 m 1x7b
 755 393 l 1
 666 393 l 1
 668 379 670 365 670 350 c 2
 670 307 l 1
 755 307 l 1
 755 222 l 1
 670 222 l 1
 670 179 l 2
 670 164 668 151 666 137 c 1
 755 137 l 1
 755 51 l 1
 635 51 l 1x7b
 591 -25 509 -77 414 -77 c 0xb3
 319 -77 236 -25 192 51 c 1
 72 51 l 1
 72 137 l 1
 162 137 l 1
 160 151 158 164 158 179 c 2
 158 222 l 1
 72 222 l 1
 72 307 l 1
 158 307 l 1
 158 350 l 2
 158 365 160 379 162 393 c 1
 72 393 l 1
 72 478 l 1
 192 478 l 1
 211 511 238 539 270 561 c 1
 200 631 l 1
 261 691 l 1
 354 599 l 1
 373 604 393 606 414 606 c 0
 435 606 454 604 474 599 c 1
 567 691 l 1
 627 631 l 1
 558 561 l 1
 590 539 616 511 635 478 c 1
 755 478 l 1x7b
499 137 m 1
 499 222 l 1
 328 222 l 1
 328 137 l 1
 499 137 l 1
499 307 m 1
 499 393 l 1
 328 393 l 1
 328 307 l 1
 499 307 l 1
EndSplineSet
Validated: 1
EndChar

StartChar: underscore
Encoding: 95 95 60
Width: 828
Flags: W
HStem: -77 214<329.277 498.491> 51 86<72 162 666 755> 222 85<72 158 328 499 670 755> 393 85<72 162 666 755> 671 20G<240.667 281.217 546.783 587> 671 20G<240.667 281.217 546.783 587>
VStem: 158 170<137 222 307 393> 499 171<137 222 307 393>
LayerCount: 2
Fore
SplineSet
755 478 m 1x7b
 755 393 l 1
 666 393 l 1
 668 379 670 365 670 350 c 2
 670 307 l 1
 755 307 l 1
 755 222 l 1
 670 222 l 1
 670 179 l 2
 670 164 668 151 666 137 c 1
 755 137 l 1
 755 51 l 1
 635 51 l 1x7b
 591 -25 509 -77 414 -77 c 0xb3
 319 -77 236 -25 192 51 c 1
 72 51 l 1
 72 137 l 1
 162 137 l 1
 160 151 158 164 158 179 c 2
 158 222 l 1
 72 222 l 1
 72 307 l 1
 158 307 l 1
 158 350 l 2
 158 365 160 379 162 393 c 1
 72 393 l 1
 72 478 l 1
 192 478 l 1
 211 511 238 539 270 561 c 1
 200 631 l 1
 261 691 l 1
 354 599 l 1
 373 604 393 606 414 606 c 0
 435 606 454 604 474 599 c 1
 567 691 l 1
 627 631 l 1
 558 561 l 1
 590 539 616 511 635 478 c 1
 755 478 l 1x7b
499 137 m 1
 499 222 l 1
 328 222 l 1
 328 137 l 1
 499 137 l 1
499 307 m 1
 499 393 l 1
 328 393 l 1
 328 307 l 1
 499 307 l 1
EndSplineSet
Validated: 1
EndChar

StartChar: grave
Encoding: 96 96 61
Width: 828
Flags: W
HStem: -77 214<329.277 498.491> 51 86<72 162 666 755> 222 85<72 158 328 499 670 755> 393 85<72 162 666 755> 671 20G<240.667 281.217 546.783 587> 671 20G<240.667 281.217 546.783 587>
VStem: 158 170<137 222 307 393> 499 171<137 222 307 393>
LayerCount: 2
Fore
SplineSet
755 478 m 1x7b
 755 393 l 1
 666 393 l 1
 668 379 670 365 670 350 c 2
 670 307 l 1
 755 307 l 1
 755 222 l 1
 670 222 l 1
 670 179 l 2
 670 164 668 151 666 137 c 1
 755 137 l 1
 755 51 l 1
 635 51 l 1x7b
 591 -25 509 -77 414 -77 c 0xb3
 319 -77 236 -25 192 51 c 1
 72 51 l 1
 72 137 l 1
 162 137 l 1
 160 151 158 164 158 179 c 2
 158 222 l 1
 72 222 l 1
 72 307 l 1
 158 307 l 1
 158 350 l 2
 158 365 160 379 162 393 c 1
 72 393 l 1
 72 478 l 1
 192 478 l 1
 211 511 238 539 270 561 c 1
 200 631 l 1
 261 691 l 1
 354 599 l 1
 373 604 393 606 414 606 c 0
 435 606 454 604 474 599 c 1
 567 691 l 1
 627 631 l 1
 558 561 l 1
 590 539 616 511 635 478 c 1
 755 478 l 1x7b
499 137 m 1
 499 222 l 1
 328 222 l 1
 328 137 l 1
 499 137 l 1
499 307 m 1
 499 393 l 1
 328 393 l 1
 328 307 l 1
 499 307 l 1
EndSplineSet
Validated: 1
EndChar

StartChar: a
Encoding: 97 97 62
Width: 732
Flags: W
HStem: 253 85<66 322 408 664>
VStem: 322 86<-3 253 338 594>
LayerCount: 2
Fore
SplineSet
664 253 m 5
 408 253 l 5
 408 -3 l 5
 322 -3 l 5
 322 253 l 5
 66 253 l 5
 66 338 l 5
 322 338 l 5
 322 594 l 5
 408 594 l 5
 408 338 l 5
 664 338 l 5
 664 253 l 5
EndSplineSet
Validated: 1
EndChar

StartChar: b
Encoding: 98 98 63
Width: 864
Flags: W
LayerCount: 2
Fore
SplineSet
60 83 m 5
 532 555 l 5
 692 395 l 5
 220 -77 l 5
 60 -77 l 5
 60 83 l 5
815 519 m 6
 737 441 l 5
 577 601 l 5
 655 679 l 6
 672 696 698 696 715 679 c 6
 815 579 l 6
 832 562 832 536 815 519 c 6
EndSplineSet
Validated: 33
EndChar

StartChar: c
Encoding: 99 99 64
Width: 672
Flags: W
HStem: 563 128<229 442> 563 86<37 186 485 634>
VStem: 79 512<-48.6274 521>
LayerCount: 2
Fore
SplineSet
79 9 m 2x20
 79 521 l 1
 591 521 l 1
 591 9 l 2
 591 -38 553 -77 506 -77 c 2
 165 -77 l 2
 118 -77 79 -38 79 9 c 2x20
634 649 m 1x60
 634 563 l 1
 37 563 l 1
 37 649 l 1
 186 649 l 1x60
 229 691 l 1
 442 691 l 1xa0
 485 649 l 1
 634 649 l 1x60
EndSplineSet
Validated: 1
EndChar

StartChar: d
Encoding: 100 100 65
Width: 1024
Flags: W
HStem: -151.477 229.093<263.275 736.674> 58.6201 18.9961<258.952 263.206 736.743 740.997> 122.032 18.9922<258.952 263.206 736.743 740.997> 407.063 18.9404<259.2 262.702 736.743 740.997> 470.416 229.248<263.275 736.674>
VStem: 235.658 20.1826<79.3374 120.311 427.78 468.699> 263.206 473.537<-68.3987 76.1245 123.523 282.938 284.862 424.514 471.911 616.929> 744.108 20.1826<79.3374 120.311 427.726 468.697>
LayerCount: 2
Fore
SplineSet
732.108398438 -151.4765625 m 6xbf
 263.62890625 -151.4765625 l 6xbf
 246.965820312 -151.4765625 233.553710938 -133.028320312 233.553710938 -110.361328125 c 4
 233.553710938 -87.6953125 246.400390625 -69.56640625 254.69140625 -68.451171875 c 4
 262.982421875 -67.3369140625 263.206054688 -65.84375 263.206054688 -64.328125 c 6
 263.206054688 58.6201171875 l 5
 247.737304688 60.3779296875 235.658203125 78.083984375 235.658203125 99.82421875 c 4
 235.658203125 121.564453125 247.737304688 139.266601562 263.206054688 141.024414062 c 5
 263.206054688 144.76953125 l 5
 263.206054688 388.61328125 l 5
 262.702148438 407.063476562 l 5
 247.474609375 409.141601562 235.658203125 426.709960938 235.658203125 447.912109375 c 4
 235.658203125 469.114257812 246.8359375 486.248046875 261.4453125 489.1015625 c 5
 263.206054688 609.891601562 l 6
 263.166992188 612.725585938 262.2578125 615.047851562 253.8984375 617.021484375 c 4
 245.540039062 618.995117188 233.553710938 636.651367188 233.553710938 658.935546875 c 4
 233.553710938 681.220703125 246.965820312 699.6640625 263.62890625 699.6640625 c 6
 732.108398438 699.6640625 l 6
 748.770507812 699.6640625 762.186523438 681.220703125 762.186523438 660.154296875 c 4
 762.186523438 639.086914062 752.727539062 623.05078125 745.740234375 619.6640625 c 4
 738.752929688 616.276367188 737.6953125 613.6015625 736.743164062 609.891601562 c 6
 736.743164062 489.412109375 l 5
 752.211914062 487.655273438 764.291015625 469.952148438 764.291015625 448.212890625 c 4
 764.291015625 426.474609375 752.211914062 408.765625 736.743164062 407.008789062 c 5
 736.743164062 388.61328125 l 5
 736.743164062 144.76953125 l 5
 736.743164062 141.024414062 l 5
 752.211914062 139.266601562 764.291015625 121.564453125 764.291015625 99.82421875 c 4
 764.291015625 78.083984375 752.211914062 60.3779296875 736.743164062 58.6201171875 c 5x7f
 736.743164062 -64.328125 l 6
 736.743164062 -66.0791015625 737.044921875 -67.80078125 744.33203125 -70.4072265625 c 4
 751.618164062 -73.013671875 762.186523438 -89.7880859375 762.186523438 -111.408203125 c 4
 762.186523438 -133.028320312 748.770507812 -151.4765625 732.108398438 -151.4765625 c 6xbf
727.956054688 77.6162109375 m 6
 736.904296875 77.6162109375 744.108398438 87.521484375 744.108398438 99.82421875 c 4
 744.108398438 112.126953125 736.904296875 122.032226562 727.956054688 122.032226562 c 6
 271.993164062 122.032226562 l 6
 263.044921875 122.032226562 255.840820312 112.126953125 255.840820312 99.82421875 c 4
 255.840820312 87.521484375 263.044921875 77.6162109375 271.993164062 77.6162109375 c 6
 727.956054688 77.6162109375 l 6
727.956054688 426.00390625 m 6
 736.904296875 426.00390625 744.108398438 435.909179688 744.108398438 448.212890625 c 4
 744.108398438 460.515625 736.904296875 470.416015625 727.956054688 470.416015625 c 6
 271.993164062 470.416015625 l 6
 263.044921875 470.416015625 255.840820312 460.515625 255.840820312 448.212890625 c 4
 255.840820312 435.909179688 263.044921875 426.00390625 271.993164062 426.00390625 c 6
 727.956054688 426.00390625 l 6
499.974609375 282.938476562 m 4
 500.16796875 282.938476562 500.323242188 283.3671875 500.323242188 283.900390625 c 4
 500.323242188 284.43359375 500.16796875 284.862304688 499.974609375 284.862304688 c 4
 499.78125 284.862304688 499.625976562 284.43359375 499.625976562 283.900390625 c 4
 499.625976562 283.3671875 499.78125 282.938476562 499.974609375 282.938476562 c 4
EndSplineSet
Validated: 1
EndChar

StartChar: e
Encoding: 101 101 66
Width: 816
Flags: W
LayerCount: 2
Fore
SplineSet
737 633 m 6
 763 606 l 6
 785 583 786 545 761 525 c 6
 500 315 l 5
 565 246 l 6
 589 221 588 181 563 157 c 6
 537 133 l 5
 258 424 l 5
 254 428 l 5
 280 452 l 6
 305 476 344 475 369 450 c 6
 425 394 l 5
 656 635 l 5
 679 657 715 656 737 633 c 6
237 409 m 5
 517 117 l 5
 485 77 454 -9 358 -36 c 5
 250 64 138 159 55 281 c 5
 118 316 188 328 237 409 c 5
EndSplineSet
Validated: 33
EndChar

StartChar: f
Encoding: 102 102 67
Width: 568
Flags: W
HStem: 618 20G<284 284>
LayerCount: 2
Fore
SplineSet
284 638 m 1
 284 638 510 326 510 210 c 0
 510 94 409 0 284 0 c 0
 159 0 58 94 58 210 c 0
 58 326 284 638 284 638 c 1
140 203 m 0
 125 203 104 191 106 178 c 0
 120 100 169 56 220 47 c 0
 250 42 269 67 254 75 c 0
 175 119 168 153 152 196 c 0
 150 201 146 203 140 203 c 0
EndSplineSet
Validated: 33
EndChar

StartChar: g
Encoding: 103 103 68
Width: 916
Flags: W
HStem: -77 86<159 756> 265 85<73 486> 606 85<159 756>
VStem: 73 86<9 179 435 606> 756 85<9 606>
LayerCount: 2
Fore
SplineSet
376 154 m 1
 486 265 l 1
 73 265 l 1
 73 350 l 1
 486 350 l 1
 376 460 l 1
 436 521 l 1
 649 307 l 1
 436 94 l 1
 376 154 l 1
756 691 m 2
 803 691 841 653 841 606 c 2
 841 9 l 2
 841 -38 803 -77 756 -77 c 2
 159 -77 l 2
 112 -77 73 -38 73 9 c 2
 73 179 l 1
 159 179 l 1
 159 9 l 1
 756 9 l 1
 756 606 l 1
 159 606 l 1
 159 435 l 1
 73 435 l 1
 73 606 l 2
 73 653 112 691 159 691 c 2
 756 691 l 2
EndSplineSet
Validated: 1
EndChar

StartChar: h
Encoding: 104 104 69
Width: 904
Flags: W
HStem: -9 39<144 732>
VStem: 93 39<56 622>
LayerCount: 2
Fore
SplineSet
112 757 m 1
 191 622 l 1
 132 622 l 1
 132 56 l 1
 267 343 l 1
 391 207 l 1
 506 436 l 1
 606 493 l 1
 589 521 l 1
 676 520 l 1
 633 446 l 1
 616 474 l 1
 522 421 l 1
 396 169 l 1
 272 305 l 1
 144 30 l 1
 732 30 l 1
 732 89 l 1
 869 11 l 1
 732 -67 l 1
 732 -9 l 1
 93 -9 l 1
 93 201 92 412 92 622 c 1
 33 622 l 1
 112 757 l 1
EndSplineSet
Validated: 1
EndChar

StartChar: i
Encoding: 105 105 70
Width: 794
Flags: W
HStem: 9 34<586 641> 663 20G<91.4034 114.429> 663 20G<91.4034 114.429>
VStem: 86 34<66 564>
LayerCount: 2
Fore
SplineSet
586 43 m 1xd0
 641 43 l 1
 641 94 l 1
 760 26 l 1
 641 -43 l 1
 641 9 l 1
 86 9 l 1
 86 194 85 379 85 564 c 1
 34 564 l 1
 103 683 l 1
 171 564 l 1
 120 564 l 1
 120 66 l 1
 237 319 l 1
 345 199 l 1
 438 401 l 1
 444 404 561 475 561 475 c 1
 586 43 l 1xd0
EndSplineSet
Validated: 1
EndChar

StartChar: j
Encoding: 106 106 71
Width: 779
Flags: W
HStem: 45 33<116 183 245 310 372 437 499 615> 670 20G<88.4211 111.404> 670 20G<88.4211 111.404>
VStem: 83 33<78.2514 576> 183 62<78 465> 310 62<78 187> 437 62<78 346>
LayerCount: 2
Fore
SplineSet
100 690 m 5xde
 165 576 l 5
 116 576 l 5
 114 424 116 78 116 78 c 5
 183 78 l 5
 183 465 l 5
 245 465 l 5
 245 78 l 5
 310 78 l 5
 310 187 l 5
 372 187 l 5
 372 78 l 5
 437 78 l 5
 437 346 l 5
 499 346 l 5
 499 78 l 5
 615 78 l 5
 615 127 l 5
 728 62 l 5
 615 -4 l 5
 615 45 l 5
 84 45 l 5
 84 222 83 399 83 576 c 5
 34 576 l 5
 100 690 l 5xde
EndSplineSet
Validated: 33
EndChar

StartChar: k
Encoding: 107 107 72
Width: 783
Flags: W
HStem: 27 34<119 632> 110 90<172.207 248.519> 139 89<337.481 413.793> 202 89<541.481 618.519> 244 90<220.481 296.793> 291 89<396.481 473.519> 456 89<283.481 359.793> 497 90<454.207 530.519> 671 20G<90.2759 113.552> 671 20G<90.2759 113.552>
VStem: 85 34<61 575> 166 89<116.481 193.519> 214 89<250.481 327.519> 277 89<462.207 538.519> 331 89<145.207 221.519> 390 90<297.481 373.793> 448 89<503.481 580.519> 535 90<208.481 284.793>
LayerCount: 2
Fore
SplineSet
102 691 m 5x80a0
 169 575 l 5
 119 575 l 5
 119 61 l 5
 632 61 l 5
 632 111 l 5
 749 44 l 5
 632 -24 l 5
 632 27 l 5
 85 27 l 5
 85 575 l 5
 34 575 l 5
 102 691 l 5x80a0
492 587 m 4x812080
 517 587 537 567 537 542 c 4
 537 517 517 497 492 497 c 4
 467 497 448 517 448 542 c 4
 448 567 467 587 492 587 c 4x812080
322 545 m 4x8224
 347 545 366 525 366 500 c 4
 366 475 347 456 322 456 c 4
 297 456 277 475 277 500 c 4
 277 525 297 545 322 545 c 4x8224
435 380 m 4x8421
 460 380 480 361 480 336 c 4
 480 311 460 291 435 291 c 4
 410 291 390 311 390 336 c 4
 390 361 410 380 435 380 c 4x8421
259 334 m 4x8828
 284 334 303 314 303 289 c 4
 303 264 284 244 259 244 c 4
 234 244 214 264 214 289 c 4
 214 314 234 334 259 334 c 4x8828
580 291 m 4x902040
 605 291 625 272 625 247 c 4
 625 222 605 202 580 202 c 4
 555 202 535 222 535 247 c 4
 535 272 555 291 580 291 c 4x902040
376 228 m 4xa022
 401 228 420 208 420 183 c 4
 420 158 401 139 376 139 c 4
 351 139 331 158 331 183 c 4
 331 208 351 228 376 228 c 4xa022
210 200 m 4xc030
 235 200 255 180 255 155 c 4
 255 130 235 110 210 110 c 4
 185 110 166 130 166 155 c 4
 166 180 185 200 210 200 c 4xc030
EndSplineSet
Validated: 1
EndChar

StartChar: l
Encoding: 108 108 73
Width: 1091
Flags: W
HStem: -119 128<498.305 683.503> 85 273<517.009 664.696> 563 86<36 164 249 377> 757 20G<164 249>
VStem: 164 85<435 563 649 777> 454 273<148.009 295.696> 804 213<129.497 314.503>
LayerCount: 2
Fore
SplineSet
164 649 m 1
 164 777 l 1
 249 777 l 1
 249 649 l 1
 377 649 l 1
 377 563 l 1
 249 563 l 1
 249 435 l 1
 164 435 l 1
 164 563 l 1
 36 563 l 1
 36 649 l 1
 164 649 l 1
292 393 m 1
 292 521 l 1
 420 521 l 1
 420 649 l 1
 719 649 l 1
 797 563 l 1
 932 563 l 2
 979 563 1017 525 1017 478 c 2
 1017 -34 l 2
 1017 -81 979 -119 932 -119 c 2
 249 -119 l 2
 202 -119 164 -81 164 -34 c 2
 164 393 l 1
 292 393 l 1
591 9 m 0
 709 9 804 104 804 222 c 0
 804 340 709 435 591 435 c 0
 473 435 377 340 377 222 c 0
 377 104 473 9 591 9 c 0
454 222 m 0
 454 298 515 358 591 358 c 0
 667 358 727 298 727 222 c 0
 727 146 667 85 591 85 c 0
 515 85 454 146 454 222 c 0
EndSplineSet
Validated: 1
EndChar

StartChar: m
Encoding: 109 109 74
Width: 1174
Flags: W
HStem: -13 107<495.722 679.103> 521 106<490.443 675.681> 671 20G<193 233.026> 671 20G<193 233.026>
LayerCount: 2
Fore
SplineSet
586 521 m 0xc0
 558 521 532 515 508 505 c 1
 416 597 l 1
 469 616 525 627 585 627 c 0
 798 627 981 494 1055 307 c 1
 1024 228 972 159 908 105 c 1
 784 229 l 1
 794 253 799 279 799 307 c 0
 799 425 704 521 586 521 c 0xc0
159 637 m 1
 213 691 l 1xe0
 970 -65 l 1
 916 -119 l 1
 868 -71 821 -25 773 23 c 1
 715 0 652 -13 586 -13 c 0
 373 -13 190 120 116 307 c 1
 149 391 205 465 276 520 c 1
 237 559 198 598 159 637 c 1
395 401 m 1
 381 372 372 341 372 307 c 0
 372 189 468 94 586 94 c 0
 620 94 651 102 680 116 c 1
 614 183 l 1
 605 181 595 179 586 179 c 0
 515 179 458 236 458 307 c 0
 458 316 459 326 461 335 c 1
 395 401 l 1
579 434 m 1
 586 435 l 1
 657 435 714 378 714 307 c 1
 713 300 l 1
 579 434 l 1
EndSplineSet
Validated: 1
EndChar

StartChar: n
Encoding: 110 110 75
Width: 1048
Flags: W
HStem: -13 107<433.846 614.154> 179 256<452.299 595.701> 521 106<433.846 614.154>
VStem: 396 256<235.299 378.701>
LayerCount: 2
Fore
SplineSet
524 627 m 0
 737 627 919 494 993 307 c 1
 919 120 737 -13 524 -13 c 0
 311 -13 129 120 55 307 c 1
 129 494 311 627 524 627 c 0
524 94 m 0
 642 94 737 189 737 307 c 0
 737 425 642 521 524 521 c 0
 406 521 311 425 311 307 c 0
 311 189 406 94 524 94 c 0
524 435 m 0
 595 435 652 378 652 307 c 0
 652 236 595 179 524 179 c 0
 453 179 396 236 396 307 c 0
 396 378 453 435 524 435 c 0
EndSplineSet
Validated: 1
EndChar

StartChar: o
Encoding: 111 111 76
Width: 902
Flags: W
HStem: 671 20G<812.128 831.628> 671 20G<812.128 831.628>
VStem: 404.628 64<297 478> 745.628 86<188.375 303>
LayerCount: 2
Fore
SplineSet
831.627929688 387 m 1xb0
 541.627929688 387 l 1
 658.627929688 508 l 1
 542.627929688 623 353.627929688 627 237.627929688 512 c 0
 121.627929688 396 121.627929688 210 237.627929688 94 c 0
 353.627929688 -22 542.627929688 -22 658.627929688 94 c 0
 716.627929688 151 745.627929688 219 745.627929688 303 c 1
 831.627929688 303 l 1
 831.627929688 219 793.627929688 109 718.627929688 35 c 0
 568.627929688 -113 325.627929688 -113 175.627929688 35 c 0
 26.6279296875 183 24.6279296875 423 174.627929688 571 c 0
 324.627929688 719 564.627929688 719 714.627929688 571 c 1
 831.627929688 691 l 1
 831.627929688 387 l 1xb0
468.627929688 478 m 1
 468.627929688 297 l 1
 617.627929688 208 l 1
 587.627929688 156 l 1
 404.627929688 265 l 1
 404.627929688 478 l 1
 468.627929688 478 l 1
EndSplineSet
Validated: 33
EndChar

StartChar: p
Encoding: 112 112 77
Width: 985
Flags: W
HStem: 137 21G<73 457 823.5 907.212> 371 107<403.308 639.597>
LayerCount: 2
Fore
SplineSet
521 478 m 0
 719 478 888 349 947 170 c 1
 846 137 l 1
 801 273 672 371 521 371 c 0
 437 371 362 340 303 291 c 1
 457 137 l 1
 73 137 l 1
 73 521 l 1
 227 367 l 1
 306 436 408 478 521 478 c 0
EndSplineSet
Validated: 1
EndChar

StartChar: q
Encoding: 113 113 78
Width: 810
Flags: W
HStem: -34 85<305.516 405> 563 86<405 504.484> 757 20G<385 405>
VStem: 63 86<206.432 412.873> 661 85<203.883 407.614>
LayerCount: 2
Fore
SplineSet
405 649 m 1
 594 649 746 496 746 307 c 0
 746 240 726 177 693 125 c 1
 631 188 l 1
 650 223 661 264 661 307 c 0
 661 448 546 563 405 563 c 1
 405 435 l 1
 234 606 l 1
 405 777 l 1
 405 649 l 1
405 51 m 1
 405 179 l 1
 575 9 l 1
 405 -162 l 1
 405 -34 l 1
 216 -34 63 118 63 307 c 0
 63 374 83 437 116 489 c 1
 178 427 l 1
 159 392 149 350 149 307 c 0
 149 166 264 51 405 51 c 1
EndSplineSet
Validated: 1
EndChar

StartChar: r
Encoding: 114 114 79
Width: 868
Flags: W
HStem: -116 249<632.443 771.873> 179 256<118.299 260.933> 478 256<630.299 773.701>
VStem: 578 249<-60.873 35.5781 576.469 682.717>
LayerCount: 2
Fore
SplineSet
702 133 m 0
 771 133 827 78 827 9 c 0
 827 -60 771 -116 702 -116 c 0
 633 -116 578 -60 578 9 c 0
 578 18 579 27 581 36 c 1
 277 214 l 1
 254 193 224 179 190 179 c 0
 119 179 62 236 62 307 c 0
 62 378 119 435 190 435 c 0
 224 435 254 422 277 401 c 1
 578 576 l 1
 576 586 574 596 574 606 c 0
 574 677 631 734 702 734 c 0
 773 734 830 677 830 606 c 0
 830 535 773 478 702 478 c 0
 668 478 638 491 615 512 c 1
 315 337 l 1
 317 327 318 317 318 307 c 0
 318 297 317 287 315 277 c 1
 619 100 l 1
 641 120 670 133 702 133 c 0
EndSplineSet
Validated: 1
EndChar

StartChar: s
Encoding: 115 115 80
Width: 944
Flags: W
HStem: -119 277<394.762 549.301> 457 277<394.762 549.301>
VStem: 152.168 170<255.731 358.356> 365.168 213<-119 -50.928 665.376 734> 621.168 171<255.731 358.356>
LayerCount: 2
Fore
SplineSet
789.16796875 265 m 1
 879.16796875 195 l 2
 887.16796875 189 889.16796875 177 884.16796875 168 c 2
 799.16796875 20 l 2
 794.16796875 11 782.16796875 7 772.16796875 11 c 2
 666.16796875 53 l 1
 644.16796875 36 620.16796875 23 594.16796875 12 c 1
 578.16796875 -102 l 2
 577.16796875 -112 568.16796875 -119 557.16796875 -119 c 2
 386.16796875 -119 l 2
 375.16796875 -119 366.16796875 -112 365.16796875 -102 c 2
 349.16796875 12 l 1
 323.16796875 23 299.16796875 36 277.16796875 53 c 1
 171.16796875 11 l 2
 162.16796875 8 150.16796875 11 145.16796875 20 c 2
 60.16796875 168 l 2
 55.16796875 177 57.16796875 189 65.16796875 195 c 2
 155.16796875 265 l 1
 153.16796875 279 152.16796875 293 152.16796875 307 c 0
 152.16796875 321 153.16796875 335 155.16796875 349 c 1
 65.16796875 419 l 2
 57.16796875 425 54.16796875 438 60.16796875 447 c 2
 145.16796875 594 l 2
 150.16796875 603 161.16796875 608 171.16796875 604 c 2
 277.16796875 561 l 1
 299.16796875 578 323.16796875 592 349.16796875 603 c 1
 365.16796875 716 l 2
 366.16796875 726 375.16796875 734 386.16796875 734 c 2
 557.16796875 734 l 2
 568.16796875 734 577.16796875 726 578.16796875 716 c 2
 594.16796875 603 l 1
 620.16796875 592 644.16796875 578 666.16796875 561 c 1
 772.16796875 604 l 2
 781.16796875 607 794.16796875 603 799.16796875 594 c 2
 884.16796875 447 l 2
 889.16796875 438 887.16796875 425 879.16796875 419 c 2
 789.16796875 349 l 1
 791.16796875 335 792.16796875 322 792.16796875 307 c 0
 792.16796875 292 791.16796875 279 789.16796875 265 c 1
472.16796875 158 m 0
 554.16796875 158 621.16796875 225 621.16796875 307 c 0
 621.16796875 389 554.16796875 457 472.16796875 457 c 0
 390.16796875 457 322.16796875 389 322.16796875 307 c 0
 322.16796875 225 390.16796875 158 472.16796875 158 c 0
EndSplineSet
Validated: 1
EndChar

StartChar: t
Encoding: 116 116 81
Width: 914
Flags: W
HStem: -77 86<123.891 157 242 328 413 498 584 669 754 787.266> 94 85<72 157 328 584 754 840> 265 85<72 157 754 840> 435 86<72 157 328 584 754 840> 606 85<123.891 157 242 328 413 498 584 669 754 787.266>
VStem: 72 85<-24.2656 9 94 179 265 350 435 521 606 639.109> 242 86<-77 9 179 435 606 691> 413 85<-77 9 606 691> 584 85<-77 9 179 435 606 691> 754 86<-24.2656 9 94 179 265 350 435 521 606 639.109>
LayerCount: 2
Fore
SplineSet
72 606 m 1
 72 653 110 691 157 691 c 1
 157 606 l 1
 72 606 l 1
72 265 m 1
 72 350 l 1
 157 350 l 1
 157 265 l 1
 72 265 l 1
242 -77 m 1
 242 9 l 1
 328 9 l 1
 328 -77 l 1
 242 -77 l 1
72 435 m 1
 72 521 l 1
 157 521 l 1
 157 435 l 1
 72 435 l 1
498 691 m 1
 498 606 l 1
 413 606 l 1
 413 691 l 1
 498 691 l 1
754 691 m 1
 801 691 840 653 840 606 c 1
 754 606 l 1
 754 691 l 1
157 -77 m 1
 110 -77 72 -38 72 9 c 1
 157 9 l 1
 157 -77 l 1
72 94 m 1
 72 179 l 1
 157 179 l 1
 157 94 l 1
 72 94 l 1
328 691 m 1
 328 606 l 1
 242 606 l 1
 242 691 l 1
 328 691 l 1
413 -77 m 1
 413 9 l 1
 498 9 l 1
 498 -77 l 1
 413 -77 l 1
754 265 m 1
 754 350 l 1
 840 350 l 1
 840 265 l 1
 754 265 l 1
754 -77 m 1
 754 9 l 1
 840 9 l 1
 840 -38 801 -77 754 -77 c 1
754 435 m 1
 754 521 l 1
 840 521 l 1
 840 435 l 1
 754 435 l 1
754 94 m 1
 754 179 l 1
 840 179 l 1
 840 94 l 1
 754 94 l 1
584 -77 m 1
 584 9 l 1
 669 9 l 1
 669 -77 l 1
 584 -77 l 1
584 606 m 1
 584 691 l 1
 669 691 l 1
 669 606 l 1
 584 606 l 1
242 94 m 1
 242 521 l 1
 669 521 l 1
 669 94 l 1
 242 94 l 1
328 435 m 1
 328 179 l 1
 584 179 l 1
 584 435 l 1
 328 435 l 1
EndSplineSet
Validated: 1
EndChar

StartChar: u
Encoding: 117 117 82
Width: 904
Flags: W
HStem: -9 160<64 185> 463 160<734 855>
LayerCount: 2
Fore
SplineSet
776 307 m 0
 776 133 634 -9 460 -9 c 2
 64 -9 l 1
 64 151 l 1
 185 151 l 1
 159 197 144 250 144 307 c 0
 144 481 286 623 460 623 c 2
 855 623 l 1
 855 463 l 1
 734 463 l 1
 760 417 776 364 776 307 c 0
499 345 m 0
 478 367 444 368 422 347 c 0
 400 326 399 291 420 269 c 0
 441 247 476 246 498 267 c 0
 520 288 520 323 499 345 c 0
576 185 m 0
 643 249 646 356 581 424 c 0
 517 491 411 494 343 429 c 0
 276 365 273 259 338 191 c 0
 402 124 508 120 576 185 c 0
571 307 m 0
 571 278 560 248 537 226 c 0
 515 205 488 195 460 195 c 0
 431 195 401 207 379 230 c 0
 358 252 348 279 348 307 c 0
 348 336 359 366 382 388 c 0
 404 409 432 419 460 419 c 0
 489 419 518 408 540 385 c 0
 561 363 571 335 571 307 c 0
EndSplineSet
Validated: 33
EndChar

StartChar: v
Encoding: 118 118 83
Width: 800
Flags: W
HStem: -34 256<249.092 551.202> 307 342<318.918 481.313>
VStem: 230 341<396.687 559.313>
LayerCount: 2
Fore
SplineSet
400 307 m 0
 306 307 230 384 230 478 c 0
 230 572 306 649 400 649 c 0
 494 649 571 572 571 478 c 0
 571 384 494 307 400 307 c 0
400 222 m 0
 514 222 742 164 742 51 c 2
 742 -34 l 1
 59 -34 l 1
 59 51 l 2
 59 164 286 222 400 222 c 0
EndSplineSet
Validated: 1
EndChar

StartChar: w
Encoding: 119 119 84
Width: 907
Flags: W
HStem: -81 751<329.067 578.826>
VStem: 64 779<174.661 415.232>
LayerCount: 2
Fore
SplineSet
64 295 m 0
 64 502 239 670 454 670 c 0
 669 670 843 502 843 295 c 0
 843 88 669 -81 454 -81 c 0
 239 -81 64 88 64 295 c 0
EndSplineSet
Validated: 1
EndChar

StartChar: x
Encoding: 120 120 85
Width: 306
Flags: W
HStem: -34 21G<129.5 176.5> 117 20G<129.5 176.5> 222 171<95.8258 210.174> 478 171<95.8258 210.174>
VStem: 68 170<-6.17422 108.627 249.826 364.627 505.826 620.627>
LayerCount: 2
Fore
SplineSet
153 478 m 0
 106 478 68 516 68 563 c 0
 68 610 106 649 153 649 c 0
 200 649 238 610 238 563 c 0
 238 516 200 478 153 478 c 0
153 393 m 0
 200 393 238 354 238 307 c 0
 238 260 200 222 153 222 c 0
 106 222 68 260 68 307 c 0
 68 354 106 393 153 393 c 0
153 137 m 0
 200 137 238 98 238 51 c 0
 238 4 200 -34 153 -34 c 0
 106 -34 68 4 68 51 c 0
 68 98 106 137 153 137 c 0
EndSplineSet
Validated: 1
EndChar

StartChar: y
Encoding: 121 121 86
Width: 913
Flags: W
HStem: 9 66<51 80.7164> 9 26<83.6953 126.923> 67 20<433.624 447.15 704.85 718.394> 189 13<529.768 544 592 607.489> 433 14<546.971 562 607 620.094> 442 33<186 255> 442 17<102 125.19> 558 20<434.606 447.509 704.85 718.394> 572 64<255.589 293> 608 28<201.872 255.495>
VStem: 51 23<45.7955 75> 136 50<40.0518 442> 264 29<572 601.883> 304 41<194.366 449.353> 466 78<189 216.767 422.147 432.904> 607 76<202.097 223.518 417.92 447> 808 40<194.366 446.756>
LayerCount: 2
Fore
SplineSet
231 608 m 4x107f80
 188 608 186 556 186 510 c 6
 186 475 l 5
 255 475 l 5
 255 442 l 5
 186 442 l 5
 186 140 l 6
 186 65 169 9 96 9 c 4x547f80
 79 9 65 11 51 15 c 5
 51 75 l 5
 74 75 l 5x903f80
 78 56 85 35 106 35 c 4
 139 35 136 84 136 119 c 6
 136 442 l 5
 102 442 l 5
 102 459 l 5
 122 463 129 465 133 485 c 4
 134 491 135 499 136 509 c 4
 142 587 173 636 254 636 c 4x527f80
 269 636 282 634 293 632 c 5
 293 572 l 5
 264 572 l 5x10bf80
 258 592 253 608 231 608 c 4x107f80
452 558 m 5x313f80
 374 528 345 437 345 325 c 4
 345 211 373 117 451 87 c 5
 445 67 l 5
 351 96 304 197 304 322 c 4
 304 447 351 549 445 578 c 5
 452 558 l 5x313f80
526 220 m 4
 526 209 533 203 544 202 c 5
 544 189 l 5
 466 189 l 5
 466 202 l 5
 487 211 496 225 510 245 c 6
 558 315 l 5
 508 393 l 6
 496 412 490 427 471 433 c 5
 471 447 l 5
 562 447 l 5
 562 433 l 5
 550 431 544 426 544 417 c 4
 544 406 549 398 554 390 c 6
 582 344 l 5
 612 389 l 6
 617 397 623 405 623 417 c 4
 623 427 616 431 607 433 c 5
 607 447 l 5
 683 447 l 5
 683 433 l 5x183f80
 665 427 656 413 643 394 c 6
 594 325 l 5
 647 243 l 6
 659 225 669 210 686 202 c 5
 686 189 l 5
 592 189 l 5
 592 202 l 5
 605 204 612 210 612 219 c 4
 612 229 609 234 604 241 c 6
 570 296 l 5
 534 242 l 6
 530 235 526 230 526 220 c 4
701 87 m 5x313f80
 779 117 808 211 808 325 c 4
 808 437 779 528 701 558 c 5
 707 578 l 5
 800 549 848 446 848 322 c 4
 848 197 801 96 707 67 c 5
 701 87 l 5x313f80
EndSplineSet
Validated: 33
EndChar

StartChar: z
Encoding: 122 122 87
Width: 849
Flags: W
LayerCount: 2
Fore
SplineSet
178.25 63 m 0
 230.25 11 313.25 11 365.25 63 c 2
 486.25 184 l 1
 543.25 126 l 1
 423.25 6 l 2
 340.25 -77 204.25 -77 121.25 6 c 0
 38.25 89 38.25 224 121.25 307 c 2
 242.25 428 l 1
 299.25 371 l 1
 178.25 250 l 2
 126.25 198 126.25 115 178.25 63 c 0
332.25 156 m 1
 272.25 217 l 1
 513.25 458 l 1
 573.25 398 l 1
 332.25 156 l 1
423.25 609 m 2
 506.25 692 641.25 692 724.25 609 c 0
 807.25 526 807.25 390 724.25 307 c 2
 604.25 187 l 1
 546.25 244 l 1
 667.25 365 l 2
 719.25 417 719.25 500 667.25 552 c 0
 615.25 604 532.25 604 480.25 552 c 2
 359.25 431 l 1
 302.25 488 l 1
 423.25 609 l 2
EndSplineSet
Validated: 33
EndChar

StartChar: braceleft
Encoding: 123 123 88
Width: 839
Flags: W
LayerCount: 2
Fore
SplineSet
294 128 m 1
 746 580 l 1
 806 521 l 1
 294 9 l 1
 55 247 l 1
 115 307 l 1
 294 128 l 1
EndSplineSet
Validated: 1
EndChar

StartChar: bar
Encoding: 124 124 89
Width: 833
Flags: W
HStem: -34 85<160 672> 563 86<160 672>
VStem: 75 85<51 563> 672 86<51 563>
LayerCount: 2
Fore
SplineSet
672 649 m 2
 719 649 758 610 758 563 c 2
 758 51 l 2
 758 4 719 -34 672 -34 c 2
 160 -34 l 2
 113 -34 75 4 75 51 c 2
 75 563 l 2
 75 610 113 649 160 649 c 2
 672 649 l 2
672 51 m 1
 672 563 l 1
 160 563 l 1
 160 51 l 1
 672 51 l 1
EndSplineSet
Validated: 1
EndChar

StartChar: braceright
Encoding: 125 125 90
Width: 861
Flags: W
LayerCount: 2
Fore
SplineSet
60 83 m 1
 531 555 l 1
 691 395 l 1
 220 -77 l 1
 60 -77 l 1
 60 83 l 1
815 519 m 2
 737 441 l 1
 577 601 l 1
 655 679 l 2
 672 696 698 696 715 679 c 2
 815 579 l 2
 832 562 832 536 815 519 c 2
EndSplineSet
Validated: 33
EndChar

StartChar: asciitilde
Encoding: 126 126 91
Width: 828
Flags: W
HStem: -77 214<329.277 498.491> 51 86<72 162 666 755> 222 85<72 158 328 499 670 755> 393 85<72 162 666 755> 671 20G<240.667 281.217 546.783 587> 671 20G<240.667 281.217 546.783 587>
VStem: 158 170<137 222 307 393> 499 171<137 222 307 393>
LayerCount: 2
Fore
SplineSet
755 478 m 1x7b
 755 393 l 1
 666 393 l 1
 668 379 670 365 670 350 c 2
 670 307 l 1
 755 307 l 1
 755 222 l 1
 670 222 l 1
 670 179 l 2
 670 164 668 151 666 137 c 1
 755 137 l 1
 755 51 l 1
 635 51 l 1x7b
 591 -25 509 -77 414 -77 c 0xb3
 319 -77 236 -25 192 51 c 1
 72 51 l 1
 72 137 l 1
 162 137 l 1
 160 151 158 164 158 179 c 2
 158 222 l 1
 72 222 l 1
 72 307 l 1
 158 307 l 1
 158 350 l 2
 158 365 160 379 162 393 c 1
 72 393 l 1
 72 478 l 1
 192 478 l 1
 211 511 238 539 270 561 c 1
 200 631 l 1
 261 691 l 1
 354 599 l 1
 373 604 393 606 414 606 c 0
 435 606 454 604 474 599 c 1
 567 691 l 1
 627 631 l 1
 558 561 l 1
 590 539 616 511 635 478 c 1
 755 478 l 1x7b
499 137 m 1
 499 222 l 1
 328 222 l 1
 328 137 l 1
 499 137 l 1
499 307 m 1
 499 393 l 1
 328 393 l 1
 328 307 l 1
 499 307 l 1
EndSplineSet
Validated: 1
EndChar

StartChar: uni007F
Encoding: 127 127 92
Width: 1146
Flags: W
HStem: -34 21G<248.5 933> 435 214<491.503 659.05>
LayerCount: 2
Fore
SplineSet
889 391 m 1
 1000 383 1087 292 1087 179 c 0
 1087 61 992 -34 874 -34 c 2
 319 -34 l 2
 178 -34 63 81 63 222 c 0
 63 354 163 462 291 476 c 1
 344 578 452 649 575 649 c 0
 730 649 860 538 889 391 c 1
788 265 m 1
 660 265 l 1
 660 435 l 1
 490 435 l 1
 490 265 l 1
 362 265 l 1
 575 51 l 1
 788 265 l 1
EndSplineSet
Validated: 1
EndChar

StartChar: uni0080
Encoding: 128 128 93
Width: 1146
Flags: W
HStem: -34 299<362 490 660 788> -34 128<490 660> 629 20G<513.5 652.5> 629 20G<513.5 652.5>
VStem: 63 427<122.516 264.36> 660 427<95.9375 263.247>
LayerCount: 2
Fore
SplineSet
889 391 m 1x6c
 1000 383 1087 292 1087 179 c 0
 1087 61 992 -34 874 -34 c 2
 319 -34 l 2
 178 -34 63 81 63 222 c 0
 63 354 163 462 291 476 c 1
 344 578 452 649 575 649 c 0
 730 649 860 538 889 391 c 1x6c
660 265 m 1x8c
 788 265 l 1
 575 478 l 1
 362 265 l 1
 490 265 l 1x8c
 490 94 l 1
 660 94 l 1x4c
 660 265 l 1x8c
EndSplineSet
Validated: 1
EndChar

StartChar: uni0081
Encoding: 129 129 94
Width: 933
Flags: W
HStem: 137 21G<709 729> 265 85<69 709>
LayerCount: 2
Fore
SplineSet
879 307 m 1
 709 137 l 1
 709 265 l 1
 69 265 l 1
 69 350 l 1
 709 350 l 1
 709 478 l 1
 879 307 l 1
EndSplineSet
Validated: 1
EndChar

StartChar: uni0082
Encoding: 130 130 95
Width: 1001
Flags: W
HStem: 51 171<243 755> 307 43<243 755> 435 43<243 755> 563 171<243 755>
VStem: 73 170<222 307 350 435 478 563> 755 171<222 307 350 435 478 563>
LayerCount: 2
Fore
SplineSet
841 734 m 2
 888 734 926 696 926 649 c 2
 926 -119 l 1
 755 51 l 1
 158 51 l 2
 111 51 73 90 73 137 c 2
 73 649 l 2
 73 696 111 734 158 734 c 2
 841 734 l 2
755 222 m 1
 755 307 l 1
 243 307 l 1
 243 222 l 1
 755 222 l 1
755 350 m 1
 755 435 l 1
 243 435 l 1
 243 350 l 1
 755 350 l 1
755 478 m 1
 755 563 l 1
 243 563 l 1
 243 478 l 1
 755 478 l 1
EndSplineSet
Validated: 1
EndChar

StartChar: uni0083
Encoding: 131 131 96
Width: 832
Flags: W
HStem: -119 170<246 587> 137 85<246 587> 307 128<459 587> 714 20G<136.5 522>
VStem: 75 171<51 137 222 307> 587 171<51 137 222 307>
LayerCount: 2
Fore
SplineSet
502 734 m 1
 758 478 l 1
 758 -34 l 2
 758 -81 719 -119 672 -119 c 2
 160 -119 l 2
 113 -119 75 -81 75 -34 c 2
 75 649 l 2
 75 696 113 734 160 734 c 2
 502 734 l 1
587 51 m 1
 587 137 l 1
 246 137 l 1
 246 51 l 1
 587 51 l 1
587 222 m 1
 587 307 l 1
 246 307 l 1
 246 222 l 1
 587 222 l 1
459 435 m 1
 694 435 l 1
 459 670 l 1
 459 435 l 1
EndSplineSet
Validated: 1
EndChar

StartChar: uni0084
Encoding: 132 132 97
Width: 828
Flags: W
HStem: -77 214<329.277 498.491> 51 86<72 162 666 755> 222 85<72 158 328 499 670 755> 393 85<72 162 666 755> 671 20G<240.667 281.217 546.783 587> 671 20G<240.667 281.217 546.783 587>
VStem: 158 170<137 222 307 393> 499 171<137 222 307 393>
LayerCount: 2
Fore
SplineSet
755 478 m 1x7b
 755 393 l 1
 666 393 l 1
 668 379 670 365 670 350 c 2
 670 307 l 1
 755 307 l 1
 755 222 l 1
 670 222 l 1
 670 179 l 2
 670 164 668 151 666 137 c 1
 755 137 l 1
 755 51 l 1
 635 51 l 1x7b
 591 -25 509 -77 414 -77 c 0xb3
 319 -77 236 -25 192 51 c 1
 72 51 l 1
 72 137 l 1
 162 137 l 1
 160 151 158 164 158 179 c 2
 158 222 l 1
 72 222 l 1
 72 307 l 1
 158 307 l 1
 158 350 l 2
 158 365 160 379 162 393 c 1
 72 393 l 1
 72 478 l 1
 192 478 l 1
 211 511 238 539 270 561 c 1
 200 631 l 1
 261 691 l 1
 354 599 l 1
 373 604 393 606 414 606 c 0
 435 606 454 604 474 599 c 1
 567 691 l 1
 627 631 l 1
 558 561 l 1
 590 539 616 511 635 478 c 1
 755 478 l 1x7b
499 137 m 1
 499 222 l 1
 328 222 l 1
 328 137 l 1
 499 137 l 1
499 307 m 1
 499 393 l 1
 328 393 l 1
 328 307 l 1
 499 307 l 1
EndSplineSet
Validated: 1
EndChar

StartChar: uni0085
Encoding: 133 133 98
Width: 828
Flags: W
HStem: -77 214<329.277 498.491> 51 86<72 162 666 755> 222 85<72 158 328 499 670 755> 393 85<72 162 666 755> 671 20G<240.667 281.217 546.783 587> 671 20G<240.667 281.217 546.783 587>
VStem: 158 170<137 222 307 393> 499 171<137 222 307 393>
LayerCount: 2
Fore
SplineSet
755 478 m 1x7b
 755 393 l 1
 666 393 l 1
 668 379 670 365 670 350 c 2
 670 307 l 1
 755 307 l 1
 755 222 l 1
 670 222 l 1
 670 179 l 2
 670 164 668 151 666 137 c 1
 755 137 l 1
 755 51 l 1
 635 51 l 1x7b
 591 -25 509 -77 414 -77 c 0xb3
 319 -77 236 -25 192 51 c 1
 72 51 l 1
 72 137 l 1
 162 137 l 1
 160 151 158 164 158 179 c 2
 158 222 l 1
 72 222 l 1
 72 307 l 1
 158 307 l 1
 158 350 l 2
 158 365 160 379 162 393 c 1
 72 393 l 1
 72 478 l 1
 192 478 l 1
 211 511 238 539 270 561 c 1
 200 631 l 1
 261 691 l 1
 354 599 l 1
 373 604 393 606 414 606 c 0
 435 606 454 604 474 599 c 1
 567 691 l 1
 627 631 l 1
 558 561 l 1
 590 539 616 511 635 478 c 1
 755 478 l 1x7b
499 137 m 1
 499 222 l 1
 328 222 l 1
 328 137 l 1
 499 137 l 1
499 307 m 1
 499 393 l 1
 328 393 l 1
 328 307 l 1
 499 307 l 1
EndSplineSet
Validated: 1
EndChar

StartChar: uni0086
Encoding: 134 134 99
Width: 828
Flags: W
HStem: -77 214<329.277 498.491> 51 86<72 162 666 755> 222 85<72 158 328 499 670 755> 393 85<72 162 666 755> 671 20G<240.667 281.217 546.783 587> 671 20G<240.667 281.217 546.783 587>
VStem: 158 170<137 222 307 393> 499 171<137 222 307 393>
LayerCount: 2
Fore
SplineSet
755 478 m 1x7b
 755 393 l 1
 666 393 l 1
 668 379 670 365 670 350 c 2
 670 307 l 1
 755 307 l 1
 755 222 l 1
 670 222 l 1
 670 179 l 2
 670 164 668 151 666 137 c 1
 755 137 l 1
 755 51 l 1
 635 51 l 1x7b
 591 -25 509 -77 414 -77 c 0xb3
 319 -77 236 -25 192 51 c 1
 72 51 l 1
 72 137 l 1
 162 137 l 1
 160 151 158 164 158 179 c 2
 158 222 l 1
 72 222 l 1
 72 307 l 1
 158 307 l 1
 158 350 l 2
 158 365 160 379 162 393 c 1
 72 393 l 1
 72 478 l 1
 192 478 l 1
 211 511 238 539 270 561 c 1
 200 631 l 1
 261 691 l 1
 354 599 l 1
 373 604 393 606 414 606 c 0
 435 606 454 604 474 599 c 1
 567 691 l 1
 627 631 l 1
 558 561 l 1
 590 539 616 511 635 478 c 1
 755 478 l 1x7b
499 137 m 1
 499 222 l 1
 328 222 l 1
 328 137 l 1
 499 137 l 1
499 307 m 1
 499 393 l 1
 328 393 l 1
 328 307 l 1
 499 307 l 1
EndSplineSet
Validated: 1
EndChar

StartChar: uni0087
Encoding: 135 135 100
Width: 828
Flags: W
HStem: -77 214<329.277 498.491> 51 86<72 162 666 755> 222 85<72 158 328 499 670 755> 393 85<72 162 666 755> 671 20G<240.667 281.217 546.783 587> 671 20G<240.667 281.217 546.783 587>
VStem: 158 170<137 222 307 393> 499 171<137 222 307 393>
LayerCount: 2
Fore
SplineSet
755 478 m 1x7b
 755 393 l 1
 666 393 l 1
 668 379 670 365 670 350 c 2
 670 307 l 1
 755 307 l 1
 755 222 l 1
 670 222 l 1
 670 179 l 2
 670 164 668 151 666 137 c 1
 755 137 l 1
 755 51 l 1
 635 51 l 1x7b
 591 -25 509 -77 414 -77 c 0xb3
 319 -77 236 -25 192 51 c 1
 72 51 l 1
 72 137 l 1
 162 137 l 1
 160 151 158 164 158 179 c 2
 158 222 l 1
 72 222 l 1
 72 307 l 1
 158 307 l 1
 158 350 l 2
 158 365 160 379 162 393 c 1
 72 393 l 1
 72 478 l 1
 192 478 l 1
 211 511 238 539 270 561 c 1
 200 631 l 1
 261 691 l 1
 354 599 l 1
 373 604 393 606 414 606 c 0
 435 606 454 604 474 599 c 1
 567 691 l 1
 627 631 l 1
 558 561 l 1
 590 539 616 511 635 478 c 1
 755 478 l 1x7b
499 137 m 1
 499 222 l 1
 328 222 l 1
 328 137 l 1
 499 137 l 1
499 307 m 1
 499 393 l 1
 328 393 l 1
 328 307 l 1
 499 307 l 1
EndSplineSet
Validated: 1
EndChar

StartChar: uni0088
Encoding: 136 136 101
Width: 828
Flags: W
HStem: -77 214<329.277 498.491> 51 86<72 162 666 755> 222 85<72 158 328 499 670 755> 393 85<72 162 666 755> 671 20G<240.667 281.217 546.783 587> 671 20G<240.667 281.217 546.783 587>
VStem: 158 170<137 222 307 393> 499 171<137 222 307 393>
LayerCount: 2
Fore
SplineSet
755 478 m 1x7b
 755 393 l 1
 666 393 l 1
 668 379 670 365 670 350 c 2
 670 307 l 1
 755 307 l 1
 755 222 l 1
 670 222 l 1
 670 179 l 2
 670 164 668 151 666 137 c 1
 755 137 l 1
 755 51 l 1
 635 51 l 1x7b
 591 -25 509 -77 414 -77 c 0xb3
 319 -77 236 -25 192 51 c 1
 72 51 l 1
 72 137 l 1
 162 137 l 1
 160 151 158 164 158 179 c 2
 158 222 l 1
 72 222 l 1
 72 307 l 1
 158 307 l 1
 158 350 l 2
 158 365 160 379 162 393 c 1
 72 393 l 1
 72 478 l 1
 192 478 l 1
 211 511 238 539 270 561 c 1
 200 631 l 1
 261 691 l 1
 354 599 l 1
 373 604 393 606 414 606 c 0
 435 606 454 604 474 599 c 1
 567 691 l 1
 627 631 l 1
 558 561 l 1
 590 539 616 511 635 478 c 1
 755 478 l 1x7b
499 137 m 1
 499 222 l 1
 328 222 l 1
 328 137 l 1
 499 137 l 1
499 307 m 1
 499 393 l 1
 328 393 l 1
 328 307 l 1
 499 307 l 1
EndSplineSet
Validated: 1
EndChar

StartChar: uni0089
Encoding: 137 137 102
Width: 828
Flags: W
HStem: -77 214<329.277 498.491> 51 86<72 162 666 755> 222 85<72 158 328 499 670 755> 393 85<72 162 666 755> 671 20G<240.667 281.217 546.783 587> 671 20G<240.667 281.217 546.783 587>
VStem: 158 170<137 222 307 393> 499 171<137 222 307 393>
LayerCount: 2
Fore
SplineSet
755 478 m 1x7b
 755 393 l 1
 666 393 l 1
 668 379 670 365 670 350 c 2
 670 307 l 1
 755 307 l 1
 755 222 l 1
 670 222 l 1
 670 179 l 2
 670 164 668 151 666 137 c 1
 755 137 l 1
 755 51 l 1
 635 51 l 1x7b
 591 -25 509 -77 414 -77 c 0xb3
 319 -77 236 -25 192 51 c 1
 72 51 l 1
 72 137 l 1
 162 137 l 1
 160 151 158 164 158 179 c 2
 158 222 l 1
 72 222 l 1
 72 307 l 1
 158 307 l 1
 158 350 l 2
 158 365 160 379 162 393 c 1
 72 393 l 1
 72 478 l 1
 192 478 l 1
 211 511 238 539 270 561 c 1
 200 631 l 1
 261 691 l 1
 354 599 l 1
 373 604 393 606 414 606 c 0
 435 606 454 604 474 599 c 1
 567 691 l 1
 627 631 l 1
 558 561 l 1
 590 539 616 511 635 478 c 1
 755 478 l 1x7b
499 137 m 1
 499 222 l 1
 328 222 l 1
 328 137 l 1
 499 137 l 1
499 307 m 1
 499 393 l 1
 328 393 l 1
 328 307 l 1
 499 307 l 1
EndSplineSet
Validated: 1
EndChar

StartChar: uni008A
Encoding: 138 138 103
Width: 828
Flags: W
HStem: -77 214<329.277 498.491> 51 86<72 162 666 755> 222 85<72 158 328 499 670 755> 393 85<72 162 666 755> 671 20G<240.667 281.217 546.783 587> 671 20G<240.667 281.217 546.783 587>
VStem: 158 170<137 222 307 393> 499 171<137 222 307 393>
LayerCount: 2
Fore
SplineSet
755 478 m 1x7b
 755 393 l 1
 666 393 l 1
 668 379 670 365 670 350 c 2
 670 307 l 1
 755 307 l 1
 755 222 l 1
 670 222 l 1
 670 179 l 2
 670 164 668 151 666 137 c 1
 755 137 l 1
 755 51 l 1
 635 51 l 1x7b
 591 -25 509 -77 414 -77 c 0xb3
 319 -77 236 -25 192 51 c 1
 72 51 l 1
 72 137 l 1
 162 137 l 1
 160 151 158 164 158 179 c 2
 158 222 l 1
 72 222 l 1
 72 307 l 1
 158 307 l 1
 158 350 l 2
 158 365 160 379 162 393 c 1
 72 393 l 1
 72 478 l 1
 192 478 l 1
 211 511 238 539 270 561 c 1
 200 631 l 1
 261 691 l 1
 354 599 l 1
 373 604 393 606 414 606 c 0
 435 606 454 604 474 599 c 1
 567 691 l 1
 627 631 l 1
 558 561 l 1
 590 539 616 511 635 478 c 1
 755 478 l 1x7b
499 137 m 1
 499 222 l 1
 328 222 l 1
 328 137 l 1
 499 137 l 1
499 307 m 1
 499 393 l 1
 328 393 l 1
 328 307 l 1
 499 307 l 1
EndSplineSet
Validated: 1
EndChar

StartChar: uni008B
Encoding: 139 139 104
Width: 828
Flags: W
HStem: -77 214<329.277 498.491> 51 86<72 162 666 755> 222 85<72 158 328 499 670 755> 393 85<72 162 666 755> 671 20G<240.667 281.217 546.783 587> 671 20G<240.667 281.217 546.783 587>
VStem: 158 170<137 222 307 393> 499 171<137 222 307 393>
LayerCount: 2
Fore
SplineSet
755 478 m 1x7b
 755 393 l 1
 666 393 l 1
 668 379 670 365 670 350 c 2
 670 307 l 1
 755 307 l 1
 755 222 l 1
 670 222 l 1
 670 179 l 2
 670 164 668 151 666 137 c 1
 755 137 l 1
 755 51 l 1
 635 51 l 1x7b
 591 -25 509 -77 414 -77 c 0xb3
 319 -77 236 -25 192 51 c 1
 72 51 l 1
 72 137 l 1
 162 137 l 1
 160 151 158 164 158 179 c 2
 158 222 l 1
 72 222 l 1
 72 307 l 1
 158 307 l 1
 158 350 l 2
 158 365 160 379 162 393 c 1
 72 393 l 1
 72 478 l 1
 192 478 l 1
 211 511 238 539 270 561 c 1
 200 631 l 1
 261 691 l 1
 354 599 l 1
 373 604 393 606 414 606 c 0
 435 606 454 604 474 599 c 1
 567 691 l 1
 627 631 l 1
 558 561 l 1
 590 539 616 511 635 478 c 1
 755 478 l 1x7b
499 137 m 1
 499 222 l 1
 328 222 l 1
 328 137 l 1
 499 137 l 1
499 307 m 1
 499 393 l 1
 328 393 l 1
 328 307 l 1
 499 307 l 1
EndSplineSet
Validated: 1
EndChar

StartChar: uni008C
Encoding: 140 140 105
Width: 828
Flags: W
HStem: -77 214<329.277 498.491> 51 86<72 162 666 755> 222 85<72 158 328 499 670 755> 393 85<72 162 666 755> 671 20G<240.667 281.217 546.783 587> 671 20G<240.667 281.217 546.783 587>
VStem: 158 170<137 222 307 393> 499 171<137 222 307 393>
LayerCount: 2
Fore
SplineSet
755 478 m 1x7b
 755 393 l 1
 666 393 l 1
 668 379 670 365 670 350 c 2
 670 307 l 1
 755 307 l 1
 755 222 l 1
 670 222 l 1
 670 179 l 2
 670 164 668 151 666 137 c 1
 755 137 l 1
 755 51 l 1
 635 51 l 1x7b
 591 -25 509 -77 414 -77 c 0xb3
 319 -77 236 -25 192 51 c 1
 72 51 l 1
 72 137 l 1
 162 137 l 1
 160 151 158 164 158 179 c 2
 158 222 l 1
 72 222 l 1
 72 307 l 1
 158 307 l 1
 158 350 l 2
 158 365 160 379 162 393 c 1
 72 393 l 1
 72 478 l 1
 192 478 l 1
 211 511 238 539 270 561 c 1
 200 631 l 1
 261 691 l 1
 354 599 l 1
 373 604 393 606 414 606 c 0
 435 606 454 604 474 599 c 1
 567 691 l 1
 627 631 l 1
 558 561 l 1
 590 539 616 511 635 478 c 1
 755 478 l 1x7b
499 137 m 1
 499 222 l 1
 328 222 l 1
 328 137 l 1
 499 137 l 1
499 307 m 1
 499 393 l 1
 328 393 l 1
 328 307 l 1
 499 307 l 1
EndSplineSet
Validated: 1
EndChar

StartChar: uni008D
Encoding: 141 141 106
Width: 828
Flags: W
HStem: -77 214<329.277 498.491> 51 86<72 162 666 755> 222 85<72 158 328 499 670 755> 393 85<72 162 666 755> 671 20G<240.667 281.217 546.783 587> 671 20G<240.667 281.217 546.783 587>
VStem: 158 170<137 222 307 393> 499 171<137 222 307 393>
LayerCount: 2
Fore
SplineSet
755 478 m 1x7b
 755 393 l 1
 666 393 l 1
 668 379 670 365 670 350 c 2
 670 307 l 1
 755 307 l 1
 755 222 l 1
 670 222 l 1
 670 179 l 2
 670 164 668 151 666 137 c 1
 755 137 l 1
 755 51 l 1
 635 51 l 1x7b
 591 -25 509 -77 414 -77 c 0xb3
 319 -77 236 -25 192 51 c 1
 72 51 l 1
 72 137 l 1
 162 137 l 1
 160 151 158 164 158 179 c 2
 158 222 l 1
 72 222 l 1
 72 307 l 1
 158 307 l 1
 158 350 l 2
 158 365 160 379 162 393 c 1
 72 393 l 1
 72 478 l 1
 192 478 l 1
 211 511 238 539 270 561 c 1
 200 631 l 1
 261 691 l 1
 354 599 l 1
 373 604 393 606 414 606 c 0
 435 606 454 604 474 599 c 1
 567 691 l 1
 627 631 l 1
 558 561 l 1
 590 539 616 511 635 478 c 1
 755 478 l 1x7b
499 137 m 1
 499 222 l 1
 328 222 l 1
 328 137 l 1
 499 137 l 1
499 307 m 1
 499 393 l 1
 328 393 l 1
 328 307 l 1
 499 307 l 1
EndSplineSet
Validated: 1
EndChar

StartChar: uni008E
Encoding: 142 142 107
Width: 828
Flags: W
HStem: -77 214<329.277 498.491> 51 86<72 162 666 755> 222 85<72 158 328 499 670 755> 393 85<72 162 666 755> 671 20G<240.667 281.217 546.783 587> 671 20G<240.667 281.217 546.783 587>
VStem: 158 170<137 222 307 393> 499 171<137 222 307 393>
LayerCount: 2
Fore
SplineSet
755 478 m 1x7b
 755 393 l 1
 666 393 l 1
 668 379 670 365 670 350 c 2
 670 307 l 1
 755 307 l 1
 755 222 l 1
 670 222 l 1
 670 179 l 2
 670 164 668 151 666 137 c 1
 755 137 l 1
 755 51 l 1
 635 51 l 1x7b
 591 -25 509 -77 414 -77 c 0xb3
 319 -77 236 -25 192 51 c 1
 72 51 l 1
 72 137 l 1
 162 137 l 1
 160 151 158 164 158 179 c 2
 158 222 l 1
 72 222 l 1
 72 307 l 1
 158 307 l 1
 158 350 l 2
 158 365 160 379 162 393 c 1
 72 393 l 1
 72 478 l 1
 192 478 l 1
 211 511 238 539 270 561 c 1
 200 631 l 1
 261 691 l 1
 354 599 l 1
 373 604 393 606 414 606 c 0
 435 606 454 604 474 599 c 1
 567 691 l 1
 627 631 l 1
 558 561 l 1
 590 539 616 511 635 478 c 1
 755 478 l 1x7b
499 137 m 1
 499 222 l 1
 328 222 l 1
 328 137 l 1
 499 137 l 1
499 307 m 1
 499 393 l 1
 328 393 l 1
 328 307 l 1
 499 307 l 1
EndSplineSet
Validated: 1
EndChar

StartChar: uni008F
Encoding: 143 143 108
Width: 828
Flags: W
HStem: -77 214<329.277 498.491> 51 86<72 162 666 755> 222 85<72 158 328 499 670 755> 393 85<72 162 666 755> 671 20G<240.667 281.217 546.783 587> 671 20G<240.667 281.217 546.783 587>
VStem: 158 170<137 222 307 393> 499 171<137 222 307 393>
LayerCount: 2
Fore
SplineSet
755 478 m 1x7b
 755 393 l 1
 666 393 l 1
 668 379 670 365 670 350 c 2
 670 307 l 1
 755 307 l 1
 755 222 l 1
 670 222 l 1
 670 179 l 2
 670 164 668 151 666 137 c 1
 755 137 l 1
 755 51 l 1
 635 51 l 1x7b
 591 -25 509 -77 414 -77 c 0xb3
 319 -77 236 -25 192 51 c 1
 72 51 l 1
 72 137 l 1
 162 137 l 1
 160 151 158 164 158 179 c 2
 158 222 l 1
 72 222 l 1
 72 307 l 1
 158 307 l 1
 158 350 l 2
 158 365 160 379 162 393 c 1
 72 393 l 1
 72 478 l 1
 192 478 l 1
 211 511 238 539 270 561 c 1
 200 631 l 1
 261 691 l 1
 354 599 l 1
 373 604 393 606 414 606 c 0
 435 606 454 604 474 599 c 1
 567 691 l 1
 627 631 l 1
 558 561 l 1
 590 539 616 511 635 478 c 1
 755 478 l 1x7b
499 137 m 1
 499 222 l 1
 328 222 l 1
 328 137 l 1
 499 137 l 1
499 307 m 1
 499 393 l 1
 328 393 l 1
 328 307 l 1
 499 307 l 1
EndSplineSet
Validated: 1
EndChar

StartChar: uni0090
Encoding: 144 144 109
Width: 828
Flags: W
HStem: -77 214<329.277 498.491> 51 86<72 162 666 755> 222 85<72 158 328 499 670 755> 393 85<72 162 666 755> 671 20G<240.667 281.217 546.783 587> 671 20G<240.667 281.217 546.783 587>
VStem: 158 170<137 222 307 393> 499 171<137 222 307 393>
LayerCount: 2
Fore
SplineSet
755 478 m 1x7b
 755 393 l 1
 666 393 l 1
 668 379 670 365 670 350 c 2
 670 307 l 1
 755 307 l 1
 755 222 l 1
 670 222 l 1
 670 179 l 2
 670 164 668 151 666 137 c 1
 755 137 l 1
 755 51 l 1
 635 51 l 1x7b
 591 -25 509 -77 414 -77 c 0xb3
 319 -77 236 -25 192 51 c 1
 72 51 l 1
 72 137 l 1
 162 137 l 1
 160 151 158 164 158 179 c 2
 158 222 l 1
 72 222 l 1
 72 307 l 1
 158 307 l 1
 158 350 l 2
 158 365 160 379 162 393 c 1
 72 393 l 1
 72 478 l 1
 192 478 l 1
 211 511 238 539 270 561 c 1
 200 631 l 1
 261 691 l 1
 354 599 l 1
 373 604 393 606 414 606 c 0
 435 606 454 604 474 599 c 1
 567 691 l 1
 627 631 l 1
 558 561 l 1
 590 539 616 511 635 478 c 1
 755 478 l 1x7b
499 137 m 1
 499 222 l 1
 328 222 l 1
 328 137 l 1
 499 137 l 1
499 307 m 1
 499 393 l 1
 328 393 l 1
 328 307 l 1
 499 307 l 1
EndSplineSet
Validated: 1
EndChar

StartChar: uni0091
Encoding: 145 145 110
Width: 828
Flags: W
HStem: -77 214<329.277 498.491> 51 86<72 162 666 755> 222 85<72 158 328 499 670 755> 393 85<72 162 666 755> 671 20G<240.667 281.217 546.783 587> 671 20G<240.667 281.217 546.783 587>
VStem: 158 170<137 222 307 393> 499 171<137 222 307 393>
LayerCount: 2
Fore
SplineSet
755 478 m 1x7b
 755 393 l 1
 666 393 l 1
 668 379 670 365 670 350 c 2
 670 307 l 1
 755 307 l 1
 755 222 l 1
 670 222 l 1
 670 179 l 2
 670 164 668 151 666 137 c 1
 755 137 l 1
 755 51 l 1
 635 51 l 1x7b
 591 -25 509 -77 414 -77 c 0xb3
 319 -77 236 -25 192 51 c 1
 72 51 l 1
 72 137 l 1
 162 137 l 1
 160 151 158 164 158 179 c 2
 158 222 l 1
 72 222 l 1
 72 307 l 1
 158 307 l 1
 158 350 l 2
 158 365 160 379 162 393 c 1
 72 393 l 1
 72 478 l 1
 192 478 l 1
 211 511 238 539 270 561 c 1
 200 631 l 1
 261 691 l 1
 354 599 l 1
 373 604 393 606 414 606 c 0
 435 606 454 604 474 599 c 1
 567 691 l 1
 627 631 l 1
 558 561 l 1
 590 539 616 511 635 478 c 1
 755 478 l 1x7b
499 137 m 1
 499 222 l 1
 328 222 l 1
 328 137 l 1
 499 137 l 1
499 307 m 1
 499 393 l 1
 328 393 l 1
 328 307 l 1
 499 307 l 1
EndSplineSet
Validated: 1
EndChar

StartChar: uni0092
Encoding: 146 146 111
Width: 828
Flags: W
HStem: -77 214<329.277 498.491> 51 86<72 162 666 755> 222 85<72 158 328 499 670 755> 393 85<72 162 666 755> 671 20G<240.667 281.217 546.783 587> 671 20G<240.667 281.217 546.783 587>
VStem: 158 170<137 222 307 393> 499 171<137 222 307 393>
LayerCount: 2
Fore
SplineSet
755 478 m 1x7b
 755 393 l 1
 666 393 l 1
 668 379 670 365 670 350 c 2
 670 307 l 1
 755 307 l 1
 755 222 l 1
 670 222 l 1
 670 179 l 2
 670 164 668 151 666 137 c 1
 755 137 l 1
 755 51 l 1
 635 51 l 1x7b
 591 -25 509 -77 414 -77 c 0xb3
 319 -77 236 -25 192 51 c 1
 72 51 l 1
 72 137 l 1
 162 137 l 1
 160 151 158 164 158 179 c 2
 158 222 l 1
 72 222 l 1
 72 307 l 1
 158 307 l 1
 158 350 l 2
 158 365 160 379 162 393 c 1
 72 393 l 1
 72 478 l 1
 192 478 l 1
 211 511 238 539 270 561 c 1
 200 631 l 1
 261 691 l 1
 354 599 l 1
 373 604 393 606 414 606 c 0
 435 606 454 604 474 599 c 1
 567 691 l 1
 627 631 l 1
 558 561 l 1
 590 539 616 511 635 478 c 1
 755 478 l 1x7b
499 137 m 1
 499 222 l 1
 328 222 l 1
 328 137 l 1
 499 137 l 1
499 307 m 1
 499 393 l 1
 328 393 l 1
 328 307 l 1
 499 307 l 1
EndSplineSet
Validated: 1
EndChar

StartChar: uni0093
Encoding: 147 147 112
Width: 828
Flags: W
HStem: -77 214<329.277 498.491> 51 86<72 162 666 755> 222 85<72 158 328 499 670 755> 393 85<72 162 666 755> 671 20G<240.667 281.217 546.783 587> 671 20G<240.667 281.217 546.783 587>
VStem: 158 170<137 222 307 393> 499 171<137 222 307 393>
LayerCount: 2
Fore
SplineSet
755 478 m 1x7b
 755 393 l 1
 666 393 l 1
 668 379 670 365 670 350 c 2
 670 307 l 1
 755 307 l 1
 755 222 l 1
 670 222 l 1
 670 179 l 2
 670 164 668 151 666 137 c 1
 755 137 l 1
 755 51 l 1
 635 51 l 1x7b
 591 -25 509 -77 414 -77 c 0xb3
 319 -77 236 -25 192 51 c 1
 72 51 l 1
 72 137 l 1
 162 137 l 1
 160 151 158 164 158 179 c 2
 158 222 l 1
 72 222 l 1
 72 307 l 1
 158 307 l 1
 158 350 l 2
 158 365 160 379 162 393 c 1
 72 393 l 1
 72 478 l 1
 192 478 l 1
 211 511 238 539 270 561 c 1
 200 631 l 1
 261 691 l 1
 354 599 l 1
 373 604 393 606 414 606 c 0
 435 606 454 604 474 599 c 1
 567 691 l 1
 627 631 l 1
 558 561 l 1
 590 539 616 511 635 478 c 1
 755 478 l 1x7b
499 137 m 1
 499 222 l 1
 328 222 l 1
 328 137 l 1
 499 137 l 1
499 307 m 1
 499 393 l 1
 328 393 l 1
 328 307 l 1
 499 307 l 1
EndSplineSet
Validated: 1
EndChar

StartChar: uni0094
Encoding: 148 148 113
Width: 828
Flags: W
HStem: -77 214<329.277 498.491> 51 86<72 162 666 755> 222 85<72 158 328 499 670 755> 393 85<72 162 666 755> 671 20G<240.667 281.217 546.783 587> 671 20G<240.667 281.217 546.783 587>
VStem: 158 170<137 222 307 393> 499 171<137 222 307 393>
LayerCount: 2
Fore
SplineSet
755 478 m 1x7b
 755 393 l 1
 666 393 l 1
 668 379 670 365 670 350 c 2
 670 307 l 1
 755 307 l 1
 755 222 l 1
 670 222 l 1
 670 179 l 2
 670 164 668 151 666 137 c 1
 755 137 l 1
 755 51 l 1
 635 51 l 1x7b
 591 -25 509 -77 414 -77 c 0xb3
 319 -77 236 -25 192 51 c 1
 72 51 l 1
 72 137 l 1
 162 137 l 1
 160 151 158 164 158 179 c 2
 158 222 l 1
 72 222 l 1
 72 307 l 1
 158 307 l 1
 158 350 l 2
 158 365 160 379 162 393 c 1
 72 393 l 1
 72 478 l 1
 192 478 l 1
 211 511 238 539 270 561 c 1
 200 631 l 1
 261 691 l 1
 354 599 l 1
 373 604 393 606 414 606 c 0
 435 606 454 604 474 599 c 1
 567 691 l 1
 627 631 l 1
 558 561 l 1
 590 539 616 511 635 478 c 1
 755 478 l 1x7b
499 137 m 1
 499 222 l 1
 328 222 l 1
 328 137 l 1
 499 137 l 1
499 307 m 1
 499 393 l 1
 328 393 l 1
 328 307 l 1
 499 307 l 1
EndSplineSet
Validated: 1
EndChar

StartChar: uni0095
Encoding: 149 149 114
Width: 828
Flags: W
HStem: -77 214<329.277 498.491> 51 86<72 162 666 755> 222 85<72 158 328 499 670 755> 393 85<72 162 666 755> 671 20G<240.667 281.217 546.783 587> 671 20G<240.667 281.217 546.783 587>
VStem: 158 170<137 222 307 393> 499 171<137 222 307 393>
LayerCount: 2
Fore
SplineSet
755 478 m 1x7b
 755 393 l 1
 666 393 l 1
 668 379 670 365 670 350 c 2
 670 307 l 1
 755 307 l 1
 755 222 l 1
 670 222 l 1
 670 179 l 2
 670 164 668 151 666 137 c 1
 755 137 l 1
 755 51 l 1
 635 51 l 1x7b
 591 -25 509 -77 414 -77 c 0xb3
 319 -77 236 -25 192 51 c 1
 72 51 l 1
 72 137 l 1
 162 137 l 1
 160 151 158 164 158 179 c 2
 158 222 l 1
 72 222 l 1
 72 307 l 1
 158 307 l 1
 158 350 l 2
 158 365 160 379 162 393 c 1
 72 393 l 1
 72 478 l 1
 192 478 l 1
 211 511 238 539 270 561 c 1
 200 631 l 1
 261 691 l 1
 354 599 l 1
 373 604 393 606 414 606 c 0
 435 606 454 604 474 599 c 1
 567 691 l 1
 627 631 l 1
 558 561 l 1
 590 539 616 511 635 478 c 1
 755 478 l 1x7b
499 137 m 1
 499 222 l 1
 328 222 l 1
 328 137 l 1
 499 137 l 1
499 307 m 1
 499 393 l 1
 328 393 l 1
 328 307 l 1
 499 307 l 1
EndSplineSet
Validated: 1
EndChar

StartChar: uni0096
Encoding: 150 150 115
Width: 828
Flags: W
HStem: -77 214<329.277 498.491> 51 86<72 162 666 755> 222 85<72 158 328 499 670 755> 393 85<72 162 666 755> 671 20G<240.667 281.217 546.783 587> 671 20G<240.667 281.217 546.783 587>
VStem: 158 170<137 222 307 393> 499 171<137 222 307 393>
LayerCount: 2
Fore
SplineSet
755 478 m 1x7b
 755 393 l 1
 666 393 l 1
 668 379 670 365 670 350 c 2
 670 307 l 1
 755 307 l 1
 755 222 l 1
 670 222 l 1
 670 179 l 2
 670 164 668 151 666 137 c 1
 755 137 l 1
 755 51 l 1
 635 51 l 1x7b
 591 -25 509 -77 414 -77 c 0xb3
 319 -77 236 -25 192 51 c 1
 72 51 l 1
 72 137 l 1
 162 137 l 1
 160 151 158 164 158 179 c 2
 158 222 l 1
 72 222 l 1
 72 307 l 1
 158 307 l 1
 158 350 l 2
 158 365 160 379 162 393 c 1
 72 393 l 1
 72 478 l 1
 192 478 l 1
 211 511 238 539 270 561 c 1
 200 631 l 1
 261 691 l 1
 354 599 l 1
 373 604 393 606 414 606 c 0
 435 606 454 604 474 599 c 1
 567 691 l 1
 627 631 l 1
 558 561 l 1
 590 539 616 511 635 478 c 1
 755 478 l 1x7b
499 137 m 1
 499 222 l 1
 328 222 l 1
 328 137 l 1
 499 137 l 1
499 307 m 1
 499 393 l 1
 328 393 l 1
 328 307 l 1
 499 307 l 1
EndSplineSet
Validated: 1
EndChar

StartChar: uni0097
Encoding: 151 151 116
Width: 828
Flags: W
HStem: -77 214<329.277 498.491> 51 86<72 162 666 755> 222 85<72 158 328 499 670 755> 393 85<72 162 666 755> 671 20G<240.667 281.217 546.783 587> 671 20G<240.667 281.217 546.783 587>
VStem: 158 170<137 222 307 393> 499 171<137 222 307 393>
LayerCount: 2
Fore
SplineSet
755 478 m 1x7b
 755 393 l 1
 666 393 l 1
 668 379 670 365 670 350 c 2
 670 307 l 1
 755 307 l 1
 755 222 l 1
 670 222 l 1
 670 179 l 2
 670 164 668 151 666 137 c 1
 755 137 l 1
 755 51 l 1
 635 51 l 1x7b
 591 -25 509 -77 414 -77 c 0xb3
 319 -77 236 -25 192 51 c 1
 72 51 l 1
 72 137 l 1
 162 137 l 1
 160 151 158 164 158 179 c 2
 158 222 l 1
 72 222 l 1
 72 307 l 1
 158 307 l 1
 158 350 l 2
 158 365 160 379 162 393 c 1
 72 393 l 1
 72 478 l 1
 192 478 l 1
 211 511 238 539 270 561 c 1
 200 631 l 1
 261 691 l 1
 354 599 l 1
 373 604 393 606 414 606 c 0
 435 606 454 604 474 599 c 1
 567 691 l 1
 627 631 l 1
 558 561 l 1
 590 539 616 511 635 478 c 1
 755 478 l 1x7b
499 137 m 1
 499 222 l 1
 328 222 l 1
 328 137 l 1
 499 137 l 1
499 307 m 1
 499 393 l 1
 328 393 l 1
 328 307 l 1
 499 307 l 1
EndSplineSet
Validated: 1
EndChar

StartChar: uni0098
Encoding: 152 152 117
Width: 828
Flags: W
HStem: -77 214<329.277 498.491> 51 86<72 162 666 755> 222 85<72 158 328 499 670 755> 393 85<72 162 666 755> 671 20G<240.667 281.217 546.783 587> 671 20G<240.667 281.217 546.783 587>
VStem: 158 170<137 222 307 393> 499 171<137 222 307 393>
LayerCount: 2
Fore
SplineSet
755 478 m 1x7b
 755 393 l 1
 666 393 l 1
 668 379 670 365 670 350 c 2
 670 307 l 1
 755 307 l 1
 755 222 l 1
 670 222 l 1
 670 179 l 2
 670 164 668 151 666 137 c 1
 755 137 l 1
 755 51 l 1
 635 51 l 1x7b
 591 -25 509 -77 414 -77 c 0xb3
 319 -77 236 -25 192 51 c 1
 72 51 l 1
 72 137 l 1
 162 137 l 1
 160 151 158 164 158 179 c 2
 158 222 l 1
 72 222 l 1
 72 307 l 1
 158 307 l 1
 158 350 l 2
 158 365 160 379 162 393 c 1
 72 393 l 1
 72 478 l 1
 192 478 l 1
 211 511 238 539 270 561 c 1
 200 631 l 1
 261 691 l 1
 354 599 l 1
 373 604 393 606 414 606 c 0
 435 606 454 604 474 599 c 1
 567 691 l 1
 627 631 l 1
 558 561 l 1
 590 539 616 511 635 478 c 1
 755 478 l 1x7b
499 137 m 1
 499 222 l 1
 328 222 l 1
 328 137 l 1
 499 137 l 1
499 307 m 1
 499 393 l 1
 328 393 l 1
 328 307 l 1
 499 307 l 1
EndSplineSet
Validated: 1
EndChar

StartChar: uni0099
Encoding: 153 153 118
Width: 828
Flags: W
HStem: -77 214<329.277 498.491> 51 86<72 162 666 755> 222 85<72 158 328 499 670 755> 393 85<72 162 666 755> 671 20G<240.667 281.217 546.783 587> 671 20G<240.667 281.217 546.783 587>
VStem: 158 170<137 222 307 393> 499 171<137 222 307 393>
LayerCount: 2
Fore
SplineSet
755 478 m 1x7b
 755 393 l 1
 666 393 l 1
 668 379 670 365 670 350 c 2
 670 307 l 1
 755 307 l 1
 755 222 l 1
 670 222 l 1
 670 179 l 2
 670 164 668 151 666 137 c 1
 755 137 l 1
 755 51 l 1
 635 51 l 1x7b
 591 -25 509 -77 414 -77 c 0xb3
 319 -77 236 -25 192 51 c 1
 72 51 l 1
 72 137 l 1
 162 137 l 1
 160 151 158 164 158 179 c 2
 158 222 l 1
 72 222 l 1
 72 307 l 1
 158 307 l 1
 158 350 l 2
 158 365 160 379 162 393 c 1
 72 393 l 1
 72 478 l 1
 192 478 l 1
 211 511 238 539 270 561 c 1
 200 631 l 1
 261 691 l 1
 354 599 l 1
 373 604 393 606 414 606 c 0
 435 606 454 604 474 599 c 1
 567 691 l 1
 627 631 l 1
 558 561 l 1
 590 539 616 511 635 478 c 1
 755 478 l 1x7b
499 137 m 1
 499 222 l 1
 328 222 l 1
 328 137 l 1
 499 137 l 1
499 307 m 1
 499 393 l 1
 328 393 l 1
 328 307 l 1
 499 307 l 1
EndSplineSet
Validated: 1
EndChar

StartChar: uni009A
Encoding: 154 154 119
Width: 828
Flags: W
HStem: -77 214<329.277 498.491> 51 86<72 162 666 755> 222 85<72 158 328 499 670 755> 393 85<72 162 666 755> 671 20G<240.667 281.217 546.783 587> 671 20G<240.667 281.217 546.783 587>
VStem: 158 170<137 222 307 393> 499 171<137 222 307 393>
LayerCount: 2
Fore
SplineSet
755 478 m 1x7b
 755 393 l 1
 666 393 l 1
 668 379 670 365 670 350 c 2
 670 307 l 1
 755 307 l 1
 755 222 l 1
 670 222 l 1
 670 179 l 2
 670 164 668 151 666 137 c 1
 755 137 l 1
 755 51 l 1
 635 51 l 1x7b
 591 -25 509 -77 414 -77 c 0xb3
 319 -77 236 -25 192 51 c 1
 72 51 l 1
 72 137 l 1
 162 137 l 1
 160 151 158 164 158 179 c 2
 158 222 l 1
 72 222 l 1
 72 307 l 1
 158 307 l 1
 158 350 l 2
 158 365 160 379 162 393 c 1
 72 393 l 1
 72 478 l 1
 192 478 l 1
 211 511 238 539 270 561 c 1
 200 631 l 1
 261 691 l 1
 354 599 l 1
 373 604 393 606 414 606 c 0
 435 606 454 604 474 599 c 1
 567 691 l 1
 627 631 l 1
 558 561 l 1
 590 539 616 511 635 478 c 1
 755 478 l 1x7b
499 137 m 1
 499 222 l 1
 328 222 l 1
 328 137 l 1
 499 137 l 1
499 307 m 1
 499 393 l 1
 328 393 l 1
 328 307 l 1
 499 307 l 1
EndSplineSet
Validated: 1
EndChar

StartChar: uni009B
Encoding: 155 155 120
Width: 828
Flags: W
HStem: -77 214<329.277 498.491> 51 86<72 162 666 755> 222 85<72 158 328 499 670 755> 393 85<72 162 666 755> 671 20G<240.667 281.217 546.783 587> 671 20G<240.667 281.217 546.783 587>
VStem: 158 170<137 222 307 393> 499 171<137 222 307 393>
LayerCount: 2
Fore
SplineSet
755 478 m 1x7b
 755 393 l 1
 666 393 l 1
 668 379 670 365 670 350 c 2
 670 307 l 1
 755 307 l 1
 755 222 l 1
 670 222 l 1
 670 179 l 2
 670 164 668 151 666 137 c 1
 755 137 l 1
 755 51 l 1
 635 51 l 1x7b
 591 -25 509 -77 414 -77 c 0xb3
 319 -77 236 -25 192 51 c 1
 72 51 l 1
 72 137 l 1
 162 137 l 1
 160 151 158 164 158 179 c 2
 158 222 l 1
 72 222 l 1
 72 307 l 1
 158 307 l 1
 158 350 l 2
 158 365 160 379 162 393 c 1
 72 393 l 1
 72 478 l 1
 192 478 l 1
 211 511 238 539 270 561 c 1
 200 631 l 1
 261 691 l 1
 354 599 l 1
 373 604 393 606 414 606 c 0
 435 606 454 604 474 599 c 1
 567 691 l 1
 627 631 l 1
 558 561 l 1
 590 539 616 511 635 478 c 1
 755 478 l 1x7b
499 137 m 1
 499 222 l 1
 328 222 l 1
 328 137 l 1
 499 137 l 1
499 307 m 1
 499 393 l 1
 328 393 l 1
 328 307 l 1
 499 307 l 1
EndSplineSet
Validated: 1
EndChar

StartChar: uni009C
Encoding: 156 156 121
Width: 828
Flags: W
HStem: -77 214<329.277 498.491> 51 86<72 162 666 755> 222 85<72 158 328 499 670 755> 393 85<72 162 666 755> 671 20G<240.667 281.217 546.783 587> 671 20G<240.667 281.217 546.783 587>
VStem: 158 170<137 222 307 393> 499 171<137 222 307 393>
LayerCount: 2
Fore
SplineSet
755 478 m 1x7b
 755 393 l 1
 666 393 l 1
 668 379 670 365 670 350 c 2
 670 307 l 1
 755 307 l 1
 755 222 l 1
 670 222 l 1
 670 179 l 2
 670 164 668 151 666 137 c 1
 755 137 l 1
 755 51 l 1
 635 51 l 1x7b
 591 -25 509 -77 414 -77 c 0xb3
 319 -77 236 -25 192 51 c 1
 72 51 l 1
 72 137 l 1
 162 137 l 1
 160 151 158 164 158 179 c 2
 158 222 l 1
 72 222 l 1
 72 307 l 1
 158 307 l 1
 158 350 l 2
 158 365 160 379 162 393 c 1
 72 393 l 1
 72 478 l 1
 192 478 l 1
 211 511 238 539 270 561 c 1
 200 631 l 1
 261 691 l 1
 354 599 l 1
 373 604 393 606 414 606 c 0
 435 606 454 604 474 599 c 1
 567 691 l 1
 627 631 l 1
 558 561 l 1
 590 539 616 511 635 478 c 1
 755 478 l 1x7b
499 137 m 1
 499 222 l 1
 328 222 l 1
 328 137 l 1
 499 137 l 1
499 307 m 1
 499 393 l 1
 328 393 l 1
 328 307 l 1
 499 307 l 1
EndSplineSet
Validated: 1
EndChar

StartChar: uni009D
Encoding: 157 157 122
Width: 828
Flags: W
HStem: -77 214<329.277 498.491> 51 86<72 162 666 755> 222 85<72 158 328 499 670 755> 393 85<72 162 666 755> 671 20G<240.667 281.217 546.783 587> 671 20G<240.667 281.217 546.783 587>
VStem: 158 170<137 222 307 393> 499 171<137 222 307 393>
LayerCount: 2
Fore
SplineSet
755 478 m 1x7b
 755 393 l 1
 666 393 l 1
 668 379 670 365 670 350 c 2
 670 307 l 1
 755 307 l 1
 755 222 l 1
 670 222 l 1
 670 179 l 2
 670 164 668 151 666 137 c 1
 755 137 l 1
 755 51 l 1
 635 51 l 1x7b
 591 -25 509 -77 414 -77 c 0xb3
 319 -77 236 -25 192 51 c 1
 72 51 l 1
 72 137 l 1
 162 137 l 1
 160 151 158 164 158 179 c 2
 158 222 l 1
 72 222 l 1
 72 307 l 1
 158 307 l 1
 158 350 l 2
 158 365 160 379 162 393 c 1
 72 393 l 1
 72 478 l 1
 192 478 l 1
 211 511 238 539 270 561 c 1
 200 631 l 1
 261 691 l 1
 354 599 l 1
 373 604 393 606 414 606 c 0
 435 606 454 604 474 599 c 1
 567 691 l 1
 627 631 l 1
 558 561 l 1
 590 539 616 511 635 478 c 1
 755 478 l 1x7b
499 137 m 1
 499 222 l 1
 328 222 l 1
 328 137 l 1
 499 137 l 1
499 307 m 1
 499 393 l 1
 328 393 l 1
 328 307 l 1
 499 307 l 1
EndSplineSet
Validated: 1
EndChar

StartChar: uni009E
Encoding: 158 158 123
Width: 828
Flags: W
HStem: -77 214<329.277 498.491> 51 86<72 162 666 755> 222 85<72 158 328 499 670 755> 393 85<72 162 666 755> 671 20G<240.667 281.217 546.783 587> 671 20G<240.667 281.217 546.783 587>
VStem: 158 170<137 222 307 393> 499 171<137 222 307 393>
LayerCount: 2
Fore
SplineSet
755 478 m 1x7b
 755 393 l 1
 666 393 l 1
 668 379 670 365 670 350 c 2
 670 307 l 1
 755 307 l 1
 755 222 l 1
 670 222 l 1
 670 179 l 2
 670 164 668 151 666 137 c 1
 755 137 l 1
 755 51 l 1
 635 51 l 1x7b
 591 -25 509 -77 414 -77 c 0xb3
 319 -77 236 -25 192 51 c 1
 72 51 l 1
 72 137 l 1
 162 137 l 1
 160 151 158 164 158 179 c 2
 158 222 l 1
 72 222 l 1
 72 307 l 1
 158 307 l 1
 158 350 l 2
 158 365 160 379 162 393 c 1
 72 393 l 1
 72 478 l 1
 192 478 l 1
 211 511 238 539 270 561 c 1
 200 631 l 1
 261 691 l 1
 354 599 l 1
 373 604 393 606 414 606 c 0
 435 606 454 604 474 599 c 1
 567 691 l 1
 627 631 l 1
 558 561 l 1
 590 539 616 511 635 478 c 1
 755 478 l 1x7b
499 137 m 1
 499 222 l 1
 328 222 l 1
 328 137 l 1
 499 137 l 1
499 307 m 1
 499 393 l 1
 328 393 l 1
 328 307 l 1
 499 307 l 1
EndSplineSet
Validated: 1
EndChar

StartChar: uni009F
Encoding: 159 159 124
Width: 828
Flags: W
HStem: -77 214<329.277 498.491> 51 86<72 162 666 755> 222 85<72 158 328 499 670 755> 393 85<72 162 666 755> 671 20G<240.667 281.217 546.783 587> 671 20G<240.667 281.217 546.783 587>
VStem: 158 170<137 222 307 393> 499 171<137 222 307 393>
LayerCount: 2
Fore
SplineSet
755 478 m 1x7b
 755 393 l 1
 666 393 l 1
 668 379 670 365 670 350 c 2
 670 307 l 1
 755 307 l 1
 755 222 l 1
 670 222 l 1
 670 179 l 2
 670 164 668 151 666 137 c 1
 755 137 l 1
 755 51 l 1
 635 51 l 1x7b
 591 -25 509 -77 414 -77 c 0xb3
 319 -77 236 -25 192 51 c 1
 72 51 l 1
 72 137 l 1
 162 137 l 1
 160 151 158 164 158 179 c 2
 158 222 l 1
 72 222 l 1
 72 307 l 1
 158 307 l 1
 158 350 l 2
 158 365 160 379 162 393 c 1
 72 393 l 1
 72 478 l 1
 192 478 l 1
 211 511 238 539 270 561 c 1
 200 631 l 1
 261 691 l 1
 354 599 l 1
 373 604 393 606 414 606 c 0
 435 606 454 604 474 599 c 1
 567 691 l 1
 627 631 l 1
 558 561 l 1
 590 539 616 511 635 478 c 1
 755 478 l 1x7b
499 137 m 1
 499 222 l 1
 328 222 l 1
 328 137 l 1
 499 137 l 1
499 307 m 1
 499 393 l 1
 328 393 l 1
 328 307 l 1
 499 307 l 1
EndSplineSet
Validated: 1
EndChar

StartChar: uni00A0
Encoding: 160 160 125
Width: 828
Flags: W
HStem: -77 214<329.277 498.491> 51 86<72 162 666 755> 222 85<72 158 328 499 670 755> 393 85<72 162 666 755> 671 20G<240.667 281.217 546.783 587> 671 20G<240.667 281.217 546.783 587>
VStem: 158 170<137 222 307 393> 499 171<137 222 307 393>
LayerCount: 2
Fore
SplineSet
755 478 m 1x7b
 755 393 l 1
 666 393 l 1
 668 379 670 365 670 350 c 2
 670 307 l 1
 755 307 l 1
 755 222 l 1
 670 222 l 1
 670 179 l 2
 670 164 668 151 666 137 c 1
 755 137 l 1
 755 51 l 1
 635 51 l 1x7b
 591 -25 509 -77 414 -77 c 0xb3
 319 -77 236 -25 192 51 c 1
 72 51 l 1
 72 137 l 1
 162 137 l 1
 160 151 158 164 158 179 c 2
 158 222 l 1
 72 222 l 1
 72 307 l 1
 158 307 l 1
 158 350 l 2
 158 365 160 379 162 393 c 1
 72 393 l 1
 72 478 l 1
 192 478 l 1
 211 511 238 539 270 561 c 1
 200 631 l 1
 261 691 l 1
 354 599 l 1
 373 604 393 606 414 606 c 0
 435 606 454 604 474 599 c 1
 567 691 l 1
 627 631 l 1
 558 561 l 1
 590 539 616 511 635 478 c 1
 755 478 l 1x7b
499 137 m 1
 499 222 l 1
 328 222 l 1
 328 137 l 1
 499 137 l 1
499 307 m 1
 499 393 l 1
 328 393 l 1
 328 307 l 1
 499 307 l 1
EndSplineSet
Validated: 1
EndChar

StartChar: exclamdown
Encoding: 161 161 126
Width: 828
Flags: W
HStem: -77 214<329.277 498.491> 51 86<72 162 666 755> 222 85<72 158 328 499 670 755> 393 85<72 162 666 755> 671 20G<240.667 281.217 546.783 587> 671 20G<240.667 281.217 546.783 587>
VStem: 158 170<137 222 307 393> 499 171<137 222 307 393>
LayerCount: 2
Fore
SplineSet
755 478 m 1x7b
 755 393 l 1
 666 393 l 1
 668 379 670 365 670 350 c 2
 670 307 l 1
 755 307 l 1
 755 222 l 1
 670 222 l 1
 670 179 l 2
 670 164 668 151 666 137 c 1
 755 137 l 1
 755 51 l 1
 635 51 l 1x7b
 591 -25 509 -77 414 -77 c 0xb3
 319 -77 236 -25 192 51 c 1
 72 51 l 1
 72 137 l 1
 162 137 l 1
 160 151 158 164 158 179 c 2
 158 222 l 1
 72 222 l 1
 72 307 l 1
 158 307 l 1
 158 350 l 2
 158 365 160 379 162 393 c 1
 72 393 l 1
 72 478 l 1
 192 478 l 1
 211 511 238 539 270 561 c 1
 200 631 l 1
 261 691 l 1
 354 599 l 1
 373 604 393 606 414 606 c 0
 435 606 454 604 474 599 c 1
 567 691 l 1
 627 631 l 1
 558 561 l 1
 590 539 616 511 635 478 c 1
 755 478 l 1x7b
499 137 m 1
 499 222 l 1
 328 222 l 1
 328 137 l 1
 499 137 l 1
499 307 m 1
 499 393 l 1
 328 393 l 1
 328 307 l 1
 499 307 l 1
EndSplineSet
Validated: 1
EndChar

StartChar: cent
Encoding: 162 162 127
Width: 828
Flags: W
HStem: -77 214<329.277 498.491> 51 86<72 162 666 755> 222 85<72 158 328 499 670 755> 393 85<72 162 666 755> 671 20G<240.667 281.217 546.783 587> 671 20G<240.667 281.217 546.783 587>
VStem: 158 170<137 222 307 393> 499 171<137 222 307 393>
LayerCount: 2
Fore
SplineSet
755 478 m 1x7b
 755 393 l 1
 666 393 l 1
 668 379 670 365 670 350 c 2
 670 307 l 1
 755 307 l 1
 755 222 l 1
 670 222 l 1
 670 179 l 2
 670 164 668 151 666 137 c 1
 755 137 l 1
 755 51 l 1
 635 51 l 1x7b
 591 -25 509 -77 414 -77 c 0xb3
 319 -77 236 -25 192 51 c 1
 72 51 l 1
 72 137 l 1
 162 137 l 1
 160 151 158 164 158 179 c 2
 158 222 l 1
 72 222 l 1
 72 307 l 1
 158 307 l 1
 158 350 l 2
 158 365 160 379 162 393 c 1
 72 393 l 1
 72 478 l 1
 192 478 l 1
 211 511 238 539 270 561 c 1
 200 631 l 1
 261 691 l 1
 354 599 l 1
 373 604 393 606 414 606 c 0
 435 606 454 604 474 599 c 1
 567 691 l 1
 627 631 l 1
 558 561 l 1
 590 539 616 511 635 478 c 1
 755 478 l 1x7b
499 137 m 1
 499 222 l 1
 328 222 l 1
 328 137 l 1
 499 137 l 1
499 307 m 1
 499 393 l 1
 328 393 l 1
 328 307 l 1
 499 307 l 1
EndSplineSet
Validated: 1
EndChar

StartChar: sterling
Encoding: 163 163 128
Width: 828
Flags: W
HStem: -77 214<329.277 498.491> 51 86<72 162 666 755> 222 85<72 158 328 499 670 755> 393 85<72 162 666 755> 671 20G<240.667 281.217 546.783 587> 671 20G<240.667 281.217 546.783 587>
VStem: 158 170<137 222 307 393> 499 171<137 222 307 393>
LayerCount: 2
Fore
SplineSet
755 478 m 1x7b
 755 393 l 1
 666 393 l 1
 668 379 670 365 670 350 c 2
 670 307 l 1
 755 307 l 1
 755 222 l 1
 670 222 l 1
 670 179 l 2
 670 164 668 151 666 137 c 1
 755 137 l 1
 755 51 l 1
 635 51 l 1x7b
 591 -25 509 -77 414 -77 c 0xb3
 319 -77 236 -25 192 51 c 1
 72 51 l 1
 72 137 l 1
 162 137 l 1
 160 151 158 164 158 179 c 2
 158 222 l 1
 72 222 l 1
 72 307 l 1
 158 307 l 1
 158 350 l 2
 158 365 160 379 162 393 c 1
 72 393 l 1
 72 478 l 1
 192 478 l 1
 211 511 238 539 270 561 c 1
 200 631 l 1
 261 691 l 1
 354 599 l 1
 373 604 393 606 414 606 c 0
 435 606 454 604 474 599 c 1
 567 691 l 1
 627 631 l 1
 558 561 l 1
 590 539 616 511 635 478 c 1
 755 478 l 1x7b
499 137 m 1
 499 222 l 1
 328 222 l 1
 328 137 l 1
 499 137 l 1
499 307 m 1
 499 393 l 1
 328 393 l 1
 328 307 l 1
 499 307 l 1
EndSplineSet
Validated: 1
EndChar

StartChar: currency
Encoding: 164 164 129
Width: 828
Flags: W
HStem: -77 214<329.277 498.491> 51 86<72 162 666 755> 222 85<72 158 328 499 670 755> 393 85<72 162 666 755> 671 20G<240.667 281.217 546.783 587> 671 20G<240.667 281.217 546.783 587>
VStem: 158 170<137 222 307 393> 499 171<137 222 307 393>
LayerCount: 2
Fore
SplineSet
755 478 m 1x7b
 755 393 l 1
 666 393 l 1
 668 379 670 365 670 350 c 2
 670 307 l 1
 755 307 l 1
 755 222 l 1
 670 222 l 1
 670 179 l 2
 670 164 668 151 666 137 c 1
 755 137 l 1
 755 51 l 1
 635 51 l 1x7b
 591 -25 509 -77 414 -77 c 0xb3
 319 -77 236 -25 192 51 c 1
 72 51 l 1
 72 137 l 1
 162 137 l 1
 160 151 158 164 158 179 c 2
 158 222 l 1
 72 222 l 1
 72 307 l 1
 158 307 l 1
 158 350 l 2
 158 365 160 379 162 393 c 1
 72 393 l 1
 72 478 l 1
 192 478 l 1
 211 511 238 539 270 561 c 1
 200 631 l 1
 261 691 l 1
 354 599 l 1
 373 604 393 606 414 606 c 0
 435 606 454 604 474 599 c 1
 567 691 l 1
 627 631 l 1
 558 561 l 1
 590 539 616 511 635 478 c 1
 755 478 l 1x7b
499 137 m 1
 499 222 l 1
 328 222 l 1
 328 137 l 1
 499 137 l 1
499 307 m 1
 499 393 l 1
 328 393 l 1
 328 307 l 1
 499 307 l 1
EndSplineSet
Validated: 1
EndChar

StartChar: yen
Encoding: 165 165 130
Width: 828
Flags: W
HStem: -77 214<329.277 498.491> 51 86<72 162 666 755> 222 85<72 158 328 499 670 755> 393 85<72 162 666 755> 671 20G<240.667 281.217 546.783 587> 671 20G<240.667 281.217 546.783 587>
VStem: 158 170<137 222 307 393> 499 171<137 222 307 393>
LayerCount: 2
Fore
SplineSet
755 478 m 1x7b
 755 393 l 1
 666 393 l 1
 668 379 670 365 670 350 c 2
 670 307 l 1
 755 307 l 1
 755 222 l 1
 670 222 l 1
 670 179 l 2
 670 164 668 151 666 137 c 1
 755 137 l 1
 755 51 l 1
 635 51 l 1x7b
 591 -25 509 -77 414 -77 c 0xb3
 319 -77 236 -25 192 51 c 1
 72 51 l 1
 72 137 l 1
 162 137 l 1
 160 151 158 164 158 179 c 2
 158 222 l 1
 72 222 l 1
 72 307 l 1
 158 307 l 1
 158 350 l 2
 158 365 160 379 162 393 c 1
 72 393 l 1
 72 478 l 1
 192 478 l 1
 211 511 238 539 270 561 c 1
 200 631 l 1
 261 691 l 1
 354 599 l 1
 373 604 393 606 414 606 c 0
 435 606 454 604 474 599 c 1
 567 691 l 1
 627 631 l 1
 558 561 l 1
 590 539 616 511 635 478 c 1
 755 478 l 1x7b
499 137 m 1
 499 222 l 1
 328 222 l 1
 328 137 l 1
 499 137 l 1
499 307 m 1
 499 393 l 1
 328 393 l 1
 328 307 l 1
 499 307 l 1
EndSplineSet
Validated: 1
EndChar

StartChar: brokenbar
Encoding: 166 166 131
Width: 828
Flags: W
HStem: -77 214<329.277 498.491> 51 86<72 162 666 755> 222 85<72 158 328 499 670 755> 393 85<72 162 666 755> 671 20G<240.667 281.217 546.783 587> 671 20G<240.667 281.217 546.783 587>
VStem: 158 170<137 222 307 393> 499 171<137 222 307 393>
LayerCount: 2
Fore
SplineSet
755 478 m 1x7b
 755 393 l 1
 666 393 l 1
 668 379 670 365 670 350 c 2
 670 307 l 1
 755 307 l 1
 755 222 l 1
 670 222 l 1
 670 179 l 2
 670 164 668 151 666 137 c 1
 755 137 l 1
 755 51 l 1
 635 51 l 1x7b
 591 -25 509 -77 414 -77 c 0xb3
 319 -77 236 -25 192 51 c 1
 72 51 l 1
 72 137 l 1
 162 137 l 1
 160 151 158 164 158 179 c 2
 158 222 l 1
 72 222 l 1
 72 307 l 1
 158 307 l 1
 158 350 l 2
 158 365 160 379 162 393 c 1
 72 393 l 1
 72 478 l 1
 192 478 l 1
 211 511 238 539 270 561 c 1
 200 631 l 1
 261 691 l 1
 354 599 l 1
 373 604 393 606 414 606 c 0
 435 606 454 604 474 599 c 1
 567 691 l 1
 627 631 l 1
 558 561 l 1
 590 539 616 511 635 478 c 1
 755 478 l 1x7b
499 137 m 1
 499 222 l 1
 328 222 l 1
 328 137 l 1
 499 137 l 1
499 307 m 1
 499 393 l 1
 328 393 l 1
 328 307 l 1
 499 307 l 1
EndSplineSet
Validated: 1
EndChar

StartChar: section
Encoding: 167 167 132
Width: 828
Flags: W
HStem: -77 214<329.277 498.491> 51 86<72 162 666 755> 222 85<72 158 328 499 670 755> 393 85<72 162 666 755> 671 20G<240.667 281.217 546.783 587> 671 20G<240.667 281.217 546.783 587>
VStem: 158 170<137 222 307 393> 499 171<137 222 307 393>
LayerCount: 2
Fore
SplineSet
755 478 m 1x7b
 755 393 l 1
 666 393 l 1
 668 379 670 365 670 350 c 2
 670 307 l 1
 755 307 l 1
 755 222 l 1
 670 222 l 1
 670 179 l 2
 670 164 668 151 666 137 c 1
 755 137 l 1
 755 51 l 1
 635 51 l 1x7b
 591 -25 509 -77 414 -77 c 0xb3
 319 -77 236 -25 192 51 c 1
 72 51 l 1
 72 137 l 1
 162 137 l 1
 160 151 158 164 158 179 c 2
 158 222 l 1
 72 222 l 1
 72 307 l 1
 158 307 l 1
 158 350 l 2
 158 365 160 379 162 393 c 1
 72 393 l 1
 72 478 l 1
 192 478 l 1
 211 511 238 539 270 561 c 1
 200 631 l 1
 261 691 l 1
 354 599 l 1
 373 604 393 606 414 606 c 0
 435 606 454 604 474 599 c 1
 567 691 l 1
 627 631 l 1
 558 561 l 1
 590 539 616 511 635 478 c 1
 755 478 l 1x7b
499 137 m 1
 499 222 l 1
 328 222 l 1
 328 137 l 1
 499 137 l 1
499 307 m 1
 499 393 l 1
 328 393 l 1
 328 307 l 1
 499 307 l 1
EndSplineSet
Validated: 1
EndChar

StartChar: dieresis
Encoding: 168 168 133
Width: 828
Flags: W
HStem: -77 214<329.277 498.491> 51 86<72 162 666 755> 222 85<72 158 328 499 670 755> 393 85<72 162 666 755> 671 20G<240.667 281.217 546.783 587> 671 20G<240.667 281.217 546.783 587>
VStem: 158 170<137 222 307 393> 499 171<137 222 307 393>
LayerCount: 2
Fore
SplineSet
755 478 m 1x7b
 755 393 l 1
 666 393 l 1
 668 379 670 365 670 350 c 2
 670 307 l 1
 755 307 l 1
 755 222 l 1
 670 222 l 1
 670 179 l 2
 670 164 668 151 666 137 c 1
 755 137 l 1
 755 51 l 1
 635 51 l 1x7b
 591 -25 509 -77 414 -77 c 0xb3
 319 -77 236 -25 192 51 c 1
 72 51 l 1
 72 137 l 1
 162 137 l 1
 160 151 158 164 158 179 c 2
 158 222 l 1
 72 222 l 1
 72 307 l 1
 158 307 l 1
 158 350 l 2
 158 365 160 379 162 393 c 1
 72 393 l 1
 72 478 l 1
 192 478 l 1
 211 511 238 539 270 561 c 1
 200 631 l 1
 261 691 l 1
 354 599 l 1
 373 604 393 606 414 606 c 0
 435 606 454 604 474 599 c 1
 567 691 l 1
 627 631 l 1
 558 561 l 1
 590 539 616 511 635 478 c 1
 755 478 l 1x7b
499 137 m 1
 499 222 l 1
 328 222 l 1
 328 137 l 1
 499 137 l 1
499 307 m 1
 499 393 l 1
 328 393 l 1
 328 307 l 1
 499 307 l 1
EndSplineSet
Validated: 1
EndChar

StartChar: copyright
Encoding: 169 169 134
Width: 828
Flags: W
HStem: -77 214<329.277 498.491> 51 86<72 162 666 755> 222 85<72 158 328 499 670 755> 393 85<72 162 666 755> 671 20G<240.667 281.217 546.783 587> 671 20G<240.667 281.217 546.783 587>
VStem: 158 170<137 222 307 393> 499 171<137 222 307 393>
LayerCount: 2
Fore
SplineSet
755 478 m 1x7b
 755 393 l 1
 666 393 l 1
 668 379 670 365 670 350 c 2
 670 307 l 1
 755 307 l 1
 755 222 l 1
 670 222 l 1
 670 179 l 2
 670 164 668 151 666 137 c 1
 755 137 l 1
 755 51 l 1
 635 51 l 1x7b
 591 -25 509 -77 414 -77 c 0xb3
 319 -77 236 -25 192 51 c 1
 72 51 l 1
 72 137 l 1
 162 137 l 1
 160 151 158 164 158 179 c 2
 158 222 l 1
 72 222 l 1
 72 307 l 1
 158 307 l 1
 158 350 l 2
 158 365 160 379 162 393 c 1
 72 393 l 1
 72 478 l 1
 192 478 l 1
 211 511 238 539 270 561 c 1
 200 631 l 1
 261 691 l 1
 354 599 l 1
 373 604 393 606 414 606 c 0
 435 606 454 604 474 599 c 1
 567 691 l 1
 627 631 l 1
 558 561 l 1
 590 539 616 511 635 478 c 1
 755 478 l 1x7b
499 137 m 1
 499 222 l 1
 328 222 l 1
 328 137 l 1
 499 137 l 1
499 307 m 1
 499 393 l 1
 328 393 l 1
 328 307 l 1
 499 307 l 1
EndSplineSet
Validated: 1
EndChar

StartChar: ordfeminine
Encoding: 170 170 135
Width: 829
Flags: W
HStem: -77 214<328.509 497.723> 51 86<72 161 665 755> 222 85<72 157 328 499 669 755> 393 213<353.891 473.062> 393 85<72 161 665 755> 671 20G<240 280.217 546 586.333> 671 20G<240 280.217 546 586.333>
VStem: 157 171<137 222 307 393> 499 170<137 222 307 393>
LayerCount: 2
Fore
SplineSet
755 478 m 1x2d80
 755 393 l 1
 665 393 l 1
 667 379 669 365 669 350 c 2
 669 307 l 1
 755 307 l 1
 755 222 l 1
 669 222 l 1
 669 179 l 2
 669 164 667 151 665 137 c 1
 755 137 l 1
 755 51 l 1
 635 51 l 1x6d80
 591 -25 508 -77 413 -77 c 0xa180
 318 -77 236 -25 192 51 c 1
 72 51 l 1
 72 137 l 1
 161 137 l 1
 159 151 157 164 157 179 c 2
 157 222 l 1
 72 222 l 1
 72 307 l 1
 157 307 l 1
 157 350 l 2
 157 365 159 379 161 393 c 1
 72 393 l 1
 72 478 l 1
 192 478 l 1x6980
 211 511 237 539 269 561 c 1
 200 631 l 1
 260 691 l 1
 353 599 l 1
 372 604 392 606 413 606 c 0x3580
 434 606 454 604 474 599 c 1
 566 691 l 1
 627 631 l 1
 557 561 l 1
 589 539 616 511 635 478 c 1
 755 478 l 1x2d80
499 137 m 1
 499 222 l 1
 328 222 l 1
 328 137 l 1
 499 137 l 1
499 307 m 1
 499 393 l 1
 328 393 l 1
 328 307 l 1
 499 307 l 1
EndSplineSet
Validated: 1
EndChar

StartChar: guillemotleft
Encoding: 171 171 136
Width: 828
Flags: W
HStem: -77 214<329.277 498.491> 51 86<72 162 666 755> 222 85<72 158 328 499 670 755> 393 85<72 162 666 755> 671 20G<240.667 281.217 546.783 587> 671 20G<240.667 281.217 546.783 587>
VStem: 158 170<137 222 307 393> 499 171<137 222 307 393>
LayerCount: 2
Fore
SplineSet
755 478 m 1x7b
 755 393 l 1
 666 393 l 1
 668 379 670 365 670 350 c 2
 670 307 l 1
 755 307 l 1
 755 222 l 1
 670 222 l 1
 670 179 l 2
 670 164 668 151 666 137 c 1
 755 137 l 1
 755 51 l 1
 635 51 l 1x7b
 591 -25 509 -77 414 -77 c 0xb3
 319 -77 236 -25 192 51 c 1
 72 51 l 1
 72 137 l 1
 162 137 l 1
 160 151 158 164 158 179 c 2
 158 222 l 1
 72 222 l 1
 72 307 l 1
 158 307 l 1
 158 350 l 2
 158 365 160 379 162 393 c 1
 72 393 l 1
 72 478 l 1
 192 478 l 1
 211 511 238 539 270 561 c 1
 200 631 l 1
 261 691 l 1
 354 599 l 1
 373 604 393 606 414 606 c 0
 435 606 454 604 474 599 c 1
 567 691 l 1
 627 631 l 1
 558 561 l 1
 590 539 616 511 635 478 c 1
 755 478 l 1x7b
499 137 m 1
 499 222 l 1
 328 222 l 1
 328 137 l 1
 499 137 l 1
499 307 m 1
 499 393 l 1
 328 393 l 1
 328 307 l 1
 499 307 l 1
EndSplineSet
Validated: 1
EndChar

StartChar: logicalnot
Encoding: 172 172 137
Width: 828
Flags: W
HStem: -77 214<329.277 498.491> 51 86<72 162 666 755> 222 85<72 158 328 499 670 755> 393 85<72 162 666 755> 671 20G<240.667 281.217 546.783 587> 671 20G<240.667 281.217 546.783 587>
VStem: 158 170<137 222 307 393> 499 171<137 222 307 393>
LayerCount: 2
Fore
SplineSet
755 478 m 1x7b
 755 393 l 1
 666 393 l 1
 668 379 670 365 670 350 c 2
 670 307 l 1
 755 307 l 1
 755 222 l 1
 670 222 l 1
 670 179 l 2
 670 164 668 151 666 137 c 1
 755 137 l 1
 755 51 l 1
 635 51 l 1x7b
 591 -25 509 -77 414 -77 c 0xb3
 319 -77 236 -25 192 51 c 1
 72 51 l 1
 72 137 l 1
 162 137 l 1
 160 151 158 164 158 179 c 2
 158 222 l 1
 72 222 l 1
 72 307 l 1
 158 307 l 1
 158 350 l 2
 158 365 160 379 162 393 c 1
 72 393 l 1
 72 478 l 1
 192 478 l 1
 211 511 238 539 270 561 c 1
 200 631 l 1
 261 691 l 1
 354 599 l 1
 373 604 393 606 414 606 c 0
 435 606 454 604 474 599 c 1
 567 691 l 1
 627 631 l 1
 558 561 l 1
 590 539 616 511 635 478 c 1
 755 478 l 1x7b
499 137 m 1
 499 222 l 1
 328 222 l 1
 328 137 l 1
 499 137 l 1
499 307 m 1
 499 393 l 1
 328 393 l 1
 328 307 l 1
 499 307 l 1
EndSplineSet
Validated: 1
EndChar

StartChar: uni00AD
Encoding: 173 173 138
Width: 828
Flags: W
HStem: -77 214<329.277 498.491> 51 86<72 162 666 755> 222 85<72 158 328 499 670 755> 393 85<72 162 666 755> 671 20G<240.667 281.217 546.783 587> 671 20G<240.667 281.217 546.783 587>
VStem: 158 170<137 222 307 393> 499 171<137 222 307 393>
LayerCount: 2
Fore
SplineSet
755 478 m 1x7b
 755 393 l 1
 666 393 l 1
 668 379 670 365 670 350 c 2
 670 307 l 1
 755 307 l 1
 755 222 l 1
 670 222 l 1
 670 179 l 2
 670 164 668 151 666 137 c 1
 755 137 l 1
 755 51 l 1
 635 51 l 1x7b
 591 -25 509 -77 414 -77 c 0xb3
 319 -77 236 -25 192 51 c 1
 72 51 l 1
 72 137 l 1
 162 137 l 1
 160 151 158 164 158 179 c 2
 158 222 l 1
 72 222 l 1
 72 307 l 1
 158 307 l 1
 158 350 l 2
 158 365 160 379 162 393 c 1
 72 393 l 1
 72 478 l 1
 192 478 l 1
 211 511 238 539 270 561 c 1
 200 631 l 1
 261 691 l 1
 354 599 l 1
 373 604 393 606 414 606 c 0
 435 606 454 604 474 599 c 1
 567 691 l 1
 627 631 l 1
 558 561 l 1
 590 539 616 511 635 478 c 1
 755 478 l 1x7b
499 137 m 1
 499 222 l 1
 328 222 l 1
 328 137 l 1
 499 137 l 1
499 307 m 1
 499 393 l 1
 328 393 l 1
 328 307 l 1
 499 307 l 1
EndSplineSet
Validated: 1
EndChar

StartChar: registered
Encoding: 174 174 139
Width: 828
Flags: W
HStem: -77 214<329.277 498.491> 51 86<72 162 666 755> 222 85<72 158 328 499 670 755> 393 85<72 162 666 755> 671 20G<240.667 281.217 546.783 587> 671 20G<240.667 281.217 546.783 587>
VStem: 158 170<137 222 307 393> 499 171<137 222 307 393>
LayerCount: 2
Fore
SplineSet
755 478 m 1x7b
 755 393 l 1
 666 393 l 1
 668 379 670 365 670 350 c 2
 670 307 l 1
 755 307 l 1
 755 222 l 1
 670 222 l 1
 670 179 l 2
 670 164 668 151 666 137 c 1
 755 137 l 1
 755 51 l 1
 635 51 l 1x7b
 591 -25 509 -77 414 -77 c 0xb3
 319 -77 236 -25 192 51 c 1
 72 51 l 1
 72 137 l 1
 162 137 l 1
 160 151 158 164 158 179 c 2
 158 222 l 1
 72 222 l 1
 72 307 l 1
 158 307 l 1
 158 350 l 2
 158 365 160 379 162 393 c 1
 72 393 l 1
 72 478 l 1
 192 478 l 1
 211 511 238 539 270 561 c 1
 200 631 l 1
 261 691 l 1
 354 599 l 1
 373 604 393 606 414 606 c 0
 435 606 454 604 474 599 c 1
 567 691 l 1
 627 631 l 1
 558 561 l 1
 590 539 616 511 635 478 c 1
 755 478 l 1x7b
499 137 m 1
 499 222 l 1
 328 222 l 1
 328 137 l 1
 499 137 l 1
499 307 m 1
 499 393 l 1
 328 393 l 1
 328 307 l 1
 499 307 l 1
EndSplineSet
Validated: 1
EndChar

StartChar: macron
Encoding: 175 175 140
Width: 828
Flags: W
HStem: -77 214<329.277 498.491> 51 86<72 162 666 755> 222 85<72 158 328 499 670 755> 393 85<72 162 666 755> 671 20G<240.667 281.217 546.783 587> 671 20G<240.667 281.217 546.783 587>
VStem: 158 170<137 222 307 393> 499 171<137 222 307 393>
LayerCount: 2
Fore
SplineSet
755 478 m 1x7b
 755 393 l 1
 666 393 l 1
 668 379 670 365 670 350 c 2
 670 307 l 1
 755 307 l 1
 755 222 l 1
 670 222 l 1
 670 179 l 2
 670 164 668 151 666 137 c 1
 755 137 l 1
 755 51 l 1
 635 51 l 1x7b
 591 -25 509 -77 414 -77 c 0xb3
 319 -77 236 -25 192 51 c 1
 72 51 l 1
 72 137 l 1
 162 137 l 1
 160 151 158 164 158 179 c 2
 158 222 l 1
 72 222 l 1
 72 307 l 1
 158 307 l 1
 158 350 l 2
 158 365 160 379 162 393 c 1
 72 393 l 1
 72 478 l 1
 192 478 l 1
 211 511 238 539 270 561 c 1
 200 631 l 1
 261 691 l 1
 354 599 l 1
 373 604 393 606 414 606 c 0
 435 606 454 604 474 599 c 1
 567 691 l 1
 627 631 l 1
 558 561 l 1
 590 539 616 511 635 478 c 1
 755 478 l 1x7b
499 137 m 1
 499 222 l 1
 328 222 l 1
 328 137 l 1
 499 137 l 1
499 307 m 1
 499 393 l 1
 328 393 l 1
 328 307 l 1
 499 307 l 1
EndSplineSet
Validated: 1
EndChar

StartChar: degree
Encoding: 176 176 141
Width: 828
Flags: W
HStem: -77 214<329.277 498.491> 51 86<72 162 666 755> 222 85<72 158 328 499 670 755> 393 85<72 162 666 755> 671 20G<240.667 281.217 546.783 587> 671 20G<240.667 281.217 546.783 587>
VStem: 158 170<137 222 307 393> 499 171<137 222 307 393>
LayerCount: 2
Fore
SplineSet
755 478 m 1x7b
 755 393 l 1
 666 393 l 1
 668 379 670 365 670 350 c 2
 670 307 l 1
 755 307 l 1
 755 222 l 1
 670 222 l 1
 670 179 l 2
 670 164 668 151 666 137 c 1
 755 137 l 1
 755 51 l 1
 635 51 l 1x7b
 591 -25 509 -77 414 -77 c 0xb3
 319 -77 236 -25 192 51 c 1
 72 51 l 1
 72 137 l 1
 162 137 l 1
 160 151 158 164 158 179 c 2
 158 222 l 1
 72 222 l 1
 72 307 l 1
 158 307 l 1
 158 350 l 2
 158 365 160 379 162 393 c 1
 72 393 l 1
 72 478 l 1
 192 478 l 1
 211 511 238 539 270 561 c 1
 200 631 l 1
 261 691 l 1
 354 599 l 1
 373 604 393 606 414 606 c 0
 435 606 454 604 474 599 c 1
 567 691 l 1
 627 631 l 1
 558 561 l 1
 590 539 616 511 635 478 c 1
 755 478 l 1x7b
499 137 m 1
 499 222 l 1
 328 222 l 1
 328 137 l 1
 499 137 l 1
499 307 m 1
 499 393 l 1
 328 393 l 1
 328 307 l 1
 499 307 l 1
EndSplineSet
Validated: 1
EndChar

StartChar: plusminus
Encoding: 177 177 142
Width: 828
Flags: W
HStem: -77 214<329.277 498.491> 51 86<72 162 666 755> 222 85<72 158 328 499 670 755> 393 85<72 162 666 755> 671 20G<240.667 281.217 546.783 587> 671 20G<240.667 281.217 546.783 587>
VStem: 158 170<137 222 307 393> 499 171<137 222 307 393>
LayerCount: 2
Fore
SplineSet
755 478 m 1x7b
 755 393 l 1
 666 393 l 1
 668 379 670 365 670 350 c 2
 670 307 l 1
 755 307 l 1
 755 222 l 1
 670 222 l 1
 670 179 l 2
 670 164 668 151 666 137 c 1
 755 137 l 1
 755 51 l 1
 635 51 l 1x7b
 591 -25 509 -77 414 -77 c 0xb3
 319 -77 236 -25 192 51 c 1
 72 51 l 1
 72 137 l 1
 162 137 l 1
 160 151 158 164 158 179 c 2
 158 222 l 1
 72 222 l 1
 72 307 l 1
 158 307 l 1
 158 350 l 2
 158 365 160 379 162 393 c 1
 72 393 l 1
 72 478 l 1
 192 478 l 1
 211 511 238 539 270 561 c 1
 200 631 l 1
 261 691 l 1
 354 599 l 1
 373 604 393 606 414 606 c 0
 435 606 454 604 474 599 c 1
 567 691 l 1
 627 631 l 1
 558 561 l 1
 590 539 616 511 635 478 c 1
 755 478 l 1x7b
499 137 m 1
 499 222 l 1
 328 222 l 1
 328 137 l 1
 499 137 l 1
499 307 m 1
 499 393 l 1
 328 393 l 1
 328 307 l 1
 499 307 l 1
EndSplineSet
Validated: 1
EndChar

StartChar: uni00B2
Encoding: 178 178 143
Width: 828
Flags: W
HStem: -77 214<329.277 498.491> 51 86<72 162 666 755> 222 85<72 158 328 499 670 755> 393 85<72 162 666 755> 671 20G<240.667 281.217 546.783 587> 671 20G<240.667 281.217 546.783 587>
VStem: 158 170<137 222 307 393> 499 171<137 222 307 393>
LayerCount: 2
Fore
SplineSet
755 478 m 1x7b
 755 393 l 1
 666 393 l 1
 668 379 670 365 670 350 c 2
 670 307 l 1
 755 307 l 1
 755 222 l 1
 670 222 l 1
 670 179 l 2
 670 164 668 151 666 137 c 1
 755 137 l 1
 755 51 l 1
 635 51 l 1x7b
 591 -25 509 -77 414 -77 c 0xb3
 319 -77 236 -25 192 51 c 1
 72 51 l 1
 72 137 l 1
 162 137 l 1
 160 151 158 164 158 179 c 2
 158 222 l 1
 72 222 l 1
 72 307 l 1
 158 307 l 1
 158 350 l 2
 158 365 160 379 162 393 c 1
 72 393 l 1
 72 478 l 1
 192 478 l 1
 211 511 238 539 270 561 c 1
 200 631 l 1
 261 691 l 1
 354 599 l 1
 373 604 393 606 414 606 c 0
 435 606 454 604 474 599 c 1
 567 691 l 1
 627 631 l 1
 558 561 l 1
 590 539 616 511 635 478 c 1
 755 478 l 1x7b
499 137 m 1
 499 222 l 1
 328 222 l 1
 328 137 l 1
 499 137 l 1
499 307 m 1
 499 393 l 1
 328 393 l 1
 328 307 l 1
 499 307 l 1
EndSplineSet
Validated: 1
EndChar

StartChar: uni00B3
Encoding: 179 179 144
Width: 828
Flags: W
HStem: -77 214<329.277 498.491> 51 86<72 162 666 755> 222 85<72 158 328 499 670 755> 393 85<72 162 666 755> 671 20G<240.667 281.217 546.783 587> 671 20G<240.667 281.217 546.783 587>
VStem: 158 170<137 222 307 393> 499 171<137 222 307 393>
LayerCount: 2
Fore
SplineSet
755 478 m 1x7b
 755 393 l 1
 666 393 l 1
 668 379 670 365 670 350 c 2
 670 307 l 1
 755 307 l 1
 755 222 l 1
 670 222 l 1
 670 179 l 2
 670 164 668 151 666 137 c 1
 755 137 l 1
 755 51 l 1
 635 51 l 1x7b
 591 -25 509 -77 414 -77 c 0xb3
 319 -77 236 -25 192 51 c 1
 72 51 l 1
 72 137 l 1
 162 137 l 1
 160 151 158 164 158 179 c 2
 158 222 l 1
 72 222 l 1
 72 307 l 1
 158 307 l 1
 158 350 l 2
 158 365 160 379 162 393 c 1
 72 393 l 1
 72 478 l 1
 192 478 l 1
 211 511 238 539 270 561 c 1
 200 631 l 1
 261 691 l 1
 354 599 l 1
 373 604 393 606 414 606 c 0
 435 606 454 604 474 599 c 1
 567 691 l 1
 627 631 l 1
 558 561 l 1
 590 539 616 511 635 478 c 1
 755 478 l 1x7b
499 137 m 1
 499 222 l 1
 328 222 l 1
 328 137 l 1
 499 137 l 1
499 307 m 1
 499 393 l 1
 328 393 l 1
 328 307 l 1
 499 307 l 1
EndSplineSet
Validated: 1
EndChar

StartChar: acute
Encoding: 180 180 145
Width: 828
Flags: W
HStem: -77 214<329.277 498.491> 51 86<72 162 666 755> 222 85<72 158 328 499 670 755> 393 85<72 162 666 755> 671 20G<240.667 281.217 546.783 587> 671 20G<240.667 281.217 546.783 587>
VStem: 158 170<137 222 307 393> 499 171<137 222 307 393>
LayerCount: 2
Fore
SplineSet
755 478 m 1x7b
 755 393 l 1
 666 393 l 1
 668 379 670 365 670 350 c 2
 670 307 l 1
 755 307 l 1
 755 222 l 1
 670 222 l 1
 670 179 l 2
 670 164 668 151 666 137 c 1
 755 137 l 1
 755 51 l 1
 635 51 l 1x7b
 591 -25 509 -77 414 -77 c 0xb3
 319 -77 236 -25 192 51 c 1
 72 51 l 1
 72 137 l 1
 162 137 l 1
 160 151 158 164 158 179 c 2
 158 222 l 1
 72 222 l 1
 72 307 l 1
 158 307 l 1
 158 350 l 2
 158 365 160 379 162 393 c 1
 72 393 l 1
 72 478 l 1
 192 478 l 1
 211 511 238 539 270 561 c 1
 200 631 l 1
 261 691 l 1
 354 599 l 1
 373 604 393 606 414 606 c 0
 435 606 454 604 474 599 c 1
 567 691 l 1
 627 631 l 1
 558 561 l 1
 590 539 616 511 635 478 c 1
 755 478 l 1x7b
499 137 m 1
 499 222 l 1
 328 222 l 1
 328 137 l 1
 499 137 l 1
499 307 m 1
 499 393 l 1
 328 393 l 1
 328 307 l 1
 499 307 l 1
EndSplineSet
Validated: 1
EndChar

StartChar: mu
Encoding: 181 181 146
Width: 828
Flags: W
HStem: -77 214<329.277 498.491> 51 86<72 162 666 755> 222 85<72 158 328 499 670 755> 393 85<72 162 666 755> 671 20G<240.667 281.217 546.783 587> 671 20G<240.667 281.217 546.783 587>
VStem: 158 170<137 222 307 393> 499 171<137 222 307 393>
LayerCount: 2
Fore
SplineSet
755 478 m 1x7b
 755 393 l 1
 666 393 l 1
 668 379 670 365 670 350 c 2
 670 307 l 1
 755 307 l 1
 755 222 l 1
 670 222 l 1
 670 179 l 2
 670 164 668 151 666 137 c 1
 755 137 l 1
 755 51 l 1
 635 51 l 1x7b
 591 -25 509 -77 414 -77 c 0xb3
 319 -77 236 -25 192 51 c 1
 72 51 l 1
 72 137 l 1
 162 137 l 1
 160 151 158 164 158 179 c 2
 158 222 l 1
 72 222 l 1
 72 307 l 1
 158 307 l 1
 158 350 l 2
 158 365 160 379 162 393 c 1
 72 393 l 1
 72 478 l 1
 192 478 l 1
 211 511 238 539 270 561 c 1
 200 631 l 1
 261 691 l 1
 354 599 l 1
 373 604 393 606 414 606 c 0
 435 606 454 604 474 599 c 1
 567 691 l 1
 627 631 l 1
 558 561 l 1
 590 539 616 511 635 478 c 1
 755 478 l 1x7b
499 137 m 1
 499 222 l 1
 328 222 l 1
 328 137 l 1
 499 137 l 1
499 307 m 1
 499 393 l 1
 328 393 l 1
 328 307 l 1
 499 307 l 1
EndSplineSet
Validated: 1
EndChar

StartChar: paragraph
Encoding: 182 182 147
Width: 828
Flags: W
HStem: -77 214<329.277 498.491> 51 86<72 162 666 755> 222 85<72 158 328 499 670 755> 393 85<72 162 666 755> 671 20G<240.667 281.217 546.783 587> 671 20G<240.667 281.217 546.783 587>
VStem: 158 170<137 222 307 393> 499 171<137 222 307 393>
LayerCount: 2
Fore
SplineSet
755 478 m 1x7b
 755 393 l 1
 666 393 l 1
 668 379 670 365 670 350 c 2
 670 307 l 1
 755 307 l 1
 755 222 l 1
 670 222 l 1
 670 179 l 2
 670 164 668 151 666 137 c 1
 755 137 l 1
 755 51 l 1
 635 51 l 1x7b
 591 -25 509 -77 414 -77 c 0xb3
 319 -77 236 -25 192 51 c 1
 72 51 l 1
 72 137 l 1
 162 137 l 1
 160 151 158 164 158 179 c 2
 158 222 l 1
 72 222 l 1
 72 307 l 1
 158 307 l 1
 158 350 l 2
 158 365 160 379 162 393 c 1
 72 393 l 1
 72 478 l 1
 192 478 l 1
 211 511 238 539 270 561 c 1
 200 631 l 1
 261 691 l 1
 354 599 l 1
 373 604 393 606 414 606 c 0
 435 606 454 604 474 599 c 1
 567 691 l 1
 627 631 l 1
 558 561 l 1
 590 539 616 511 635 478 c 1
 755 478 l 1x7b
499 137 m 1
 499 222 l 1
 328 222 l 1
 328 137 l 1
 499 137 l 1
499 307 m 1
 499 393 l 1
 328 393 l 1
 328 307 l 1
 499 307 l 1
EndSplineSet
Validated: 1
EndChar

StartChar: periodcentered
Encoding: 183 183 148
Width: 828
Flags: W
HStem: -77 214<329.277 498.491> 51 86<72 162 666 755> 222 85<72 158 328 499 670 755> 393 85<72 162 666 755> 671 20G<240.667 281.217 546.783 587> 671 20G<240.667 281.217 546.783 587>
VStem: 158 170<137 222 307 393> 499 171<137 222 307 393>
LayerCount: 2
Fore
SplineSet
755 478 m 1x7b
 755 393 l 1
 666 393 l 1
 668 379 670 365 670 350 c 2
 670 307 l 1
 755 307 l 1
 755 222 l 1
 670 222 l 1
 670 179 l 2
 670 164 668 151 666 137 c 1
 755 137 l 1
 755 51 l 1
 635 51 l 1x7b
 591 -25 509 -77 414 -77 c 0xb3
 319 -77 236 -25 192 51 c 1
 72 51 l 1
 72 137 l 1
 162 137 l 1
 160 151 158 164 158 179 c 2
 158 222 l 1
 72 222 l 1
 72 307 l 1
 158 307 l 1
 158 350 l 2
 158 365 160 379 162 393 c 1
 72 393 l 1
 72 478 l 1
 192 478 l 1
 211 511 238 539 270 561 c 1
 200 631 l 1
 261 691 l 1
 354 599 l 1
 373 604 393 606 414 606 c 0
 435 606 454 604 474 599 c 1
 567 691 l 1
 627 631 l 1
 558 561 l 1
 590 539 616 511 635 478 c 1
 755 478 l 1x7b
499 137 m 1
 499 222 l 1
 328 222 l 1
 328 137 l 1
 499 137 l 1
499 307 m 1
 499 393 l 1
 328 393 l 1
 328 307 l 1
 499 307 l 1
EndSplineSet
Validated: 1
EndChar

StartChar: cedilla
Encoding: 184 184 149
Width: 828
Flags: W
HStem: -77 214<329.277 498.491> 51 86<72 162 666 755> 222 85<72 158 328 499 670 755> 393 85<72 162 666 755> 671 20G<240.667 281.217 546.783 587> 671 20G<240.667 281.217 546.783 587>
VStem: 158 170<137 222 307 393> 499 171<137 222 307 393>
LayerCount: 2
Fore
SplineSet
755 478 m 1x7b
 755 393 l 1
 666 393 l 1
 668 379 670 365 670 350 c 2
 670 307 l 1
 755 307 l 1
 755 222 l 1
 670 222 l 1
 670 179 l 2
 670 164 668 151 666 137 c 1
 755 137 l 1
 755 51 l 1
 635 51 l 1x7b
 591 -25 509 -77 414 -77 c 0xb3
 319 -77 236 -25 192 51 c 1
 72 51 l 1
 72 137 l 1
 162 137 l 1
 160 151 158 164 158 179 c 2
 158 222 l 1
 72 222 l 1
 72 307 l 1
 158 307 l 1
 158 350 l 2
 158 365 160 379 162 393 c 1
 72 393 l 1
 72 478 l 1
 192 478 l 1
 211 511 238 539 270 561 c 1
 200 631 l 1
 261 691 l 1
 354 599 l 1
 373 604 393 606 414 606 c 0
 435 606 454 604 474 599 c 1
 567 691 l 1
 627 631 l 1
 558 561 l 1
 590 539 616 511 635 478 c 1
 755 478 l 1x7b
499 137 m 1
 499 222 l 1
 328 222 l 1
 328 137 l 1
 499 137 l 1
499 307 m 1
 499 393 l 1
 328 393 l 1
 328 307 l 1
 499 307 l 1
EndSplineSet
Validated: 1
EndChar

StartChar: uni00B9
Encoding: 185 185 150
Width: 828
Flags: W
HStem: -77 214<329.277 498.491> 51 86<72 162 666 755> 222 85<72 158 328 499 670 755> 393 85<72 162 666 755> 671 20G<240.667 281.217 546.783 587> 671 20G<240.667 281.217 546.783 587>
VStem: 158 170<137 222 307 393> 499 171<137 222 307 393>
LayerCount: 2
Fore
SplineSet
755 478 m 1x7b
 755 393 l 1
 666 393 l 1
 668 379 670 365 670 350 c 2
 670 307 l 1
 755 307 l 1
 755 222 l 1
 670 222 l 1
 670 179 l 2
 670 164 668 151 666 137 c 1
 755 137 l 1
 755 51 l 1
 635 51 l 1x7b
 591 -25 509 -77 414 -77 c 0xb3
 319 -77 236 -25 192 51 c 1
 72 51 l 1
 72 137 l 1
 162 137 l 1
 160 151 158 164 158 179 c 2
 158 222 l 1
 72 222 l 1
 72 307 l 1
 158 307 l 1
 158 350 l 2
 158 365 160 379 162 393 c 1
 72 393 l 1
 72 478 l 1
 192 478 l 1
 211 511 238 539 270 561 c 1
 200 631 l 1
 261 691 l 1
 354 599 l 1
 373 604 393 606 414 606 c 0
 435 606 454 604 474 599 c 1
 567 691 l 1
 627 631 l 1
 558 561 l 1
 590 539 616 511 635 478 c 1
 755 478 l 1x7b
499 137 m 1
 499 222 l 1
 328 222 l 1
 328 137 l 1
 499 137 l 1
499 307 m 1
 499 393 l 1
 328 393 l 1
 328 307 l 1
 499 307 l 1
EndSplineSet
Validated: 1
EndChar

StartChar: ordmasculine
Encoding: 186 186 151
Width: 829
Flags: W
HStem: -77 214<328.509 497.723> 51 86<72 161 665 755> 222 85<72 157 328 499 669 755> 393 213<353.891 473.062> 393 85<72 161 665 755> 671 20G<240 280.217 546 586.333> 671 20G<240 280.217 546 586.333>
VStem: 157 171<137 222 307 393> 499 170<137 222 307 393>
LayerCount: 2
Fore
SplineSet
755 478 m 1x2d80
 755 393 l 1
 665 393 l 1
 667 379 669 365 669 350 c 2
 669 307 l 1
 755 307 l 1
 755 222 l 1
 669 222 l 1
 669 179 l 2
 669 164 667 151 665 137 c 1
 755 137 l 1
 755 51 l 1
 635 51 l 1x6d80
 591 -25 508 -77 413 -77 c 0xa180
 318 -77 236 -25 192 51 c 1
 72 51 l 1
 72 137 l 1
 161 137 l 1
 159 151 157 164 157 179 c 2
 157 222 l 1
 72 222 l 1
 72 307 l 1
 157 307 l 1
 157 350 l 2
 157 365 159 379 161 393 c 1
 72 393 l 1
 72 478 l 1
 192 478 l 1x6980
 211 511 237 539 269 561 c 1
 200 631 l 1
 260 691 l 1
 353 599 l 1
 372 604 392 606 413 606 c 0x3580
 434 606 454 604 474 599 c 1
 566 691 l 1
 627 631 l 1
 557 561 l 1
 589 539 616 511 635 478 c 1
 755 478 l 1x2d80
499 137 m 1
 499 222 l 1
 328 222 l 1
 328 137 l 1
 499 137 l 1
499 307 m 1
 499 393 l 1
 328 393 l 1
 328 307 l 1
 499 307 l 1
EndSplineSet
Validated: 1
EndChar

StartChar: guillemotright
Encoding: 187 187 152
Width: 828
Flags: W
HStem: -77 214<329.277 498.491> 51 86<72 162 666 755> 222 85<72 158 328 499 670 755> 393 85<72 162 666 755> 671 20G<240.667 281.217 546.783 587> 671 20G<240.667 281.217 546.783 587>
VStem: 158 170<137 222 307 393> 499 171<137 222 307 393>
LayerCount: 2
Fore
SplineSet
755 478 m 1x7b
 755 393 l 1
 666 393 l 1
 668 379 670 365 670 350 c 2
 670 307 l 1
 755 307 l 1
 755 222 l 1
 670 222 l 1
 670 179 l 2
 670 164 668 151 666 137 c 1
 755 137 l 1
 755 51 l 1
 635 51 l 1x7b
 591 -25 509 -77 414 -77 c 0xb3
 319 -77 236 -25 192 51 c 1
 72 51 l 1
 72 137 l 1
 162 137 l 1
 160 151 158 164 158 179 c 2
 158 222 l 1
 72 222 l 1
 72 307 l 1
 158 307 l 1
 158 350 l 2
 158 365 160 379 162 393 c 1
 72 393 l 1
 72 478 l 1
 192 478 l 1
 211 511 238 539 270 561 c 1
 200 631 l 1
 261 691 l 1
 354 599 l 1
 373 604 393 606 414 606 c 0
 435 606 454 604 474 599 c 1
 567 691 l 1
 627 631 l 1
 558 561 l 1
 590 539 616 511 635 478 c 1
 755 478 l 1x7b
499 137 m 1
 499 222 l 1
 328 222 l 1
 328 137 l 1
 499 137 l 1
499 307 m 1
 499 393 l 1
 328 393 l 1
 328 307 l 1
 499 307 l 1
EndSplineSet
Validated: 1
EndChar

StartChar: onequarter
Encoding: 188 188 153
Width: 828
Flags: W
HStem: -77 214<329.277 498.491> 51 86<72 162 666 755> 222 85<72 158 328 499 670 755> 393 85<72 162 666 755> 671 20G<240.667 281.217 546.783 587> 671 20G<240.667 281.217 546.783 587>
VStem: 158 170<137 222 307 393> 499 171<137 222 307 393>
LayerCount: 2
Fore
SplineSet
755 478 m 1x7b
 755 393 l 1
 666 393 l 1
 668 379 670 365 670 350 c 2
 670 307 l 1
 755 307 l 1
 755 222 l 1
 670 222 l 1
 670 179 l 2
 670 164 668 151 666 137 c 1
 755 137 l 1
 755 51 l 1
 635 51 l 1x7b
 591 -25 509 -77 414 -77 c 0xb3
 319 -77 236 -25 192 51 c 1
 72 51 l 1
 72 137 l 1
 162 137 l 1
 160 151 158 164 158 179 c 2
 158 222 l 1
 72 222 l 1
 72 307 l 1
 158 307 l 1
 158 350 l 2
 158 365 160 379 162 393 c 1
 72 393 l 1
 72 478 l 1
 192 478 l 1
 211 511 238 539 270 561 c 1
 200 631 l 1
 261 691 l 1
 354 599 l 1
 373 604 393 606 414 606 c 0
 435 606 454 604 474 599 c 1
 567 691 l 1
 627 631 l 1
 558 561 l 1
 590 539 616 511 635 478 c 1
 755 478 l 1x7b
499 137 m 1
 499 222 l 1
 328 222 l 1
 328 137 l 1
 499 137 l 1
499 307 m 1
 499 393 l 1
 328 393 l 1
 328 307 l 1
 499 307 l 1
EndSplineSet
Validated: 1
EndChar

StartChar: onehalf
Encoding: 189 189 154
Width: 828
Flags: W
HStem: -77 214<329.277 498.491> 51 86<72 162 666 755> 222 85<72 158 328 499 670 755> 393 85<72 162 666 755> 671 20G<240.667 281.217 546.783 587> 671 20G<240.667 281.217 546.783 587>
VStem: 158 170<137 222 307 393> 499 171<137 222 307 393>
LayerCount: 2
Fore
SplineSet
755 478 m 1x7b
 755 393 l 1
 666 393 l 1
 668 379 670 365 670 350 c 2
 670 307 l 1
 755 307 l 1
 755 222 l 1
 670 222 l 1
 670 179 l 2
 670 164 668 151 666 137 c 1
 755 137 l 1
 755 51 l 1
 635 51 l 1x7b
 591 -25 509 -77 414 -77 c 0xb3
 319 -77 236 -25 192 51 c 1
 72 51 l 1
 72 137 l 1
 162 137 l 1
 160 151 158 164 158 179 c 2
 158 222 l 1
 72 222 l 1
 72 307 l 1
 158 307 l 1
 158 350 l 2
 158 365 160 379 162 393 c 1
 72 393 l 1
 72 478 l 1
 192 478 l 1
 211 511 238 539 270 561 c 1
 200 631 l 1
 261 691 l 1
 354 599 l 1
 373 604 393 606 414 606 c 0
 435 606 454 604 474 599 c 1
 567 691 l 1
 627 631 l 1
 558 561 l 1
 590 539 616 511 635 478 c 1
 755 478 l 1x7b
499 137 m 1
 499 222 l 1
 328 222 l 1
 328 137 l 1
 499 137 l 1
499 307 m 1
 499 393 l 1
 328 393 l 1
 328 307 l 1
 499 307 l 1
EndSplineSet
Validated: 1
EndChar

StartChar: threequarters
Encoding: 190 190 155
Width: 828
Flags: W
HStem: -77 214<329.277 498.491> 51 86<72 162 666 755> 222 85<72 158 328 499 670 755> 393 85<72 162 666 755> 671 20G<240.667 281.217 546.783 587> 671 20G<240.667 281.217 546.783 587>
VStem: 158 170<137 222 307 393> 499 171<137 222 307 393>
LayerCount: 2
Fore
SplineSet
755 478 m 1x7b
 755 393 l 1
 666 393 l 1
 668 379 670 365 670 350 c 2
 670 307 l 1
 755 307 l 1
 755 222 l 1
 670 222 l 1
 670 179 l 2
 670 164 668 151 666 137 c 1
 755 137 l 1
 755 51 l 1
 635 51 l 1x7b
 591 -25 509 -77 414 -77 c 0xb3
 319 -77 236 -25 192 51 c 1
 72 51 l 1
 72 137 l 1
 162 137 l 1
 160 151 158 164 158 179 c 2
 158 222 l 1
 72 222 l 1
 72 307 l 1
 158 307 l 1
 158 350 l 2
 158 365 160 379 162 393 c 1
 72 393 l 1
 72 478 l 1
 192 478 l 1
 211 511 238 539 270 561 c 1
 200 631 l 1
 261 691 l 1
 354 599 l 1
 373 604 393 606 414 606 c 0
 435 606 454 604 474 599 c 1
 567 691 l 1
 627 631 l 1
 558 561 l 1
 590 539 616 511 635 478 c 1
 755 478 l 1x7b
499 137 m 1
 499 222 l 1
 328 222 l 1
 328 137 l 1
 499 137 l 1
499 307 m 1
 499 393 l 1
 328 393 l 1
 328 307 l 1
 499 307 l 1
EndSplineSet
Validated: 1
EndChar

StartChar: questiondown
Encoding: 191 191 156
Width: 828
Flags: W
HStem: -77 214<329.277 498.491> 51 86<72 162 666 755> 222 85<72 158 328 499 670 755> 393 85<72 162 666 755> 671 20G<240.667 281.217 546.783 587> 671 20G<240.667 281.217 546.783 587>
VStem: 158 170<137 222 307 393> 499 171<137 222 307 393>
LayerCount: 2
Fore
SplineSet
755 478 m 1x7b
 755 393 l 1
 666 393 l 1
 668 379 670 365 670 350 c 2
 670 307 l 1
 755 307 l 1
 755 222 l 1
 670 222 l 1
 670 179 l 2
 670 164 668 151 666 137 c 1
 755 137 l 1
 755 51 l 1
 635 51 l 1x7b
 591 -25 509 -77 414 -77 c 0xb3
 319 -77 236 -25 192 51 c 1
 72 51 l 1
 72 137 l 1
 162 137 l 1
 160 151 158 164 158 179 c 2
 158 222 l 1
 72 222 l 1
 72 307 l 1
 158 307 l 1
 158 350 l 2
 158 365 160 379 162 393 c 1
 72 393 l 1
 72 478 l 1
 192 478 l 1
 211 511 238 539 270 561 c 1
 200 631 l 1
 261 691 l 1
 354 599 l 1
 373 604 393 606 414 606 c 0
 435 606 454 604 474 599 c 1
 567 691 l 1
 627 631 l 1
 558 561 l 1
 590 539 616 511 635 478 c 1
 755 478 l 1x7b
499 137 m 1
 499 222 l 1
 328 222 l 1
 328 137 l 1
 499 137 l 1
499 307 m 1
 499 393 l 1
 328 393 l 1
 328 307 l 1
 499 307 l 1
EndSplineSet
Validated: 1
EndChar

StartChar: Agrave
Encoding: 192 192 157
Width: 829
Flags: W
HStem: -77 214<328.509 497.723> 51 86<72 161 665 755> 222 85<72 157 328 499 669 755> 393 213<353.891 473.062> 393 85<72 161 665 755> 671 20G<240 280.217 546 586.333> 671 20G<240 280.217 546 586.333>
VStem: 157 171<137 222 307 393> 499 170<137 222 307 393>
LayerCount: 2
Fore
SplineSet
755 478 m 1x2d80
 755 393 l 1
 665 393 l 1
 667 379 669 365 669 350 c 2
 669 307 l 1
 755 307 l 1
 755 222 l 1
 669 222 l 1
 669 179 l 2
 669 164 667 151 665 137 c 1
 755 137 l 1
 755 51 l 1
 635 51 l 1x6d80
 591 -25 508 -77 413 -77 c 0xa180
 318 -77 236 -25 192 51 c 1
 72 51 l 1
 72 137 l 1
 161 137 l 1
 159 151 157 164 157 179 c 2
 157 222 l 1
 72 222 l 1
 72 307 l 1
 157 307 l 1
 157 350 l 2
 157 365 159 379 161 393 c 1
 72 393 l 1
 72 478 l 1
 192 478 l 1x6980
 211 511 237 539 269 561 c 1
 200 631 l 1
 260 691 l 1
 353 599 l 1
 372 604 392 606 413 606 c 0x3580
 434 606 454 604 474 599 c 1
 566 691 l 1
 627 631 l 1
 557 561 l 1
 589 539 616 511 635 478 c 1
 755 478 l 1x2d80
499 137 m 1
 499 222 l 1
 328 222 l 1
 328 137 l 1
 499 137 l 1
499 307 m 1
 499 393 l 1
 328 393 l 1
 328 307 l 1
 499 307 l 1
EndSplineSet
Validated: 1
EndChar

StartChar: Aacute
Encoding: 193 193 158
Width: 829
Flags: W
HStem: -77 214<328.509 497.723> 51 86<72 161 665 755> 222 85<72 157 328 499 669 755> 393 213<353.891 473.062> 393 85<72 161 665 755> 671 20G<240 280.217 546 586.333> 671 20G<240 280.217 546 586.333>
VStem: 157 171<137 222 307 393> 499 170<137 222 307 393>
LayerCount: 2
Fore
SplineSet
755 478 m 1x2d80
 755 393 l 1
 665 393 l 1
 667 379 669 365 669 350 c 2
 669 307 l 1
 755 307 l 1
 755 222 l 1
 669 222 l 1
 669 179 l 2
 669 164 667 151 665 137 c 1
 755 137 l 1
 755 51 l 1
 635 51 l 1x6d80
 591 -25 508 -77 413 -77 c 0xa180
 318 -77 236 -25 192 51 c 1
 72 51 l 1
 72 137 l 1
 161 137 l 1
 159 151 157 164 157 179 c 2
 157 222 l 1
 72 222 l 1
 72 307 l 1
 157 307 l 1
 157 350 l 2
 157 365 159 379 161 393 c 1
 72 393 l 1
 72 478 l 1
 192 478 l 1x6980
 211 511 237 539 269 561 c 1
 200 631 l 1
 260 691 l 1
 353 599 l 1
 372 604 392 606 413 606 c 0x3580
 434 606 454 604 474 599 c 1
 566 691 l 1
 627 631 l 1
 557 561 l 1
 589 539 616 511 635 478 c 1
 755 478 l 1x2d80
499 137 m 1
 499 222 l 1
 328 222 l 1
 328 137 l 1
 499 137 l 1
499 307 m 1
 499 393 l 1
 328 393 l 1
 328 307 l 1
 499 307 l 1
EndSplineSet
Validated: 1
EndChar

StartChar: Acircumflex
Encoding: 194 194 159
Width: 829
Flags: W
HStem: -77 214<328.509 497.723> 51 86<72 161 665 755> 222 85<72 157 328 499 669 755> 393 213<353.891 473.062> 393 85<72 161 665 755> 671 20G<240 280.217 546 586.333> 671 20G<240 280.217 546 586.333>
VStem: 157 171<137 222 307 393> 499 170<137 222 307 393>
LayerCount: 2
Fore
SplineSet
755 478 m 1x2d80
 755 393 l 1
 665 393 l 1
 667 379 669 365 669 350 c 2
 669 307 l 1
 755 307 l 1
 755 222 l 1
 669 222 l 1
 669 179 l 2
 669 164 667 151 665 137 c 1
 755 137 l 1
 755 51 l 1
 635 51 l 1x6d80
 591 -25 508 -77 413 -77 c 0xa180
 318 -77 236 -25 192 51 c 1
 72 51 l 1
 72 137 l 1
 161 137 l 1
 159 151 157 164 157 179 c 2
 157 222 l 1
 72 222 l 1
 72 307 l 1
 157 307 l 1
 157 350 l 2
 157 365 159 379 161 393 c 1
 72 393 l 1
 72 478 l 1
 192 478 l 1x6980
 211 511 237 539 269 561 c 1
 200 631 l 1
 260 691 l 1
 353 599 l 1
 372 604 392 606 413 606 c 0x3580
 434 606 454 604 474 599 c 1
 566 691 l 1
 627 631 l 1
 557 561 l 1
 589 539 616 511 635 478 c 1
 755 478 l 1x2d80
499 137 m 1
 499 222 l 1
 328 222 l 1
 328 137 l 1
 499 137 l 1
499 307 m 1
 499 393 l 1
 328 393 l 1
 328 307 l 1
 499 307 l 1
EndSplineSet
Validated: 1
EndChar

StartChar: Atilde
Encoding: 195 195 160
Width: 829
Flags: W
HStem: -77 214<328.509 497.723> 51 86<72 161 665 755> 222 85<72 157 328 499 669 755> 393 213<353.891 473.062> 393 85<72 161 665 755> 671 20G<240 280.217 546 586.333> 671 20G<240 280.217 546 586.333>
VStem: 157 171<137 222 307 393> 499 170<137 222 307 393>
LayerCount: 2
Fore
SplineSet
755 478 m 1x2d80
 755 393 l 1
 665 393 l 1
 667 379 669 365 669 350 c 2
 669 307 l 1
 755 307 l 1
 755 222 l 1
 669 222 l 1
 669 179 l 2
 669 164 667 151 665 137 c 1
 755 137 l 1
 755 51 l 1
 635 51 l 1x6d80
 591 -25 508 -77 413 -77 c 0xa180
 318 -77 236 -25 192 51 c 1
 72 51 l 1
 72 137 l 1
 161 137 l 1
 159 151 157 164 157 179 c 2
 157 222 l 1
 72 222 l 1
 72 307 l 1
 157 307 l 1
 157 350 l 2
 157 365 159 379 161 393 c 1
 72 393 l 1
 72 478 l 1
 192 478 l 1x6980
 211 511 237 539 269 561 c 1
 200 631 l 1
 260 691 l 1
 353 599 l 1
 372 604 392 606 413 606 c 0x3580
 434 606 454 604 474 599 c 1
 566 691 l 1
 627 631 l 1
 557 561 l 1
 589 539 616 511 635 478 c 1
 755 478 l 1x2d80
499 137 m 1
 499 222 l 1
 328 222 l 1
 328 137 l 1
 499 137 l 1
499 307 m 1
 499 393 l 1
 328 393 l 1
 328 307 l 1
 499 307 l 1
EndSplineSet
Validated: 1
EndChar

StartChar: Adieresis
Encoding: 196 196 161
Width: 829
Flags: W
HStem: -77 214<328.509 497.723> 51 86<72 161 665 755> 222 85<72 157 328 499 669 755> 393 213<353.891 473.062> 393 85<72 161 665 755> 671 20G<240 280.217 546 586.333> 671 20G<240 280.217 546 586.333>
VStem: 157 171<137 222 307 393> 499 170<137 222 307 393>
LayerCount: 2
Fore
SplineSet
755 478 m 1x2d80
 755 393 l 1
 665 393 l 1
 667 379 669 365 669 350 c 2
 669 307 l 1
 755 307 l 1
 755 222 l 1
 669 222 l 1
 669 179 l 2
 669 164 667 151 665 137 c 1
 755 137 l 1
 755 51 l 1
 635 51 l 1x6d80
 591 -25 508 -77 413 -77 c 0xa180
 318 -77 236 -25 192 51 c 1
 72 51 l 1
 72 137 l 1
 161 137 l 1
 159 151 157 164 157 179 c 2
 157 222 l 1
 72 222 l 1
 72 307 l 1
 157 307 l 1
 157 350 l 2
 157 365 159 379 161 393 c 1
 72 393 l 1
 72 478 l 1
 192 478 l 1x6980
 211 511 237 539 269 561 c 1
 200 631 l 1
 260 691 l 1
 353 599 l 1
 372 604 392 606 413 606 c 0x3580
 434 606 454 604 474 599 c 1
 566 691 l 1
 627 631 l 1
 557 561 l 1
 589 539 616 511 635 478 c 1
 755 478 l 1x2d80
499 137 m 1
 499 222 l 1
 328 222 l 1
 328 137 l 1
 499 137 l 1
499 307 m 1
 499 393 l 1
 328 393 l 1
 328 307 l 1
 499 307 l 1
EndSplineSet
Validated: 1
EndChar

StartChar: Aring
Encoding: 197 197 162
Width: 829
Flags: W
HStem: -77 214<328.509 497.723> 51 86<72 161 665 755> 222 85<72 157 328 499 669 755> 393 213<353.891 473.062> 393 85<72 161 665 755> 671 20G<240 280.217 546 586.333> 671 20G<240 280.217 546 586.333>
VStem: 157 171<137 222 307 393> 499 170<137 222 307 393>
LayerCount: 2
Fore
SplineSet
755 478 m 1x2d80
 755 393 l 1
 665 393 l 1
 667 379 669 365 669 350 c 2
 669 307 l 1
 755 307 l 1
 755 222 l 1
 669 222 l 1
 669 179 l 2
 669 164 667 151 665 137 c 1
 755 137 l 1
 755 51 l 1
 635 51 l 1x6d80
 591 -25 508 -77 413 -77 c 0xa180
 318 -77 236 -25 192 51 c 1
 72 51 l 1
 72 137 l 1
 161 137 l 1
 159 151 157 164 157 179 c 2
 157 222 l 1
 72 222 l 1
 72 307 l 1
 157 307 l 1
 157 350 l 2
 157 365 159 379 161 393 c 1
 72 393 l 1
 72 478 l 1
 192 478 l 1x6980
 211 511 237 539 269 561 c 1
 200 631 l 1
 260 691 l 1
 353 599 l 1
 372 604 392 606 413 606 c 0x3580
 434 606 454 604 474 599 c 1
 566 691 l 1
 627 631 l 1
 557 561 l 1
 589 539 616 511 635 478 c 1
 755 478 l 1x2d80
499 137 m 1
 499 222 l 1
 328 222 l 1
 328 137 l 1
 499 137 l 1
499 307 m 1
 499 393 l 1
 328 393 l 1
 328 307 l 1
 499 307 l 1
EndSplineSet
Validated: 1
EndChar

StartChar: AE
Encoding: 198 198 163
Width: 829
Flags: W
HStem: -77 214<328.509 497.723> 51 86<72 161 665 755> 222 85<72 157 328 499 669 755> 393 213<353.891 473.062> 393 85<72 161 665 755> 671 20G<240 280.217 546 586.333> 671 20G<240 280.217 546 586.333>
VStem: 157 171<137 222 307 393> 499 170<137 222 307 393>
LayerCount: 2
Fore
SplineSet
755 478 m 1x2d80
 755 393 l 1
 665 393 l 1
 667 379 669 365 669 350 c 2
 669 307 l 1
 755 307 l 1
 755 222 l 1
 669 222 l 1
 669 179 l 2
 669 164 667 151 665 137 c 1
 755 137 l 1
 755 51 l 1
 635 51 l 1x6d80
 591 -25 508 -77 413 -77 c 0xa180
 318 -77 236 -25 192 51 c 1
 72 51 l 1
 72 137 l 1
 161 137 l 1
 159 151 157 164 157 179 c 2
 157 222 l 1
 72 222 l 1
 72 307 l 1
 157 307 l 1
 157 350 l 2
 157 365 159 379 161 393 c 1
 72 393 l 1
 72 478 l 1
 192 478 l 1x6980
 211 511 237 539 269 561 c 1
 200 631 l 1
 260 691 l 1
 353 599 l 1
 372 604 392 606 413 606 c 0x3580
 434 606 454 604 474 599 c 1
 566 691 l 1
 627 631 l 1
 557 561 l 1
 589 539 616 511 635 478 c 1
 755 478 l 1x2d80
499 137 m 1
 499 222 l 1
 328 222 l 1
 328 137 l 1
 499 137 l 1
499 307 m 1
 499 393 l 1
 328 393 l 1
 328 307 l 1
 499 307 l 1
EndSplineSet
Validated: 1
EndChar

StartChar: Ccedilla
Encoding: 199 199 164
Width: 829
Flags: W
HStem: -77 214<328.509 497.723> 51 86<72 161 665 755> 222 85<72 157 328 499 669 755> 393 213<353.891 473.062> 393 85<72 161 665 755> 671 20G<240 280.217 546 586.333> 671 20G<240 280.217 546 586.333>
VStem: 157 171<137 222 307 393> 499 170<137 222 307 393>
LayerCount: 2
Fore
SplineSet
755 478 m 1x2d80
 755 393 l 1
 665 393 l 1
 667 379 669 365 669 350 c 2
 669 307 l 1
 755 307 l 1
 755 222 l 1
 669 222 l 1
 669 179 l 2
 669 164 667 151 665 137 c 1
 755 137 l 1
 755 51 l 1
 635 51 l 1x6d80
 591 -25 508 -77 413 -77 c 0xa180
 318 -77 236 -25 192 51 c 1
 72 51 l 1
 72 137 l 1
 161 137 l 1
 159 151 157 164 157 179 c 2
 157 222 l 1
 72 222 l 1
 72 307 l 1
 157 307 l 1
 157 350 l 2
 157 365 159 379 161 393 c 1
 72 393 l 1
 72 478 l 1
 192 478 l 1x6980
 211 511 237 539 269 561 c 1
 200 631 l 1
 260 691 l 1
 353 599 l 1
 372 604 392 606 413 606 c 0x3580
 434 606 454 604 474 599 c 1
 566 691 l 1
 627 631 l 1
 557 561 l 1
 589 539 616 511 635 478 c 1
 755 478 l 1x2d80
499 137 m 1
 499 222 l 1
 328 222 l 1
 328 137 l 1
 499 137 l 1
499 307 m 1
 499 393 l 1
 328 393 l 1
 328 307 l 1
 499 307 l 1
EndSplineSet
Validated: 1
EndChar

StartChar: Egrave
Encoding: 200 200 165
Width: 829
Flags: W
HStem: -77 214<328.509 497.723> 51 86<72 161 665 755> 222 85<72 157 328 499 669 755> 393 213<353.891 473.062> 393 85<72 161 665 755> 671 20G<240 280.217 546 586.333> 671 20G<240 280.217 546 586.333>
VStem: 157 171<137 222 307 393> 499 170<137 222 307 393>
LayerCount: 2
Fore
SplineSet
755 478 m 1x2d80
 755 393 l 1
 665 393 l 1
 667 379 669 365 669 350 c 2
 669 307 l 1
 755 307 l 1
 755 222 l 1
 669 222 l 1
 669 179 l 2
 669 164 667 151 665 137 c 1
 755 137 l 1
 755 51 l 1
 635 51 l 1x6d80
 591 -25 508 -77 413 -77 c 0xa180
 318 -77 236 -25 192 51 c 1
 72 51 l 1
 72 137 l 1
 161 137 l 1
 159 151 157 164 157 179 c 2
 157 222 l 1
 72 222 l 1
 72 307 l 1
 157 307 l 1
 157 350 l 2
 157 365 159 379 161 393 c 1
 72 393 l 1
 72 478 l 1
 192 478 l 1x6980
 211 511 237 539 269 561 c 1
 200 631 l 1
 260 691 l 1
 353 599 l 1
 372 604 392 606 413 606 c 0x3580
 434 606 454 604 474 599 c 1
 566 691 l 1
 627 631 l 1
 557 561 l 1
 589 539 616 511 635 478 c 1
 755 478 l 1x2d80
499 137 m 1
 499 222 l 1
 328 222 l 1
 328 137 l 1
 499 137 l 1
499 307 m 1
 499 393 l 1
 328 393 l 1
 328 307 l 1
 499 307 l 1
EndSplineSet
Validated: 1
EndChar

StartChar: Eacute
Encoding: 201 201 166
Width: 829
Flags: W
HStem: -77 214<328.509 497.723> 51 86<72 161 665 755> 222 85<72 157 328 499 669 755> 393 213<353.891 473.062> 393 85<72 161 665 755> 671 20G<240 280.217 546 586.333> 671 20G<240 280.217 546 586.333>
VStem: 157 171<137 222 307 393> 499 170<137 222 307 393>
LayerCount: 2
Fore
SplineSet
755 478 m 1x2d80
 755 393 l 1
 665 393 l 1
 667 379 669 365 669 350 c 2
 669 307 l 1
 755 307 l 1
 755 222 l 1
 669 222 l 1
 669 179 l 2
 669 164 667 151 665 137 c 1
 755 137 l 1
 755 51 l 1
 635 51 l 1x6d80
 591 -25 508 -77 413 -77 c 0xa180
 318 -77 236 -25 192 51 c 1
 72 51 l 1
 72 137 l 1
 161 137 l 1
 159 151 157 164 157 179 c 2
 157 222 l 1
 72 222 l 1
 72 307 l 1
 157 307 l 1
 157 350 l 2
 157 365 159 379 161 393 c 1
 72 393 l 1
 72 478 l 1
 192 478 l 1x6980
 211 511 237 539 269 561 c 1
 200 631 l 1
 260 691 l 1
 353 599 l 1
 372 604 392 606 413 606 c 0x3580
 434 606 454 604 474 599 c 1
 566 691 l 1
 627 631 l 1
 557 561 l 1
 589 539 616 511 635 478 c 1
 755 478 l 1x2d80
499 137 m 1
 499 222 l 1
 328 222 l 1
 328 137 l 1
 499 137 l 1
499 307 m 1
 499 393 l 1
 328 393 l 1
 328 307 l 1
 499 307 l 1
EndSplineSet
Validated: 1
EndChar

StartChar: Ecircumflex
Encoding: 202 202 167
Width: 829
Flags: W
HStem: -77 214<328.509 497.723> 51 86<72 161 665 755> 222 85<72 157 328 499 669 755> 393 213<353.891 473.062> 393 85<72 161 665 755> 671 20G<240 280.217 546 586.333> 671 20G<240 280.217 546 586.333>
VStem: 157 171<137 222 307 393> 499 170<137 222 307 393>
LayerCount: 2
Fore
SplineSet
755 478 m 1x2d80
 755 393 l 1
 665 393 l 1
 667 379 669 365 669 350 c 2
 669 307 l 1
 755 307 l 1
 755 222 l 1
 669 222 l 1
 669 179 l 2
 669 164 667 151 665 137 c 1
 755 137 l 1
 755 51 l 1
 635 51 l 1x6d80
 591 -25 508 -77 413 -77 c 0xa180
 318 -77 236 -25 192 51 c 1
 72 51 l 1
 72 137 l 1
 161 137 l 1
 159 151 157 164 157 179 c 2
 157 222 l 1
 72 222 l 1
 72 307 l 1
 157 307 l 1
 157 350 l 2
 157 365 159 379 161 393 c 1
 72 393 l 1
 72 478 l 1
 192 478 l 1x6980
 211 511 237 539 269 561 c 1
 200 631 l 1
 260 691 l 1
 353 599 l 1
 372 604 392 606 413 606 c 0x3580
 434 606 454 604 474 599 c 1
 566 691 l 1
 627 631 l 1
 557 561 l 1
 589 539 616 511 635 478 c 1
 755 478 l 1x2d80
499 137 m 1
 499 222 l 1
 328 222 l 1
 328 137 l 1
 499 137 l 1
499 307 m 1
 499 393 l 1
 328 393 l 1
 328 307 l 1
 499 307 l 1
EndSplineSet
Validated: 1
EndChar

StartChar: Edieresis
Encoding: 203 203 168
Width: 829
Flags: W
HStem: -77 214<328.509 497.723> 51 86<72 161 665 755> 222 85<72 157 328 499 669 755> 393 213<353.891 473.062> 393 85<72 161 665 755> 671 20G<240 280.217 546 586.333> 671 20G<240 280.217 546 586.333>
VStem: 157 171<137 222 307 393> 499 170<137 222 307 393>
LayerCount: 2
Fore
SplineSet
755 478 m 1x2d80
 755 393 l 1
 665 393 l 1
 667 379 669 365 669 350 c 2
 669 307 l 1
 755 307 l 1
 755 222 l 1
 669 222 l 1
 669 179 l 2
 669 164 667 151 665 137 c 1
 755 137 l 1
 755 51 l 1
 635 51 l 1x6d80
 591 -25 508 -77 413 -77 c 0xa180
 318 -77 236 -25 192 51 c 1
 72 51 l 1
 72 137 l 1
 161 137 l 1
 159 151 157 164 157 179 c 2
 157 222 l 1
 72 222 l 1
 72 307 l 1
 157 307 l 1
 157 350 l 2
 157 365 159 379 161 393 c 1
 72 393 l 1
 72 478 l 1
 192 478 l 1x6980
 211 511 237 539 269 561 c 1
 200 631 l 1
 260 691 l 1
 353 599 l 1
 372 604 392 606 413 606 c 0x3580
 434 606 454 604 474 599 c 1
 566 691 l 1
 627 631 l 1
 557 561 l 1
 589 539 616 511 635 478 c 1
 755 478 l 1x2d80
499 137 m 1
 499 222 l 1
 328 222 l 1
 328 137 l 1
 499 137 l 1
499 307 m 1
 499 393 l 1
 328 393 l 1
 328 307 l 1
 499 307 l 1
EndSplineSet
Validated: 1
EndChar

StartChar: Igrave
Encoding: 204 204 169
Width: 829
Flags: W
HStem: -77 214<328.509 497.723> 51 86<72 161 665 755> 222 85<72 157 328 499 669 755> 393 213<353.891 473.062> 393 85<72 161 665 755> 671 20G<240 280.217 546 586.333> 671 20G<240 280.217 546 586.333>
VStem: 157 171<137 222 307 393> 499 170<137 222 307 393>
LayerCount: 2
Fore
SplineSet
755 478 m 1x2d80
 755 393 l 1
 665 393 l 1
 667 379 669 365 669 350 c 2
 669 307 l 1
 755 307 l 1
 755 222 l 1
 669 222 l 1
 669 179 l 2
 669 164 667 151 665 137 c 1
 755 137 l 1
 755 51 l 1
 635 51 l 1x6d80
 591 -25 508 -77 413 -77 c 0xa180
 318 -77 236 -25 192 51 c 1
 72 51 l 1
 72 137 l 1
 161 137 l 1
 159 151 157 164 157 179 c 2
 157 222 l 1
 72 222 l 1
 72 307 l 1
 157 307 l 1
 157 350 l 2
 157 365 159 379 161 393 c 1
 72 393 l 1
 72 478 l 1
 192 478 l 1x6980
 211 511 237 539 269 561 c 1
 200 631 l 1
 260 691 l 1
 353 599 l 1
 372 604 392 606 413 606 c 0x3580
 434 606 454 604 474 599 c 1
 566 691 l 1
 627 631 l 1
 557 561 l 1
 589 539 616 511 635 478 c 1
 755 478 l 1x2d80
499 137 m 1
 499 222 l 1
 328 222 l 1
 328 137 l 1
 499 137 l 1
499 307 m 1
 499 393 l 1
 328 393 l 1
 328 307 l 1
 499 307 l 1
EndSplineSet
Validated: 1
EndChar

StartChar: Iacute
Encoding: 205 205 170
Width: 829
Flags: W
HStem: -77 214<328.509 497.723> 51 86<72 161 665 755> 222 85<72 157 328 499 669 755> 393 213<353.891 473.062> 393 85<72 161 665 755> 671 20G<240 280.217 546 586.333> 671 20G<240 280.217 546 586.333>
VStem: 157 171<137 222 307 393> 499 170<137 222 307 393>
LayerCount: 2
Fore
SplineSet
755 478 m 1x2d80
 755 393 l 1
 665 393 l 1
 667 379 669 365 669 350 c 2
 669 307 l 1
 755 307 l 1
 755 222 l 1
 669 222 l 1
 669 179 l 2
 669 164 667 151 665 137 c 1
 755 137 l 1
 755 51 l 1
 635 51 l 1x6d80
 591 -25 508 -77 413 -77 c 0xa180
 318 -77 236 -25 192 51 c 1
 72 51 l 1
 72 137 l 1
 161 137 l 1
 159 151 157 164 157 179 c 2
 157 222 l 1
 72 222 l 1
 72 307 l 1
 157 307 l 1
 157 350 l 2
 157 365 159 379 161 393 c 1
 72 393 l 1
 72 478 l 1
 192 478 l 1x6980
 211 511 237 539 269 561 c 1
 200 631 l 1
 260 691 l 1
 353 599 l 1
 372 604 392 606 413 606 c 0x3580
 434 606 454 604 474 599 c 1
 566 691 l 1
 627 631 l 1
 557 561 l 1
 589 539 616 511 635 478 c 1
 755 478 l 1x2d80
499 137 m 1
 499 222 l 1
 328 222 l 1
 328 137 l 1
 499 137 l 1
499 307 m 1
 499 393 l 1
 328 393 l 1
 328 307 l 1
 499 307 l 1
EndSplineSet
Validated: 1
EndChar

StartChar: Icircumflex
Encoding: 206 206 171
Width: 829
Flags: W
HStem: -77 214<328.509 497.723> 51 86<72 161 665 755> 222 85<72 157 328 499 669 755> 393 213<353.891 473.062> 393 85<72 161 665 755> 671 20G<240 280.217 546 586.333> 671 20G<240 280.217 546 586.333>
VStem: 157 171<137 222 307 393> 499 170<137 222 307 393>
LayerCount: 2
Fore
SplineSet
755 478 m 1x2d80
 755 393 l 1
 665 393 l 1
 667 379 669 365 669 350 c 2
 669 307 l 1
 755 307 l 1
 755 222 l 1
 669 222 l 1
 669 179 l 2
 669 164 667 151 665 137 c 1
 755 137 l 1
 755 51 l 1
 635 51 l 1x6d80
 591 -25 508 -77 413 -77 c 0xa180
 318 -77 236 -25 192 51 c 1
 72 51 l 1
 72 137 l 1
 161 137 l 1
 159 151 157 164 157 179 c 2
 157 222 l 1
 72 222 l 1
 72 307 l 1
 157 307 l 1
 157 350 l 2
 157 365 159 379 161 393 c 1
 72 393 l 1
 72 478 l 1
 192 478 l 1x6980
 211 511 237 539 269 561 c 1
 200 631 l 1
 260 691 l 1
 353 599 l 1
 372 604 392 606 413 606 c 0x3580
 434 606 454 604 474 599 c 1
 566 691 l 1
 627 631 l 1
 557 561 l 1
 589 539 616 511 635 478 c 1
 755 478 l 1x2d80
499 137 m 1
 499 222 l 1
 328 222 l 1
 328 137 l 1
 499 137 l 1
499 307 m 1
 499 393 l 1
 328 393 l 1
 328 307 l 1
 499 307 l 1
EndSplineSet
Validated: 1
EndChar

StartChar: Idieresis
Encoding: 207 207 172
Width: 829
Flags: W
HStem: -77 214<328.509 497.723> 51 86<72 161 665 755> 222 85<72 157 328 499 669 755> 393 213<353.891 473.062> 393 85<72 161 665 755> 671 20G<240 280.217 546 586.333> 671 20G<240 280.217 546 586.333>
VStem: 157 171<137 222 307 393> 499 170<137 222 307 393>
LayerCount: 2
Fore
SplineSet
755 478 m 1x2d80
 755 393 l 1
 665 393 l 1
 667 379 669 365 669 350 c 2
 669 307 l 1
 755 307 l 1
 755 222 l 1
 669 222 l 1
 669 179 l 2
 669 164 667 151 665 137 c 1
 755 137 l 1
 755 51 l 1
 635 51 l 1x6d80
 591 -25 508 -77 413 -77 c 0xa180
 318 -77 236 -25 192 51 c 1
 72 51 l 1
 72 137 l 1
 161 137 l 1
 159 151 157 164 157 179 c 2
 157 222 l 1
 72 222 l 1
 72 307 l 1
 157 307 l 1
 157 350 l 2
 157 365 159 379 161 393 c 1
 72 393 l 1
 72 478 l 1
 192 478 l 1x6980
 211 511 237 539 269 561 c 1
 200 631 l 1
 260 691 l 1
 353 599 l 1
 372 604 392 606 413 606 c 0x3580
 434 606 454 604 474 599 c 1
 566 691 l 1
 627 631 l 1
 557 561 l 1
 589 539 616 511 635 478 c 1
 755 478 l 1x2d80
499 137 m 1
 499 222 l 1
 328 222 l 1
 328 137 l 1
 499 137 l 1
499 307 m 1
 499 393 l 1
 328 393 l 1
 328 307 l 1
 499 307 l 1
EndSplineSet
Validated: 1
EndChar

StartChar: Eth
Encoding: 208 208 173
Width: 829
Flags: W
HStem: -77 214<328.509 497.723> 51 86<72 161 665 755> 222 85<72 157 328 499 669 755> 393 213<353.891 473.062> 393 85<72 161 665 755> 671 20G<240 280.217 546 586.333> 671 20G<240 280.217 546 586.333>
VStem: 157 171<137 222 307 393> 499 170<137 222 307 393>
LayerCount: 2
Fore
SplineSet
755 478 m 1x2d80
 755 393 l 1
 665 393 l 1
 667 379 669 365 669 350 c 2
 669 307 l 1
 755 307 l 1
 755 222 l 1
 669 222 l 1
 669 179 l 2
 669 164 667 151 665 137 c 1
 755 137 l 1
 755 51 l 1
 635 51 l 1x6d80
 591 -25 508 -77 413 -77 c 0xa180
 318 -77 236 -25 192 51 c 1
 72 51 l 1
 72 137 l 1
 161 137 l 1
 159 151 157 164 157 179 c 2
 157 222 l 1
 72 222 l 1
 72 307 l 1
 157 307 l 1
 157 350 l 2
 157 365 159 379 161 393 c 1
 72 393 l 1
 72 478 l 1
 192 478 l 1x6980
 211 511 237 539 269 561 c 1
 200 631 l 1
 260 691 l 1
 353 599 l 1
 372 604 392 606 413 606 c 0x3580
 434 606 454 604 474 599 c 1
 566 691 l 1
 627 631 l 1
 557 561 l 1
 589 539 616 511 635 478 c 1
 755 478 l 1x2d80
499 137 m 1
 499 222 l 1
 328 222 l 1
 328 137 l 1
 499 137 l 1
499 307 m 1
 499 393 l 1
 328 393 l 1
 328 307 l 1
 499 307 l 1
EndSplineSet
Validated: 1
EndChar

StartChar: Ntilde
Encoding: 209 209 174
Width: 829
Flags: W
HStem: -77 214<328.509 497.723> 51 86<72 161 665 755> 222 85<72 157 328 499 669 755> 393 213<353.891 473.062> 393 85<72 161 665 755> 671 20G<240 280.217 546 586.333> 671 20G<240 280.217 546 586.333>
VStem: 157 171<137 222 307 393> 499 170<137 222 307 393>
LayerCount: 2
Fore
SplineSet
755 478 m 1x2d80
 755 393 l 1
 665 393 l 1
 667 379 669 365 669 350 c 2
 669 307 l 1
 755 307 l 1
 755 222 l 1
 669 222 l 1
 669 179 l 2
 669 164 667 151 665 137 c 1
 755 137 l 1
 755 51 l 1
 635 51 l 1x6d80
 591 -25 508 -77 413 -77 c 0xa180
 318 -77 236 -25 192 51 c 1
 72 51 l 1
 72 137 l 1
 161 137 l 1
 159 151 157 164 157 179 c 2
 157 222 l 1
 72 222 l 1
 72 307 l 1
 157 307 l 1
 157 350 l 2
 157 365 159 379 161 393 c 1
 72 393 l 1
 72 478 l 1
 192 478 l 1x6980
 211 511 237 539 269 561 c 1
 200 631 l 1
 260 691 l 1
 353 599 l 1
 372 604 392 606 413 606 c 0x3580
 434 606 454 604 474 599 c 1
 566 691 l 1
 627 631 l 1
 557 561 l 1
 589 539 616 511 635 478 c 1
 755 478 l 1x2d80
499 137 m 1
 499 222 l 1
 328 222 l 1
 328 137 l 1
 499 137 l 1
499 307 m 1
 499 393 l 1
 328 393 l 1
 328 307 l 1
 499 307 l 1
EndSplineSet
Validated: 1
EndChar

StartChar: Ograve
Encoding: 210 210 175
Width: 829
Flags: W
HStem: -77 214<328.509 497.723> 51 86<72 161 665 755> 222 85<72 157 328 499 669 755> 393 213<353.891 473.062> 393 85<72 161 665 755> 671 20G<240 280.217 546 586.333> 671 20G<240 280.217 546 586.333>
VStem: 157 171<137 222 307 393> 499 170<137 222 307 393>
LayerCount: 2
Fore
SplineSet
755 478 m 1x2d80
 755 393 l 1
 665 393 l 1
 667 379 669 365 669 350 c 2
 669 307 l 1
 755 307 l 1
 755 222 l 1
 669 222 l 1
 669 179 l 2
 669 164 667 151 665 137 c 1
 755 137 l 1
 755 51 l 1
 635 51 l 1x6d80
 591 -25 508 -77 413 -77 c 0xa180
 318 -77 236 -25 192 51 c 1
 72 51 l 1
 72 137 l 1
 161 137 l 1
 159 151 157 164 157 179 c 2
 157 222 l 1
 72 222 l 1
 72 307 l 1
 157 307 l 1
 157 350 l 2
 157 365 159 379 161 393 c 1
 72 393 l 1
 72 478 l 1
 192 478 l 1x6980
 211 511 237 539 269 561 c 1
 200 631 l 1
 260 691 l 1
 353 599 l 1
 372 604 392 606 413 606 c 0x3580
 434 606 454 604 474 599 c 1
 566 691 l 1
 627 631 l 1
 557 561 l 1
 589 539 616 511 635 478 c 1
 755 478 l 1x2d80
499 137 m 1
 499 222 l 1
 328 222 l 1
 328 137 l 1
 499 137 l 1
499 307 m 1
 499 393 l 1
 328 393 l 1
 328 307 l 1
 499 307 l 1
EndSplineSet
Validated: 1
EndChar

StartChar: Oacute
Encoding: 211 211 176
Width: 829
Flags: W
HStem: -77 214<328.509 497.723> 51 86<72 161 665 755> 222 85<72 157 328 499 669 755> 393 213<353.891 473.062> 393 85<72 161 665 755> 671 20G<240 280.217 546 586.333> 671 20G<240 280.217 546 586.333>
VStem: 157 171<137 222 307 393> 499 170<137 222 307 393>
LayerCount: 2
Fore
SplineSet
755 478 m 1x2d80
 755 393 l 1
 665 393 l 1
 667 379 669 365 669 350 c 2
 669 307 l 1
 755 307 l 1
 755 222 l 1
 669 222 l 1
 669 179 l 2
 669 164 667 151 665 137 c 1
 755 137 l 1
 755 51 l 1
 635 51 l 1x6d80
 591 -25 508 -77 413 -77 c 0xa180
 318 -77 236 -25 192 51 c 1
 72 51 l 1
 72 137 l 1
 161 137 l 1
 159 151 157 164 157 179 c 2
 157 222 l 1
 72 222 l 1
 72 307 l 1
 157 307 l 1
 157 350 l 2
 157 365 159 379 161 393 c 1
 72 393 l 1
 72 478 l 1
 192 478 l 1x6980
 211 511 237 539 269 561 c 1
 200 631 l 1
 260 691 l 1
 353 599 l 1
 372 604 392 606 413 606 c 0x3580
 434 606 454 604 474 599 c 1
 566 691 l 1
 627 631 l 1
 557 561 l 1
 589 539 616 511 635 478 c 1
 755 478 l 1x2d80
499 137 m 1
 499 222 l 1
 328 222 l 1
 328 137 l 1
 499 137 l 1
499 307 m 1
 499 393 l 1
 328 393 l 1
 328 307 l 1
 499 307 l 1
EndSplineSet
Validated: 1
EndChar

StartChar: Ocircumflex
Encoding: 212 212 177
Width: 829
Flags: W
HStem: -77 214<328.509 497.723> 51 86<72 161 665 755> 222 85<72 157 328 499 669 755> 393 213<353.891 473.062> 393 85<72 161 665 755> 671 20G<240 280.217 546 586.333> 671 20G<240 280.217 546 586.333>
VStem: 157 171<137 222 307 393> 499 170<137 222 307 393>
LayerCount: 2
Fore
SplineSet
755 478 m 1x2d80
 755 393 l 1
 665 393 l 1
 667 379 669 365 669 350 c 2
 669 307 l 1
 755 307 l 1
 755 222 l 1
 669 222 l 1
 669 179 l 2
 669 164 667 151 665 137 c 1
 755 137 l 1
 755 51 l 1
 635 51 l 1x6d80
 591 -25 508 -77 413 -77 c 0xa180
 318 -77 236 -25 192 51 c 1
 72 51 l 1
 72 137 l 1
 161 137 l 1
 159 151 157 164 157 179 c 2
 157 222 l 1
 72 222 l 1
 72 307 l 1
 157 307 l 1
 157 350 l 2
 157 365 159 379 161 393 c 1
 72 393 l 1
 72 478 l 1
 192 478 l 1x6980
 211 511 237 539 269 561 c 1
 200 631 l 1
 260 691 l 1
 353 599 l 1
 372 604 392 606 413 606 c 0x3580
 434 606 454 604 474 599 c 1
 566 691 l 1
 627 631 l 1
 557 561 l 1
 589 539 616 511 635 478 c 1
 755 478 l 1x2d80
499 137 m 1
 499 222 l 1
 328 222 l 1
 328 137 l 1
 499 137 l 1
499 307 m 1
 499 393 l 1
 328 393 l 1
 328 307 l 1
 499 307 l 1
EndSplineSet
Validated: 1
EndChar

StartChar: Otilde
Encoding: 213 213 178
Width: 829
Flags: W
HStem: -77 214<328.509 497.723> 51 86<72 161 665 755> 222 85<72 157 328 499 669 755> 393 213<353.891 473.062> 393 85<72 161 665 755> 671 20G<240 280.217 546 586.333> 671 20G<240 280.217 546 586.333>
VStem: 157 171<137 222 307 393> 499 170<137 222 307 393>
LayerCount: 2
Fore
SplineSet
755 478 m 1x2d80
 755 393 l 1
 665 393 l 1
 667 379 669 365 669 350 c 2
 669 307 l 1
 755 307 l 1
 755 222 l 1
 669 222 l 1
 669 179 l 2
 669 164 667 151 665 137 c 1
 755 137 l 1
 755 51 l 1
 635 51 l 1x6d80
 591 -25 508 -77 413 -77 c 0xa180
 318 -77 236 -25 192 51 c 1
 72 51 l 1
 72 137 l 1
 161 137 l 1
 159 151 157 164 157 179 c 2
 157 222 l 1
 72 222 l 1
 72 307 l 1
 157 307 l 1
 157 350 l 2
 157 365 159 379 161 393 c 1
 72 393 l 1
 72 478 l 1
 192 478 l 1x6980
 211 511 237 539 269 561 c 1
 200 631 l 1
 260 691 l 1
 353 599 l 1
 372 604 392 606 413 606 c 0x3580
 434 606 454 604 474 599 c 1
 566 691 l 1
 627 631 l 1
 557 561 l 1
 589 539 616 511 635 478 c 1
 755 478 l 1x2d80
499 137 m 1
 499 222 l 1
 328 222 l 1
 328 137 l 1
 499 137 l 1
499 307 m 1
 499 393 l 1
 328 393 l 1
 328 307 l 1
 499 307 l 1
EndSplineSet
Validated: 1
EndChar

StartChar: Odieresis
Encoding: 214 214 179
Width: 829
Flags: W
HStem: -77 214<328.509 497.723> 51 86<72 161 665 755> 222 85<72 157 328 499 669 755> 393 213<353.891 473.062> 393 85<72 161 665 755> 671 20G<240 280.217 546 586.333> 671 20G<240 280.217 546 586.333>
VStem: 157 171<137 222 307 393> 499 170<137 222 307 393>
LayerCount: 2
Fore
SplineSet
755 478 m 1x2d80
 755 393 l 1
 665 393 l 1
 667 379 669 365 669 350 c 2
 669 307 l 1
 755 307 l 1
 755 222 l 1
 669 222 l 1
 669 179 l 2
 669 164 667 151 665 137 c 1
 755 137 l 1
 755 51 l 1
 635 51 l 1x6d80
 591 -25 508 -77 413 -77 c 0xa180
 318 -77 236 -25 192 51 c 1
 72 51 l 1
 72 137 l 1
 161 137 l 1
 159 151 157 164 157 179 c 2
 157 222 l 1
 72 222 l 1
 72 307 l 1
 157 307 l 1
 157 350 l 2
 157 365 159 379 161 393 c 1
 72 393 l 1
 72 478 l 1
 192 478 l 1x6980
 211 511 237 539 269 561 c 1
 200 631 l 1
 260 691 l 1
 353 599 l 1
 372 604 392 606 413 606 c 0x3580
 434 606 454 604 474 599 c 1
 566 691 l 1
 627 631 l 1
 557 561 l 1
 589 539 616 511 635 478 c 1
 755 478 l 1x2d80
499 137 m 1
 499 222 l 1
 328 222 l 1
 328 137 l 1
 499 137 l 1
499 307 m 1
 499 393 l 1
 328 393 l 1
 328 307 l 1
 499 307 l 1
EndSplineSet
Validated: 1
EndChar

StartChar: multiply
Encoding: 215 215 180
Width: 828
Flags: W
HStem: -77 214<329.277 498.491> 51 86<72 162 666 755> 222 85<72 158 328 499 670 755> 393 85<72 162 666 755> 671 20G<240.667 281.217 546.783 587> 671 20G<240.667 281.217 546.783 587>
VStem: 158 170<137 222 307 393> 499 171<137 222 307 393>
LayerCount: 2
Fore
SplineSet
755 478 m 1x7b
 755 393 l 1
 666 393 l 1
 668 379 670 365 670 350 c 2
 670 307 l 1
 755 307 l 1
 755 222 l 1
 670 222 l 1
 670 179 l 2
 670 164 668 151 666 137 c 1
 755 137 l 1
 755 51 l 1
 635 51 l 1x7b
 591 -25 509 -77 414 -77 c 0xb3
 319 -77 236 -25 192 51 c 1
 72 51 l 1
 72 137 l 1
 162 137 l 1
 160 151 158 164 158 179 c 2
 158 222 l 1
 72 222 l 1
 72 307 l 1
 158 307 l 1
 158 350 l 2
 158 365 160 379 162 393 c 1
 72 393 l 1
 72 478 l 1
 192 478 l 1
 211 511 238 539 270 561 c 1
 200 631 l 1
 261 691 l 1
 354 599 l 1
 373 604 393 606 414 606 c 0
 435 606 454 604 474 599 c 1
 567 691 l 1
 627 631 l 1
 558 561 l 1
 590 539 616 511 635 478 c 1
 755 478 l 1x7b
499 137 m 1
 499 222 l 1
 328 222 l 1
 328 137 l 1
 499 137 l 1
499 307 m 1
 499 393 l 1
 328 393 l 1
 328 307 l 1
 499 307 l 1
EndSplineSet
Validated: 1
EndChar

StartChar: Oslash
Encoding: 216 216 181
Width: 829
Flags: W
HStem: -77 214<328.509 497.723> 51 86<72 161 665 755> 222 85<72 157 328 499 669 755> 393 213<353.891 473.062> 393 85<72 161 665 755> 671 20G<240 280.217 546 586.333> 671 20G<240 280.217 546 586.333>
VStem: 157 171<137 222 307 393> 499 170<137 222 307 393>
LayerCount: 2
Fore
SplineSet
755 478 m 1x2d80
 755 393 l 1
 665 393 l 1
 667 379 669 365 669 350 c 2
 669 307 l 1
 755 307 l 1
 755 222 l 1
 669 222 l 1
 669 179 l 2
 669 164 667 151 665 137 c 1
 755 137 l 1
 755 51 l 1
 635 51 l 1x6d80
 591 -25 508 -77 413 -77 c 0xa180
 318 -77 236 -25 192 51 c 1
 72 51 l 1
 72 137 l 1
 161 137 l 1
 159 151 157 164 157 179 c 2
 157 222 l 1
 72 222 l 1
 72 307 l 1
 157 307 l 1
 157 350 l 2
 157 365 159 379 161 393 c 1
 72 393 l 1
 72 478 l 1
 192 478 l 1x6980
 211 511 237 539 269 561 c 1
 200 631 l 1
 260 691 l 1
 353 599 l 1
 372 604 392 606 413 606 c 0x3580
 434 606 454 604 474 599 c 1
 566 691 l 1
 627 631 l 1
 557 561 l 1
 589 539 616 511 635 478 c 1
 755 478 l 1x2d80
499 137 m 1
 499 222 l 1
 328 222 l 1
 328 137 l 1
 499 137 l 1
499 307 m 1
 499 393 l 1
 328 393 l 1
 328 307 l 1
 499 307 l 1
EndSplineSet
Validated: 1
EndChar

StartChar: Ugrave
Encoding: 217 217 182
Width: 829
Flags: W
HStem: -77 214<328.509 497.723> 51 86<72 161 665 755> 222 85<72 157 328 499 669 755> 393 213<353.891 473.062> 393 85<72 161 665 755> 671 20G<240 280.217 546 586.333> 671 20G<240 280.217 546 586.333>
VStem: 157 171<137 222 307 393> 499 170<137 222 307 393>
LayerCount: 2
Fore
SplineSet
755 478 m 1x2d80
 755 393 l 1
 665 393 l 1
 667 379 669 365 669 350 c 2
 669 307 l 1
 755 307 l 1
 755 222 l 1
 669 222 l 1
 669 179 l 2
 669 164 667 151 665 137 c 1
 755 137 l 1
 755 51 l 1
 635 51 l 1x6d80
 591 -25 508 -77 413 -77 c 0xa180
 318 -77 236 -25 192 51 c 1
 72 51 l 1
 72 137 l 1
 161 137 l 1
 159 151 157 164 157 179 c 2
 157 222 l 1
 72 222 l 1
 72 307 l 1
 157 307 l 1
 157 350 l 2
 157 365 159 379 161 393 c 1
 72 393 l 1
 72 478 l 1
 192 478 l 1x6980
 211 511 237 539 269 561 c 1
 200 631 l 1
 260 691 l 1
 353 599 l 1
 372 604 392 606 413 606 c 0x3580
 434 606 454 604 474 599 c 1
 566 691 l 1
 627 631 l 1
 557 561 l 1
 589 539 616 511 635 478 c 1
 755 478 l 1x2d80
499 137 m 1
 499 222 l 1
 328 222 l 1
 328 137 l 1
 499 137 l 1
499 307 m 1
 499 393 l 1
 328 393 l 1
 328 307 l 1
 499 307 l 1
EndSplineSet
Validated: 1
EndChar

StartChar: Uacute
Encoding: 218 218 183
Width: 829
Flags: W
HStem: -77 214<328.509 497.723> 51 86<72 161 665 755> 222 85<72 157 328 499 669 755> 393 213<353.891 473.062> 393 85<72 161 665 755> 671 20G<240 280.217 546 586.333> 671 20G<240 280.217 546 586.333>
VStem: 157 171<137 222 307 393> 499 170<137 222 307 393>
LayerCount: 2
Fore
SplineSet
755 478 m 1x2d80
 755 393 l 1
 665 393 l 1
 667 379 669 365 669 350 c 2
 669 307 l 1
 755 307 l 1
 755 222 l 1
 669 222 l 1
 669 179 l 2
 669 164 667 151 665 137 c 1
 755 137 l 1
 755 51 l 1
 635 51 l 1x6d80
 591 -25 508 -77 413 -77 c 0xa180
 318 -77 236 -25 192 51 c 1
 72 51 l 1
 72 137 l 1
 161 137 l 1
 159 151 157 164 157 179 c 2
 157 222 l 1
 72 222 l 1
 72 307 l 1
 157 307 l 1
 157 350 l 2
 157 365 159 379 161 393 c 1
 72 393 l 1
 72 478 l 1
 192 478 l 1x6980
 211 511 237 539 269 561 c 1
 200 631 l 1
 260 691 l 1
 353 599 l 1
 372 604 392 606 413 606 c 0x3580
 434 606 454 604 474 599 c 1
 566 691 l 1
 627 631 l 1
 557 561 l 1
 589 539 616 511 635 478 c 1
 755 478 l 1x2d80
499 137 m 1
 499 222 l 1
 328 222 l 1
 328 137 l 1
 499 137 l 1
499 307 m 1
 499 393 l 1
 328 393 l 1
 328 307 l 1
 499 307 l 1
EndSplineSet
Validated: 1
EndChar

StartChar: Ucircumflex
Encoding: 219 219 184
Width: 829
Flags: W
HStem: -77 214<328.509 497.723> 51 86<72 161 665 755> 222 85<72 157 328 499 669 755> 393 213<353.891 473.062> 393 85<72 161 665 755> 671 20G<240 280.217 546 586.333> 671 20G<240 280.217 546 586.333>
VStem: 157 171<137 222 307 393> 499 170<137 222 307 393>
LayerCount: 2
Fore
SplineSet
755 478 m 1x2d80
 755 393 l 1
 665 393 l 1
 667 379 669 365 669 350 c 2
 669 307 l 1
 755 307 l 1
 755 222 l 1
 669 222 l 1
 669 179 l 2
 669 164 667 151 665 137 c 1
 755 137 l 1
 755 51 l 1
 635 51 l 1x6d80
 591 -25 508 -77 413 -77 c 0xa180
 318 -77 236 -25 192 51 c 1
 72 51 l 1
 72 137 l 1
 161 137 l 1
 159 151 157 164 157 179 c 2
 157 222 l 1
 72 222 l 1
 72 307 l 1
 157 307 l 1
 157 350 l 2
 157 365 159 379 161 393 c 1
 72 393 l 1
 72 478 l 1
 192 478 l 1x6980
 211 511 237 539 269 561 c 1
 200 631 l 1
 260 691 l 1
 353 599 l 1
 372 604 392 606 413 606 c 0x3580
 434 606 454 604 474 599 c 1
 566 691 l 1
 627 631 l 1
 557 561 l 1
 589 539 616 511 635 478 c 1
 755 478 l 1x2d80
499 137 m 1
 499 222 l 1
 328 222 l 1
 328 137 l 1
 499 137 l 1
499 307 m 1
 499 393 l 1
 328 393 l 1
 328 307 l 1
 499 307 l 1
EndSplineSet
Validated: 1
EndChar

StartChar: Udieresis
Encoding: 220 220 185
Width: 829
Flags: W
HStem: -77 214<328.509 497.723> 51 86<72 161 665 755> 222 85<72 157 328 499 669 755> 393 213<353.891 473.062> 393 85<72 161 665 755> 671 20G<240 280.217 546 586.333> 671 20G<240 280.217 546 586.333>
VStem: 157 171<137 222 307 393> 499 170<137 222 307 393>
LayerCount: 2
Fore
SplineSet
755 478 m 1x2d80
 755 393 l 1
 665 393 l 1
 667 379 669 365 669 350 c 2
 669 307 l 1
 755 307 l 1
 755 222 l 1
 669 222 l 1
 669 179 l 2
 669 164 667 151 665 137 c 1
 755 137 l 1
 755 51 l 1
 635 51 l 1x6d80
 591 -25 508 -77 413 -77 c 0xa180
 318 -77 236 -25 192 51 c 1
 72 51 l 1
 72 137 l 1
 161 137 l 1
 159 151 157 164 157 179 c 2
 157 222 l 1
 72 222 l 1
 72 307 l 1
 157 307 l 1
 157 350 l 2
 157 365 159 379 161 393 c 1
 72 393 l 1
 72 478 l 1
 192 478 l 1x6980
 211 511 237 539 269 561 c 1
 200 631 l 1
 260 691 l 1
 353 599 l 1
 372 604 392 606 413 606 c 0x3580
 434 606 454 604 474 599 c 1
 566 691 l 1
 627 631 l 1
 557 561 l 1
 589 539 616 511 635 478 c 1
 755 478 l 1x2d80
499 137 m 1
 499 222 l 1
 328 222 l 1
 328 137 l 1
 499 137 l 1
499 307 m 1
 499 393 l 1
 328 393 l 1
 328 307 l 1
 499 307 l 1
EndSplineSet
Validated: 1
EndChar

StartChar: Yacute
Encoding: 221 221 186
Width: 829
Flags: W
HStem: -77 214<328.509 497.723> 51 86<72 161 665 755> 222 85<72 157 328 499 669 755> 393 213<353.891 473.062> 393 85<72 161 665 755> 671 20G<240 280.217 546 586.333> 671 20G<240 280.217 546 586.333>
VStem: 157 171<137 222 307 393> 499 170<137 222 307 393>
LayerCount: 2
Fore
SplineSet
755 478 m 1x2d80
 755 393 l 1
 665 393 l 1
 667 379 669 365 669 350 c 2
 669 307 l 1
 755 307 l 1
 755 222 l 1
 669 222 l 1
 669 179 l 2
 669 164 667 151 665 137 c 1
 755 137 l 1
 755 51 l 1
 635 51 l 1x6d80
 591 -25 508 -77 413 -77 c 0xa180
 318 -77 236 -25 192 51 c 1
 72 51 l 1
 72 137 l 1
 161 137 l 1
 159 151 157 164 157 179 c 2
 157 222 l 1
 72 222 l 1
 72 307 l 1
 157 307 l 1
 157 350 l 2
 157 365 159 379 161 393 c 1
 72 393 l 1
 72 478 l 1
 192 478 l 1x6980
 211 511 237 539 269 561 c 1
 200 631 l 1
 260 691 l 1
 353 599 l 1
 372 604 392 606 413 606 c 0x3580
 434 606 454 604 474 599 c 1
 566 691 l 1
 627 631 l 1
 557 561 l 1
 589 539 616 511 635 478 c 1
 755 478 l 1x2d80
499 137 m 1
 499 222 l 1
 328 222 l 1
 328 137 l 1
 499 137 l 1
499 307 m 1
 499 393 l 1
 328 393 l 1
 328 307 l 1
 499 307 l 1
EndSplineSet
Validated: 1
EndChar

StartChar: Thorn
Encoding: 222 222 187
Width: 829
Flags: W
HStem: -77 214<328.509 497.723> 51 86<72 161 665 755> 222 85<72 157 328 499 669 755> 393 213<353.891 473.062> 393 85<72 161 665 755> 671 20G<240 280.217 546 586.333> 671 20G<240 280.217 546 586.333>
VStem: 157 171<137 222 307 393> 499 170<137 222 307 393>
LayerCount: 2
Fore
SplineSet
755 478 m 1x2d80
 755 393 l 1
 665 393 l 1
 667 379 669 365 669 350 c 2
 669 307 l 1
 755 307 l 1
 755 222 l 1
 669 222 l 1
 669 179 l 2
 669 164 667 151 665 137 c 1
 755 137 l 1
 755 51 l 1
 635 51 l 1x6d80
 591 -25 508 -77 413 -77 c 0xa180
 318 -77 236 -25 192 51 c 1
 72 51 l 1
 72 137 l 1
 161 137 l 1
 159 151 157 164 157 179 c 2
 157 222 l 1
 72 222 l 1
 72 307 l 1
 157 307 l 1
 157 350 l 2
 157 365 159 379 161 393 c 1
 72 393 l 1
 72 478 l 1
 192 478 l 1x6980
 211 511 237 539 269 561 c 1
 200 631 l 1
 260 691 l 1
 353 599 l 1
 372 604 392 606 413 606 c 0x3580
 434 606 454 604 474 599 c 1
 566 691 l 1
 627 631 l 1
 557 561 l 1
 589 539 616 511 635 478 c 1
 755 478 l 1x2d80
499 137 m 1
 499 222 l 1
 328 222 l 1
 328 137 l 1
 499 137 l 1
499 307 m 1
 499 393 l 1
 328 393 l 1
 328 307 l 1
 499 307 l 1
EndSplineSet
Validated: 1
EndChar

StartChar: germandbls
Encoding: 223 223 188
Width: 829
Flags: W
HStem: -77 214<328.509 497.723> 51 86<72 161 665 755> 222 85<72 157 328 499 669 755> 393 213<353.891 473.062> 393 85<72 161 665 755> 671 20G<240 280.217 546 586.333> 671 20G<240 280.217 546 586.333>
VStem: 157 171<137 222 307 393> 499 170<137 222 307 393>
LayerCount: 2
Fore
SplineSet
755 478 m 1x2d80
 755 393 l 1
 665 393 l 1
 667 379 669 365 669 350 c 2
 669 307 l 1
 755 307 l 1
 755 222 l 1
 669 222 l 1
 669 179 l 2
 669 164 667 151 665 137 c 1
 755 137 l 1
 755 51 l 1
 635 51 l 1x6d80
 591 -25 508 -77 413 -77 c 0xa180
 318 -77 236 -25 192 51 c 1
 72 51 l 1
 72 137 l 1
 161 137 l 1
 159 151 157 164 157 179 c 2
 157 222 l 1
 72 222 l 1
 72 307 l 1
 157 307 l 1
 157 350 l 2
 157 365 159 379 161 393 c 1
 72 393 l 1
 72 478 l 1
 192 478 l 1x6980
 211 511 237 539 269 561 c 1
 200 631 l 1
 260 691 l 1
 353 599 l 1
 372 604 392 606 413 606 c 0x3580
 434 606 454 604 474 599 c 1
 566 691 l 1
 627 631 l 1
 557 561 l 1
 589 539 616 511 635 478 c 1
 755 478 l 1x2d80
499 137 m 1
 499 222 l 1
 328 222 l 1
 328 137 l 1
 499 137 l 1
499 307 m 1
 499 393 l 1
 328 393 l 1
 328 307 l 1
 499 307 l 1
EndSplineSet
Validated: 1
EndChar

StartChar: agrave
Encoding: 224 224 189
Width: 829
Flags: W
HStem: -77 214<328.509 497.723> 51 86<72 161 665 755> 222 85<72 157 328 499 669 755> 393 213<353.891 473.062> 393 85<72 161 665 755> 671 20G<240 280.217 546 586.333> 671 20G<240 280.217 546 586.333>
VStem: 157 171<137 222 307 393> 499 170<137 222 307 393>
LayerCount: 2
Fore
SplineSet
755 478 m 1x2d80
 755 393 l 1
 665 393 l 1
 667 379 669 365 669 350 c 2
 669 307 l 1
 755 307 l 1
 755 222 l 1
 669 222 l 1
 669 179 l 2
 669 164 667 151 665 137 c 1
 755 137 l 1
 755 51 l 1
 635 51 l 1x6d80
 591 -25 508 -77 413 -77 c 0xa180
 318 -77 236 -25 192 51 c 1
 72 51 l 1
 72 137 l 1
 161 137 l 1
 159 151 157 164 157 179 c 2
 157 222 l 1
 72 222 l 1
 72 307 l 1
 157 307 l 1
 157 350 l 2
 157 365 159 379 161 393 c 1
 72 393 l 1
 72 478 l 1
 192 478 l 1x6980
 211 511 237 539 269 561 c 1
 200 631 l 1
 260 691 l 1
 353 599 l 1
 372 604 392 606 413 606 c 0x3580
 434 606 454 604 474 599 c 1
 566 691 l 1
 627 631 l 1
 557 561 l 1
 589 539 616 511 635 478 c 1
 755 478 l 1x2d80
499 137 m 1
 499 222 l 1
 328 222 l 1
 328 137 l 1
 499 137 l 1
499 307 m 1
 499 393 l 1
 328 393 l 1
 328 307 l 1
 499 307 l 1
EndSplineSet
Validated: 1
EndChar

StartChar: aacute
Encoding: 225 225 190
Width: 829
Flags: W
HStem: -77 214<328.509 497.723> 51 86<72 161 665 755> 222 85<72 157 328 499 669 755> 393 213<353.891 473.062> 393 85<72 161 665 755> 671 20G<240 280.217 546 586.333> 671 20G<240 280.217 546 586.333>
VStem: 157 171<137 222 307 393> 499 170<137 222 307 393>
LayerCount: 2
Fore
SplineSet
755 478 m 1x2d80
 755 393 l 1
 665 393 l 1
 667 379 669 365 669 350 c 2
 669 307 l 1
 755 307 l 1
 755 222 l 1
 669 222 l 1
 669 179 l 2
 669 164 667 151 665 137 c 1
 755 137 l 1
 755 51 l 1
 635 51 l 1x6d80
 591 -25 508 -77 413 -77 c 0xa180
 318 -77 236 -25 192 51 c 1
 72 51 l 1
 72 137 l 1
 161 137 l 1
 159 151 157 164 157 179 c 2
 157 222 l 1
 72 222 l 1
 72 307 l 1
 157 307 l 1
 157 350 l 2
 157 365 159 379 161 393 c 1
 72 393 l 1
 72 478 l 1
 192 478 l 1x6980
 211 511 237 539 269 561 c 1
 200 631 l 1
 260 691 l 1
 353 599 l 1
 372 604 392 606 413 606 c 0x3580
 434 606 454 604 474 599 c 1
 566 691 l 1
 627 631 l 1
 557 561 l 1
 589 539 616 511 635 478 c 1
 755 478 l 1x2d80
499 137 m 1
 499 222 l 1
 328 222 l 1
 328 137 l 1
 499 137 l 1
499 307 m 1
 499 393 l 1
 328 393 l 1
 328 307 l 1
 499 307 l 1
EndSplineSet
Validated: 1
EndChar

